{"glyphs":{"0":{"ha":749,"x_min":62,"x_max":745,"o":"m 745 701 q 740 595 745 650 q 725 484 735 540 q 699 372 715 427 q 661 265 683 317 q 609 168 638 214 q 545 85 581 122 q 310 -17 447 -17 q 209 4 255 -17 q 131 67 163 26 q 80 168 98 108 q 62 306 62 228 q 75 461 62 381 q 112 618 87 542 q 174 762 137 694 q 262 882 212 830 q 370 961 311 932 q 505 989 430 989 q 604 970 559 989 q 679 916 648 952 q 728 826 711 880 q 745 701 745 772 m 632 692 q 597 841 632 787 q 494 895 562 895 q 419 877 454 895 q 350 825 384 860 q 300 759 323 798 q 257 676 277 721 q 223 583 238 632 q 198 486 208 534 q 182 390 187 437 q 176 302 176 343 q 188 201 176 243 q 218 131 199 159 q 265 91 238 104 q 322 78 292 78 q 394 94 359 78 q 460 143 429 111 q 527 243 496 182 q 582 378 558 304 q 618 533 605 452 q 632 692 632 614 z "},"1":{"ha":749,"x_min":253,"x_max":633,"o":"m 312 0 l 493 847 l 253 782 l 277 889 l 633 989 l 425 0 l 312 0 z "},"2":{"ha":749,"x_min":6,"x_max":731,"o":"m 614 757 q 575 858 614 822 q 467 895 536 895 q 334 867 401 895 q 210 786 268 839 l 238 911 q 356 972 296 955 q 494 989 415 989 q 667 931 602 989 q 731 777 731 874 q 703 632 731 694 q 613 511 675 569 q 433 378 551 452 q 269 267 325 311 q 186 187 213 224 q 147 100 159 151 l 627 100 l 606 0 l 6 0 l 16 48 q 69 189 34 130 q 167 304 104 248 q 361 444 230 359 q 511 552 457 504 q 589 646 565 600 q 614 757 614 692 z "},"3":{"ha":749,"x_min":24,"x_max":713,"o":"m 713 771 q 698 679 713 722 q 651 600 683 635 q 570 539 619 564 q 452 501 520 513 l 452 498 q 526 474 492 492 q 584 428 560 456 q 622 364 608 400 q 635 286 635 328 q 612 170 635 224 q 544 73 590 115 q 430 7 498 32 q 268 -17 361 -17 q 195 -12 231 -17 q 127 1 159 -7 q 69 19 96 9 q 24 39 43 28 l 47 144 q 91 120 66 132 q 146 99 117 108 q 208 84 176 90 q 272 78 240 78 q 391 95 343 78 q 469 141 439 113 q 510 205 498 169 q 522 279 522 241 q 463 407 522 360 q 282 454 403 454 l 208 454 l 229 550 l 310 550 q 434 564 380 550 q 525 605 488 578 q 580 668 562 631 q 599 751 599 705 q 589 807 599 781 q 560 852 580 833 q 510 883 540 871 q 437 895 479 895 q 371 889 403 895 q 312 876 340 884 q 260 858 284 868 q 218 838 237 848 l 241 949 q 281 963 259 956 q 329 976 302 970 q 387 985 355 981 q 457 989 419 989 q 574 970 526 989 q 653 920 622 951 q 699 850 684 889 q 713 771 713 811 z "},"4":{"ha":749,"x_min":-9,"x_max":715,"o":"m 715 972 l 578 330 l 706 330 l 684 229 l 557 229 l 508 0 l 398 0 l 447 229 l -9 229 l 11 325 q 313 631 158 458 q 592 972 467 803 l 715 972 m 469 330 l 568 796 q 143 330 388 569 l 469 330 z "},"5":{"ha":749,"x_min":41,"x_max":734,"o":"m 714 871 l 349 871 l 289 587 l 361 590 q 572 523 496 590 q 648 335 648 456 q 599 150 648 233 q 461 25 549 67 q 257 -17 374 -17 q 137 -7 197 -17 q 41 20 76 3 l 66 129 q 156 92 100 106 q 265 78 212 78 q 410 109 351 78 q 502 194 470 140 q 534 315 534 248 q 486 448 534 403 q 330 493 437 493 q 161 486 236 493 l 264 972 l 734 972 l 714 871 z "},"6":{"ha":749,"x_min":79,"x_max":755,"o":"m 733 856 q 665 883 705 872 q 578 895 625 895 q 473 875 523 895 q 382 819 424 855 q 318 751 347 791 q 266 665 289 711 q 225 569 242 619 q 199 471 208 519 l 201 471 q 244 525 219 500 q 300 569 269 550 q 367 598 331 587 q 443 608 404 608 q 549 589 503 608 q 625 536 594 570 q 671 453 655 501 q 686 346 686 405 q 665 213 686 278 q 602 97 644 148 q 499 14 560 45 q 359 -17 438 -17 q 245 4 297 -17 q 157 68 194 25 q 100 175 120 111 q 79 326 79 239 q 96 497 79 414 q 143 653 113 580 q 218 788 174 727 q 317 893 262 850 q 449 965 378 942 q 591 989 520 989 q 687 980 644 989 q 755 961 730 970 l 733 856 m 572 336 q 563 406 572 374 q 532 462 553 438 q 480 499 512 486 q 404 513 448 513 q 313 493 352 513 q 247 441 273 473 q 207 370 220 410 q 193 289 193 330 q 205 202 193 241 q 240 135 218 163 q 295 93 262 108 q 367 78 327 78 q 454 100 416 78 q 518 158 492 122 q 558 241 545 194 q 572 336 572 288 z "},"7":{"ha":749,"x_min":139,"x_max":824,"o":"m 265 0 l 139 0 q 344 414 203 181 q 665 872 486 646 l 184 872 l 205 972 l 824 972 l 810 908 q 463 410 602 642 q 265 0 324 178 z "},"8":{"ha":749,"x_min":44,"x_max":745,"o":"m 44 234 q 113 420 44 338 q 292 528 181 502 q 217 605 246 557 q 188 717 188 653 q 228 856 188 793 q 340 954 268 919 q 505 989 412 989 q 679 930 613 989 q 745 777 745 872 q 696 624 745 689 q 557 528 648 559 q 652 445 616 503 q 687 315 687 387 q 640 148 687 224 q 509 28 592 71 q 327 -16 425 -16 q 118 48 193 -16 q 44 234 44 111 m 168 238 q 211 125 168 167 q 337 83 254 83 q 451 113 397 83 q 537 199 505 144 q 570 318 570 254 q 526 434 570 389 q 411 478 482 478 q 290 446 347 478 q 200 358 233 414 q 168 238 168 303 m 300 703 q 338 606 300 644 q 436 569 376 569 q 528 594 482 569 q 602 664 574 620 q 630 762 630 709 q 593 858 630 821 q 492 895 555 895 q 356 840 412 895 q 300 703 300 784 z "},"9":{"ha":749,"x_min":50,"x_max":726,"o":"m 726 652 q 711 489 726 572 q 666 329 696 406 q 590 185 635 252 q 482 72 544 119 q 353 4 421 26 q 210 -17 286 -17 q 114 -9 157 -17 q 50 11 72 -1 l 65 117 q 126 91 89 103 q 215 78 164 78 q 325 97 272 78 q 419 149 378 115 q 482 210 453 174 q 535 290 511 246 q 578 386 559 334 q 607 494 596 437 l 604 494 q 560 438 585 464 q 505 394 535 412 q 441 366 475 376 q 368 355 406 355 q 249 381 297 355 q 171 447 200 407 q 128 534 141 486 q 115 627 115 583 q 124 710 115 667 q 150 792 132 752 q 195 868 168 833 q 259 931 222 904 q 344 973 296 958 q 450 989 392 989 q 572 963 520 989 q 658 892 624 938 q 709 786 692 847 q 726 652 726 724 m 612 681 q 600 768 612 729 q 566 836 588 808 q 512 879 543 863 q 443 895 481 895 q 352 873 392 895 q 285 815 313 851 q 243 733 258 780 q 229 637 229 687 q 238 570 229 604 q 267 510 247 536 q 318 467 286 484 q 395 450 349 450 q 493 471 452 450 q 561 526 534 492 q 600 601 587 559 q 612 681 612 642 z "},"\r":{"ha":135,"x_min":0,"x_max":0,"o":""}," ":{"ha":382,"x_min":0,"x_max":0,"o":""},"!":{"ha":443,"x_min":90,"x_max":410,"o":"m 249 273 l 157 273 l 293 972 l 410 972 l 249 273 m 240 62 q 234 33 240 47 q 218 9 228 20 q 194 -6 208 -1 q 165 -12 180 -12 q 136 -6 150 -12 q 112 9 122 -1 q 96 33 102 20 q 90 62 90 47 q 96 92 90 78 q 112 116 102 106 q 136 132 122 126 q 165 138 150 138 q 194 132 180 138 q 218 116 208 126 q 234 92 228 106 q 240 62 240 78 z "},"\"":{"ha":519,"x_min":186,"x_max":471,"o":"m 464 669 l 383 669 l 378 972 l 471 972 l 464 669 m 272 669 l 193 669 l 186 972 l 279 972 l 272 669 z "},"#":{"ha":821,"x_min":62,"x_max":831,"o":"m 815 628 l 639 628 l 596 425 l 786 425 l 768 353 l 582 353 l 522 83 l 436 83 l 494 353 l 325 353 l 268 83 l 183 83 l 240 353 l 62 353 l 77 425 l 256 425 l 297 627 l 110 627 l 123 700 l 311 700 l 368 972 l 454 972 l 399 700 l 568 700 l 627 972 l 710 972 l 654 700 l 831 700 l 815 628 m 383 628 l 339 425 l 511 425 l 554 628 l 383 628 z "},"$":{"ha":749,"x_min":50,"x_max":710,"o":"m 690 836 q 657 853 676 844 q 616 869 638 861 q 571 882 594 876 q 525 889 547 887 l 444 514 q 514 460 480 488 q 574 401 548 432 q 616 335 600 370 q 632 258 632 300 q 617 166 632 213 q 567 82 602 120 q 475 18 532 43 q 334 -11 418 -8 l 304 -142 l 235 -142 l 262 -9 q 203 -3 234 -8 q 143 10 172 3 q 90 26 115 18 q 50 43 66 35 l 69 153 q 114 129 88 140 q 168 108 139 117 q 225 92 196 98 q 281 82 254 85 l 358 441 q 281 500 317 471 q 221 561 246 529 q 181 632 195 593 q 167 720 167 671 q 189 823 167 775 q 251 906 211 871 q 348 962 291 941 q 473 983 404 983 l 497 1096 l 568 1096 l 543 981 q 635 965 590 977 q 710 940 680 953 l 690 836 m 453 890 q 378 873 410 888 q 324 834 346 858 q 292 782 302 811 q 281 722 281 753 q 288 674 281 696 q 309 632 296 652 q 341 595 323 612 q 383 559 360 577 l 453 890 m 518 248 q 513 285 518 267 q 496 321 507 303 q 465 358 484 339 q 419 397 446 376 l 354 82 q 429 101 398 85 q 480 139 460 116 q 509 190 500 161 q 518 248 518 218 z "},"%":{"ha":1143,"x_min":115,"x_max":1079,"o":"m 1079 290 q 1060 179 1079 233 q 1007 81 1041 124 q 924 13 972 39 q 817 -14 876 -14 q 719 6 758 -14 q 659 56 681 26 q 628 121 636 86 q 619 187 619 157 q 638 296 619 242 q 692 393 657 350 q 777 463 727 436 q 888 489 826 489 q 966 476 931 489 q 1027 437 1002 463 q 1065 375 1052 412 q 1079 290 1079 338 m 229 0 l 129 0 l 962 972 l 1063 972 l 229 0 m 575 787 q 556 676 575 730 q 503 578 537 621 q 420 510 468 536 q 313 484 372 484 q 243 493 273 484 q 191 518 213 502 q 154 554 169 534 q 131 597 140 574 q 119 642 123 619 q 115 685 115 665 q 124 758 115 722 q 149 828 132 794 q 188 890 165 861 q 241 940 212 919 q 307 974 271 962 q 383 986 342 986 q 462 973 427 986 q 522 934 497 960 q 561 872 547 909 q 575 787 575 835 m 987 288 q 982 335 987 312 q 964 375 977 357 q 932 403 952 393 q 885 414 913 414 q 811 392 844 414 q 757 337 779 370 q 723 263 734 303 q 711 186 711 223 q 718 139 711 162 q 736 99 724 117 q 770 72 749 82 q 819 61 790 61 q 888 80 857 61 q 941 131 919 100 q 975 203 963 163 q 987 288 987 244 m 484 785 q 478 832 484 809 q 460 872 473 854 q 429 900 448 890 q 380 911 409 911 q 307 889 339 911 q 252 834 275 867 q 218 761 230 801 q 207 684 207 720 q 213 637 207 660 q 232 597 219 615 q 266 569 245 580 q 315 558 286 558 q 384 577 353 558 q 437 628 414 597 q 471 701 459 660 q 484 785 484 741 z "},"&":{"ha":1069,"x_min":35,"x_max":1042,"o":"m 906 -16 q 838 -4 867 -16 q 783 28 808 7 q 739 79 759 50 q 701 143 719 108 q 627 84 667 113 q 540 33 587 55 q 439 -2 493 11 q 323 -16 385 -16 q 199 4 253 -16 q 109 57 145 23 q 53 137 72 91 q 35 237 35 183 q 56 350 35 300 q 117 441 78 401 q 211 513 157 481 q 332 570 266 545 q 303 601 317 583 q 277 641 288 618 q 258 689 265 663 q 250 745 250 715 q 273 847 250 802 q 334 923 296 892 q 424 972 373 955 q 532 989 475 989 q 625 975 583 989 q 697 937 667 961 q 744 879 728 912 q 761 806 761 846 q 745 718 761 755 q 697 651 728 680 q 623 599 667 622 q 524 554 579 576 q 596 505 564 533 q 655 444 629 477 q 702 376 681 412 q 740 304 723 340 q 881 516 833 403 q 935 760 929 629 l 1042 760 q 1018 604 1040 680 q 961 460 996 529 q 878 329 925 391 q 779 213 831 267 q 810 157 795 180 q 842 118 825 133 q 878 95 858 102 q 922 87 897 87 q 964 92 943 87 q 1011 106 986 97 l 989 1 q 952 -11 973 -6 q 906 -16 932 -16 m 328 81 q 428 93 382 81 q 516 126 475 105 q 594 174 557 146 q 663 231 630 201 q 614 332 639 289 q 559 408 589 375 q 495 467 530 441 q 415 513 460 492 q 319 474 366 497 q 234 419 271 452 q 174 344 197 387 q 151 244 151 301 q 164 176 151 206 q 200 124 176 146 q 256 92 223 103 q 328 81 288 81 m 653 793 q 643 838 653 819 q 615 872 633 858 q 575 893 598 886 q 526 900 552 900 q 456 888 488 900 q 404 856 425 877 q 370 807 382 836 q 358 747 358 779 q 381 662 358 699 q 439 606 405 626 q 519 637 481 621 q 587 676 557 654 q 635 726 617 698 q 653 793 653 755 z "},"'":{"ha":314,"x_min":182,"x_max":273,"o":"m 267 669 l 189 669 l 182 972 l 273 972 l 267 669 z "},"(":{"ha":422,"x_min":86,"x_max":551,"o":"m 551 972 q 400 802 467 890 q 285 619 332 713 q 212 424 237 525 q 186 212 186 322 q 193 103 186 158 q 214 -6 200 47 q 249 -109 229 -59 q 296 -203 269 -159 l 200 -203 q 150 -107 172 -158 q 115 -4 129 -57 q 93 102 100 49 q 86 207 86 156 q 111 428 86 324 q 182 627 136 532 q 295 807 229 721 q 443 972 361 892 l 551 972 z "},")":{"ha":422,"x_min":-125,"x_max":342,"o":"m 342 562 q 317 341 342 446 q 245 143 292 237 q 133 -37 199 49 q -16 -203 66 -123 l -125 -203 q 27 -32 -41 -120 q 142 150 95 56 q 216 346 190 244 q 241 557 241 447 q 234 666 241 611 q 213 774 227 721 q 179 878 199 828 q 132 972 159 928 l 227 972 q 277 876 255 927 q 313 772 298 825 q 334 666 327 720 q 342 562 342 613 z "},"*":{"ha":581,"x_min":117,"x_max":593,"o":"m 407 711 l 536 546 l 461 494 l 355 673 l 249 494 l 174 546 l 304 711 l 117 749 l 146 833 l 323 766 l 309 972 l 401 972 l 386 766 l 564 833 l 593 749 l 407 711 z "},"+":{"ha":951,"x_min":174,"x_max":811,"o":"m 538 359 l 538 86 l 449 86 l 449 359 l 174 359 l 174 450 l 449 450 l 449 724 l 538 724 l 538 450 l 811 450 l 811 359 l 538 359 z "},",":{"ha":302,"x_min":-53,"x_max":195,"o":"m 35 -179 l -53 -179 l 83 154 l 195 154 l 35 -179 z "},"-":{"ha":555,"x_min":89,"x_max":479,"o":"m 460 343 l 89 343 l 109 431 l 479 431 l 460 343 z "},".":{"ha":302,"x_min":16,"x_max":165,"o":"m 165 60 q 160 31 165 44 q 144 7 154 17 q 120 -9 134 -3 q 90 -16 106 -16 q 61 -9 75 -16 q 37 7 47 -3 q 21 31 27 17 q 16 60 16 44 q 21 89 16 75 q 37 113 27 103 q 61 129 47 123 q 90 135 75 135 q 120 129 106 135 q 144 113 134 123 q 160 89 154 103 q 165 60 165 75 z "},"/":{"ha":550,"x_min":-111,"x_max":708,"o":"m 3 -161 l -111 -161 l 595 972 l 708 972 l 3 -161 z "},":":{"ha":302,"x_min":16,"x_max":286,"o":"m 286 635 q 280 605 286 619 q 264 581 274 591 q 240 565 254 571 q 211 559 227 559 q 182 565 195 559 q 158 581 168 571 q 142 605 148 591 q 136 635 136 619 q 142 663 136 650 q 158 687 148 677 q 182 704 168 698 q 211 710 195 710 q 240 704 227 710 q 264 687 254 698 q 280 663 275 677 q 286 635 286 650 m 165 60 q 160 31 165 44 q 144 7 154 17 q 120 -9 134 -3 q 90 -16 106 -16 q 61 -9 75 -16 q 37 7 47 -3 q 21 31 27 17 q 16 60 16 44 q 21 89 16 75 q 37 113 27 103 q 61 129 47 123 q 90 135 75 135 q 120 129 106 135 q 144 113 134 123 q 160 89 154 103 q 165 60 165 75 z "},";":{"ha":302,"x_min":-69,"x_max":286,"o":"m 286 635 q 280 605 286 619 q 264 581 274 591 q 240 565 254 571 q 211 559 227 559 q 182 565 195 559 q 158 581 168 571 q 142 605 148 591 q 136 635 136 619 q 142 663 136 650 q 158 687 148 677 q 182 704 168 698 q 211 710 195 710 q 240 704 227 710 q 264 687 254 698 q 280 663 275 677 q 286 635 286 650 m 18 -179 l -69 -179 l 68 154 l 179 154 l 18 -179 z "},"<":{"ha":951,"x_min":161,"x_max":745,"o":"m 161 379 l 161 419 l 745 746 l 745 644 l 309 403 l 309 400 l 745 187 l 745 86 l 161 379 z "},"=":{"ha":951,"x_min":174,"x_max":811,"o":"m 174 504 l 174 595 l 811 595 l 811 504 l 174 504 m 174 215 l 174 306 l 811 306 l 811 215 l 174 215 z "},">":{"ha":951,"x_min":224,"x_max":806,"o":"m 224 86 l 224 187 l 660 399 l 660 403 l 224 643 l 224 746 l 806 419 l 806 379 l 224 86 z "},"?":{"ha":597,"x_min":131,"x_max":625,"o":"m 625 777 q 615 698 625 734 q 582 628 604 661 q 525 562 559 594 q 444 497 491 530 q 384 449 408 472 q 341 401 359 427 q 313 345 324 376 q 293 273 301 314 l 191 273 q 213 361 200 322 q 244 434 225 401 q 292 495 264 467 q 361 550 320 523 q 433 605 404 578 q 482 657 463 631 q 510 709 501 683 q 518 765 518 736 q 509 814 518 790 q 482 857 500 838 q 436 887 464 876 q 372 899 409 899 q 277 884 326 899 q 182 838 228 869 l 201 951 q 292 981 243 970 q 392 991 341 991 q 494 974 450 991 q 567 926 538 956 q 611 858 596 897 q 625 777 625 819 m 281 62 q 275 33 281 47 q 258 9 269 20 q 234 -6 248 -1 q 205 -12 220 -12 q 176 -6 190 -12 q 153 9 163 -1 q 137 33 142 20 q 131 62 131 47 q 137 92 131 78 q 153 116 142 106 q 176 132 163 126 q 205 138 190 138 q 234 132 220 138 q 258 116 248 126 q 275 92 269 106 q 281 62 281 78 z "},"@":{"ha":1333,"x_min":139,"x_max":1238,"o":"m 1238 541 q 1214 377 1238 454 q 1148 244 1191 301 q 1048 155 1106 188 q 920 122 989 122 q 859 132 885 122 q 814 159 832 142 q 787 198 796 176 q 778 248 778 221 q 779 264 778 258 q 782 283 780 271 l 779 283 q 687 164 739 205 q 568 123 636 123 q 501 138 532 123 q 448 181 470 153 q 413 247 425 208 q 400 334 400 286 q 426 485 400 413 q 496 612 452 557 q 600 699 541 667 q 726 732 659 732 q 779 725 755 732 q 821 707 803 718 q 850 679 838 695 q 868 646 862 663 l 871 646 q 874 660 871 649 q 881 684 878 671 q 888 708 885 696 q 892 722 891 719 l 981 722 q 964 665 975 701 q 941 585 954 629 q 915 494 928 541 q 891 404 902 447 q 873 326 880 361 q 867 272 867 291 q 883 216 867 231 q 932 200 899 200 q 1021 229 981 200 q 1091 304 1061 258 q 1137 408 1120 351 q 1153 524 1153 466 q 1143 619 1153 572 q 1113 708 1134 666 q 1060 787 1093 751 q 982 849 1027 823 q 877 890 936 876 q 742 905 817 905 q 610 888 674 905 q 488 840 545 871 q 383 762 431 808 q 301 657 336 715 q 247 528 267 598 q 228 378 228 458 q 255 206 228 284 q 336 71 281 127 q 475 -16 391 15 q 672 -47 559 -47 q 779 -42 728 -47 q 872 -27 829 -36 q 947 -7 914 -18 q 1002 14 981 3 l 985 -72 q 936 -90 966 -81 q 867 -108 906 -100 q 778 -121 827 -116 q 671 -126 729 -126 q 447 -91 545 -126 q 279 10 348 -56 q 175 169 211 75 q 139 378 139 262 q 161 551 139 470 q 224 699 184 631 q 321 820 264 767 q 446 910 378 873 q 592 967 514 947 q 754 986 671 986 q 966 950 876 986 q 1117 852 1057 913 q 1207 710 1177 791 q 1238 541 1238 629 m 828 550 q 801 629 828 601 q 729 657 774 657 q 639 632 682 657 q 565 562 597 606 q 515 460 534 518 q 497 335 497 401 q 505 278 497 303 q 526 237 513 254 q 557 212 539 220 q 595 203 574 203 q 671 225 635 203 q 734 286 706 247 q 785 376 763 324 q 819 486 806 427 q 828 550 828 521 z "},"A":{"ha":878,"x_min":-71,"x_max":798,"o":"m 677 0 l 633 272 l 221 272 l 64 0 l -71 0 l 509 972 l 628 972 l 798 0 l 677 0 m 553 789 q 552 804 552 795 q 551 822 551 813 q 551 840 551 831 q 551 854 551 848 l 549 854 q 543 840 547 848 q 536 822 540 831 q 527 804 532 813 q 519 789 523 795 l 279 375 l 615 375 l 553 789 z "},"B":{"ha":796,"x_min":50,"x_max":764,"o":"m 764 762 q 751 675 764 717 q 711 600 738 633 q 643 541 684 566 q 543 505 601 516 l 543 503 q 617 478 585 496 q 669 434 648 460 q 701 376 690 408 q 711 307 711 344 q 684 175 711 232 q 608 79 656 117 q 492 20 559 40 q 347 0 425 0 l 50 0 l 256 972 l 524 972 q 627 956 582 972 q 702 911 671 940 q 748 845 732 883 q 764 762 764 806 m 644 741 q 636 789 644 766 q 610 830 628 812 q 563 859 592 848 q 493 869 534 869 l 351 869 l 283 555 l 411 555 q 513 569 469 555 q 586 607 557 583 q 629 665 614 631 q 643 741 643 699 l 644 741 m 591 300 q 542 412 591 371 q 390 453 492 453 l 261 453 l 189 103 l 346 103 q 456 117 410 103 q 532 157 502 131 q 577 219 562 182 q 591 300 591 255 z "},"C":{"ha":888,"x_min":93,"x_max":924,"o":"m 899 811 q 853 838 879 824 q 798 862 828 851 q 731 880 767 873 q 653 886 694 886 q 470 850 551 886 q 331 751 388 814 q 243 603 274 688 q 212 419 212 518 q 235 276 212 338 q 298 172 257 214 q 397 108 340 130 q 525 86 455 86 q 606 91 570 86 q 674 105 643 96 q 733 127 705 115 q 786 154 760 140 l 760 35 q 642 -4 705 9 q 501 -17 579 -17 q 333 14 409 -17 q 204 100 258 44 q 122 235 151 156 q 93 410 93 313 q 133 644 93 537 q 248 827 174 750 q 426 946 322 903 q 657 989 530 989 q 811 970 744 989 q 924 928 878 951 l 899 811 z "},"D":{"ha":989,"x_min":50,"x_max":950,"o":"m 950 579 q 936 436 950 507 q 891 300 921 365 q 813 181 861 236 q 700 86 766 126 q 549 23 634 45 q 358 0 464 0 l 50 0 l 257 972 l 528 972 q 701 946 623 972 q 834 868 779 919 q 920 744 889 817 q 950 579 950 671 m 831 571 q 747 791 831 713 q 500 869 664 869 l 351 869 l 187 103 l 368 103 q 569 140 483 103 q 714 240 656 176 q 801 389 772 304 q 831 571 831 474 z "},"E":{"ha":693,"x_min":50,"x_max":749,"o":"m 726 869 l 351 869 l 281 538 l 628 538 l 606 435 l 258 435 l 187 103 l 586 103 l 566 0 l 50 0 l 256 972 l 749 972 l 726 869 z "},"F":{"ha":679,"x_min":50,"x_max":749,"o":"m 726 867 l 351 867 l 279 534 l 628 534 l 606 429 l 257 429 l 167 0 l 50 0 l 256 972 l 749 972 l 726 867 z "},"G":{"ha":956,"x_min":93,"x_max":937,"o":"m 916 807 q 864 836 893 822 q 801 862 836 850 q 726 880 766 873 q 640 886 686 886 q 460 850 539 886 q 326 752 380 814 q 241 606 271 690 q 212 427 212 522 q 234 284 212 347 q 298 177 256 221 q 398 110 339 133 q 530 86 456 86 q 622 95 581 86 q 699 117 663 103 l 757 400 l 532 400 l 554 501 l 896 501 l 800 53 q 673 2 743 22 q 517 -18 603 -18 q 338 15 417 -18 q 205 106 260 48 q 122 243 151 164 q 93 414 93 322 q 109 566 93 492 q 157 703 125 639 q 237 820 189 767 q 347 910 284 872 q 486 968 409 947 q 654 989 563 989 q 748 983 705 989 q 826 967 791 977 q 890 946 862 958 q 937 925 918 935 l 916 807 z "},"H":{"ha":983,"x_min":50,"x_max":987,"o":"m 781 0 l 664 0 l 757 439 l 260 439 l 168 0 l 50 0 l 256 972 l 374 972 l 282 546 l 779 546 l 871 972 l 987 972 l 781 0 z "},"I":{"ha":370,"x_min":50,"x_max":374,"o":"m 167 0 l 50 0 l 256 972 l 374 972 l 167 0 z "},"J":{"ha":481,"x_min":-72,"x_max":496,"o":"m 363 345 q 316 189 344 256 q 248 75 288 121 q 157 6 209 30 q 40 -17 106 -17 q 11 -15 28 -17 q -22 -9 -6 -13 q -52 -1 -39 -5 q -72 7 -66 3 l -53 115 q -35 103 -45 109 q -12 94 -24 98 q 14 87 0 90 q 40 85 27 85 q 108 98 77 85 q 164 141 139 111 q 210 220 190 172 q 245 339 231 269 l 379 972 l 496 972 l 363 345 z "},"K":{"ha":833,"x_min":50,"x_max":913,"o":"m 389 490 l 726 0 l 585 0 l 290 443 q 280 461 286 450 q 271 479 274 472 l 268 479 l 167 0 l 50 0 l 256 972 l 374 972 l 277 515 l 279 515 q 295 532 287 524 q 311 549 304 541 l 758 972 l 913 972 l 389 490 z "},"L":{"ha":643,"x_min":50,"x_max":576,"o":"m 554 0 l 50 0 l 256 972 l 374 972 l 189 106 l 576 106 l 554 0 z "},"M":{"ha":1136,"x_min":50,"x_max":1139,"o":"m 933 0 l 820 0 l 958 652 q 979 740 966 691 q 1009 846 992 789 l 1006 846 q 986 809 998 829 q 961 771 974 789 q 937 737 947 752 q 921 715 926 722 l 573 254 l 517 254 l 366 713 q 359 737 364 722 q 349 771 354 752 q 341 809 345 789 q 337 846 337 829 l 334 846 q 321 767 330 817 q 298 651 312 718 l 160 0 l 50 0 l 256 972 l 392 972 l 546 510 q 562 453 556 479 q 569 407 568 427 l 573 407 q 600 454 584 427 q 640 513 615 481 l 989 972 l 1139 972 l 933 0 z "},"N":{"ha":1043,"x_min":50,"x_max":1048,"o":"m 842 0 l 715 0 l 357 779 q 352 792 355 785 q 347 809 349 800 q 342 826 344 818 q 339 839 340 834 l 335 839 q 333 822 334 832 q 331 802 332 812 q 328 782 330 792 q 325 765 326 772 l 163 0 l 50 0 l 256 972 l 392 972 l 736 210 q 743 195 739 203 q 749 177 746 186 q 756 159 753 168 q 761 144 759 151 l 764 144 q 766 163 764 153 q 768 186 767 174 q 772 210 770 198 q 775 229 774 221 l 933 972 l 1048 972 l 842 0 z "},"O":{"ha":1047,"x_min":93,"x_max":1008,"o":"m 1008 578 q 997 453 1008 515 q 964 333 985 391 q 910 224 942 275 q 839 131 879 172 q 768 70 806 97 q 687 23 730 42 q 594 -7 644 3 q 488 -17 545 -17 q 323 15 396 -17 q 198 101 250 46 q 120 233 147 157 q 93 397 93 309 q 139 650 93 538 q 267 844 184 762 q 420 950 333 911 q 618 989 507 989 q 780 958 707 989 q 903 873 852 928 q 981 743 954 818 q 1008 578 1008 667 m 888 574 q 868 704 888 646 q 812 802 848 762 q 724 865 775 843 q 608 886 672 886 q 465 854 533 886 q 343 764 396 821 q 289 689 313 731 q 248 600 265 647 q 221 500 231 552 q 212 396 212 449 q 231 271 212 328 q 285 173 250 214 q 373 109 321 132 q 493 86 425 86 q 637 116 568 86 q 758 205 706 146 q 815 287 791 242 q 855 381 839 332 q 880 479 871 429 q 888 574 888 528 z "},"P":{"ha":799,"x_min":50,"x_max":798,"o":"m 798 717 q 773 582 798 645 q 699 471 749 518 q 572 396 649 423 q 392 368 496 368 l 244 368 l 167 0 l 50 0 l 256 972 l 507 972 q 641 951 585 972 q 731 894 696 930 q 782 812 766 859 q 798 717 798 766 m 677 707 q 665 773 677 743 q 628 825 652 804 q 567 858 604 846 q 484 869 531 869 l 351 869 l 267 471 l 403 471 q 527 489 475 471 q 612 538 578 507 q 662 613 646 570 q 677 707 677 656 z "},"Q":{"ha":1047,"x_min":93,"x_max":1008,"o":"m 1008 575 q 957 312 1008 435 q 812 104 905 189 q 597 -4 719 20 l 793 -235 l 640 -235 l 482 -17 q 277 38 365 -14 q 141 184 189 91 q 93 395 93 277 q 244 821 93 654 q 621 989 395 989 q 824 936 735 989 q 961 789 913 884 q 1008 575 1008 694 m 888 571 q 814 801 888 715 q 611 886 740 886 q 412 824 504 886 q 266 646 320 761 q 212 395 212 531 q 288 170 212 254 q 493 86 363 86 q 691 147 602 86 q 834 326 781 208 q 888 571 888 444 z "},"R":{"ha":808,"x_min":50,"x_max":793,"o":"m 793 732 q 771 618 793 669 q 710 530 749 567 q 618 472 671 494 q 501 444 564 450 l 501 441 q 557 399 533 431 q 596 311 581 366 l 677 0 l 553 0 l 481 290 q 431 384 465 354 q 340 414 397 414 l 256 414 l 167 0 l 50 0 l 256 972 l 524 972 q 646 954 595 972 q 729 902 696 935 q 777 825 762 869 q 793 732 793 781 m 673 720 q 663 780 673 752 q 632 827 653 807 q 578 858 611 847 q 501 869 546 869 l 351 869 l 277 517 l 411 517 q 532 534 482 517 q 613 578 582 551 q 659 643 645 606 q 673 720 673 680 z "},"S":{"ha":690,"x_min":25,"x_max":694,"o":"m 672 827 q 632 850 655 839 q 582 869 608 861 q 526 882 555 877 q 468 886 496 886 q 377 871 414 886 q 317 832 340 856 q 285 781 295 809 q 275 729 275 753 q 284 671 275 697 q 311 622 293 646 q 356 574 328 598 q 421 524 384 551 q 496 463 463 493 q 552 402 529 433 q 587 335 575 370 q 599 260 599 300 q 594 204 599 235 q 575 144 589 174 q 539 84 562 113 q 480 33 516 55 q 395 -3 445 10 q 277 -17 345 -17 q 202 -12 239 -17 q 133 3 165 -6 q 72 23 100 12 q 25 45 45 34 l 45 163 q 94 133 66 147 q 153 109 122 119 q 218 92 184 98 q 283 86 251 86 q 372 98 335 86 q 433 132 409 111 q 468 182 457 153 q 479 245 479 212 q 470 300 479 276 q 441 348 460 325 q 391 396 421 372 q 319 449 361 420 q 256 500 286 473 q 203 560 226 528 q 167 631 180 593 q 154 714 154 669 q 175 820 154 770 q 236 907 195 869 q 337 967 277 945 q 476 989 397 989 q 537 985 507 989 q 595 975 567 981 q 649 961 624 968 q 694 945 675 953 l 672 827 z "},"T":{"ha":730,"x_min":132,"x_max":829,"o":"m 807 869 l 530 869 l 347 0 l 231 0 l 415 869 l 132 869 l 154 972 l 829 972 l 807 869 z "},"U":{"ha":957,"x_min":114,"x_max":972,"o":"m 846 382 q 794 213 825 287 q 715 87 764 138 q 597 10 667 37 q 429 -17 527 -17 q 295 7 354 -17 q 196 72 236 31 q 135 170 156 113 q 114 292 114 226 q 118 357 114 321 q 127 427 121 394 l 245 972 l 363 972 l 245 433 q 240 399 243 418 q 234 363 237 381 q 231 328 232 345 q 229 300 229 312 q 245 205 229 245 q 291 139 262 165 q 358 99 319 113 q 443 86 397 86 q 546 102 500 86 q 626 153 591 119 q 685 241 661 188 q 726 370 710 295 l 856 972 l 972 972 l 846 382 z "},"V":{"ha":872,"x_min":144,"x_max":982,"o":"m 404 0 l 290 0 l 144 972 l 262 972 l 370 211 q 374 168 373 192 q 374 126 376 144 l 376 126 q 384 146 380 135 q 394 168 389 157 q 406 190 400 179 q 416 211 412 201 l 851 972 l 982 972 l 404 0 z "},"W":{"ha":1291,"x_min":134,"x_max":1409,"o":"m 924 0 l 803 0 l 741 721 q 741 768 739 742 q 745 818 743 795 l 742 818 q 725 769 735 796 q 704 722 715 742 l 335 0 l 211 0 l 134 972 l 254 972 l 304 232 q 304 182 306 209 q 300 135 303 156 l 302 135 q 311 157 306 144 q 321 182 315 169 q 332 208 326 195 q 343 232 338 221 l 721 972 l 825 972 l 886 227 q 888 182 888 208 q 885 135 887 156 l 888 135 q 896 158 891 146 q 905 183 900 171 q 915 208 910 196 q 925 229 920 220 l 1282 972 l 1409 972 l 924 0 z "},"X":{"ha":821,"x_min":-60,"x_max":925,"o":"m 925 972 q 901 944 920 966 q 854 888 882 922 q 792 815 827 855 q 722 732 758 774 q 651 649 686 690 q 587 575 616 608 q 539 518 559 542 q 514 488 519 495 q 526 458 516 481 q 549 401 535 435 q 581 327 564 368 q 616 243 598 286 q 651 160 634 201 q 683 86 669 119 q 707 30 697 52 q 720 0 717 7 l 587 0 l 443 372 q 439 382 441 376 q 435 396 437 389 q 432 411 433 404 q 429 422 431 418 l 427 422 q 421 412 425 418 q 413 398 418 406 q 404 382 409 390 q 395 370 399 375 l 86 0 l -60 0 q -35 28 -55 5 q 14 84 -16 51 q 79 158 43 117 q 152 242 115 199 q 226 327 189 286 q 293 404 262 369 q 345 464 323 439 q 374 497 366 488 q 360 532 370 507 q 335 590 349 557 q 303 664 320 624 q 268 744 286 703 q 233 823 250 785 q 202 893 216 862 q 179 946 189 925 q 168 972 170 967 l 302 972 l 440 610 q 445 598 442 605 q 449 585 447 592 q 453 571 451 578 q 456 559 455 564 l 458 559 q 464 570 460 564 q 472 584 467 576 q 481 598 476 591 q 490 611 486 606 l 789 972 l 925 972 z "},"Y":{"ha":770,"x_min":143,"x_max":890,"o":"m 441 370 l 364 0 l 248 0 l 325 367 l 143 972 l 267 972 l 387 525 q 395 493 392 509 q 400 467 398 477 l 401 467 q 416 493 407 477 q 436 524 426 508 l 760 972 l 890 972 l 441 370 z "},"Z":{"ha":791,"x_min":-53,"x_max":895,"o":"m 888 943 l 154 103 l 696 103 l 673 0 l -53 0 l -46 35 l 682 869 l 178 869 l 199 972 l 895 972 l 888 943 z "},"[":{"ha":422,"x_min":24,"x_max":528,"o":"m 510 892 l 359 892 l 140 -140 l 290 -140 l 273 -221 l 24 -221 l 278 972 l 528 972 l 510 892 z "},"\\":{"ha":536,"x_min":107,"x_max":440,"o":"m 343 -163 l 107 972 l 207 972 l 440 -163 l 343 -163 z "},"]":{"ha":422,"x_min":-103,"x_max":400,"o":"m 146 -221 l -103 -221 l -86 -140 l 64 -140 l 283 890 l 134 890 l 150 972 l 400 972 l 146 -221 z "},"^":{"ha":951,"x_min":178,"x_max":818,"o":"m 715 424 l 490 843 l 486 843 l 278 424 l 178 424 l 464 989 l 509 989 l 818 424 l 715 424 z "},"_":{"ha":576,"x_min":-117,"x_max":476,"o":"m -117 -201 l -100 -121 l 476 -121 l 460 -201 l -117 -201 z "},"`":{"ha":485,"x_min":196,"x_max":440,"o":"m 358 827 l 196 1048 l 300 1048 l 440 827 l 358 827 z "},"a":{"ha":753,"x_min":53,"x_max":710,"o":"m 614 222 q 603 164 608 197 q 594 101 598 132 q 588 42 591 69 q 586 0 586 15 l 471 0 q 473 33 471 14 q 476 72 474 52 q 481 112 479 92 q 486 146 484 132 l 484 146 q 441 83 463 113 q 393 31 419 54 q 334 -4 366 9 q 257 -17 301 -17 q 174 -1 212 -17 q 109 48 136 16 q 67 129 82 80 q 53 241 53 177 q 61 331 53 281 q 89 433 69 381 q 140 535 108 486 q 220 625 172 585 q 333 688 268 664 q 484 711 398 711 q 595 703 538 711 q 710 684 653 695 l 614 222 m 582 603 q 526 612 558 608 q 467 616 494 616 q 362 598 408 616 q 284 549 317 579 q 228 479 251 519 q 192 399 205 440 q 173 318 178 358 q 167 245 167 278 q 174 176 167 207 q 195 123 180 145 q 232 90 210 102 q 286 78 255 78 q 350 92 320 78 q 405 130 379 106 q 452 184 431 153 q 490 251 473 216 q 518 322 507 286 q 538 392 530 358 l 582 603 z "},"b":{"ha":753,"x_min":43,"x_max":700,"o":"m 700 452 q 690 353 700 406 q 660 249 681 300 q 606 149 639 197 q 528 64 574 100 q 422 5 482 27 q 286 -17 362 -17 q 222 -13 255 -17 q 157 0 189 -8 q 96 20 125 8 q 43 46 66 31 l 252 1028 l 364 1028 l 294 696 q 279 626 287 663 q 264 561 271 589 l 265 561 q 311 623 287 595 q 364 671 336 651 q 424 701 392 690 q 494 711 456 711 q 647 644 593 711 q 700 452 700 576 m 586 449 q 579 519 586 488 q 556 572 572 550 q 517 605 541 593 q 460 616 494 616 q 378 591 417 616 q 306 525 338 566 q 250 431 273 484 q 215 325 226 379 l 170 109 q 228 87 193 96 q 300 78 262 78 q 388 94 348 78 q 460 138 428 110 q 515 202 492 165 q 555 280 539 239 q 578 365 570 321 q 586 449 586 408 z "},"c":{"ha":606,"x_min":53,"x_max":611,"o":"m 586 557 q 517 599 557 582 q 428 616 477 616 q 343 600 381 616 q 277 557 306 584 q 227 494 248 530 q 192 421 205 459 q 172 346 178 383 q 165 275 165 308 q 208 128 165 178 q 325 78 251 78 q 418 97 370 78 q 509 144 466 115 l 485 33 q 397 -4 441 9 q 304 -17 353 -17 q 194 5 241 -17 q 115 64 146 26 q 68 154 84 102 q 53 267 53 206 q 64 379 53 323 q 99 483 76 434 q 155 574 121 532 q 231 647 188 616 q 327 694 274 677 q 441 711 380 711 q 497 707 471 711 q 545 696 524 703 q 584 682 567 690 q 611 667 601 674 l 586 557 z "},"d":{"ha":753,"x_min":53,"x_max":782,"o":"m 611 214 q 602 161 606 192 q 594 100 597 131 q 588 42 591 69 q 586 0 586 15 l 471 0 q 472 31 471 12 q 476 71 474 50 q 481 112 479 92 q 486 143 484 131 l 484 143 q 435 74 459 104 q 383 23 410 43 q 326 -7 356 3 q 258 -17 295 -17 q 173 0 211 -17 q 108 50 135 17 q 67 131 81 83 q 53 243 53 180 q 63 347 53 293 q 96 454 74 401 q 152 553 118 506 q 233 635 186 600 q 340 691 279 670 q 475 711 400 711 q 545 706 513 711 q 602 696 578 701 l 672 1028 l 782 1028 l 611 214 m 582 600 q 528 612 556 608 q 468 616 500 616 q 364 598 409 616 q 285 549 319 580 q 229 480 252 519 q 192 400 206 441 q 173 319 178 359 q 167 248 167 279 q 173 178 167 210 q 194 125 180 147 q 232 90 209 102 q 288 78 255 78 q 351 92 321 78 q 406 131 380 106 q 453 187 432 155 q 491 255 474 219 q 520 328 508 291 q 539 399 532 365 l 582 600 z "},"e":{"ha":676,"x_min":53,"x_max":650,"o":"m 650 532 q 625 432 650 477 q 545 354 601 387 q 396 304 488 322 q 168 286 304 287 q 167 271 167 279 q 167 257 167 263 q 177 188 167 220 q 209 131 187 155 q 263 92 230 106 q 343 78 297 78 q 446 96 390 78 q 553 147 502 114 l 532 37 q 443 -1 494 16 q 328 -17 391 -17 q 198 7 251 -17 q 114 70 146 31 q 67 162 81 110 q 53 271 53 214 q 66 388 53 332 q 105 494 80 445 q 164 583 130 543 q 241 652 199 623 q 331 696 283 680 q 431 711 379 711 q 525 697 484 711 q 594 658 566 683 q 635 601 621 633 q 650 532 650 568 m 536 526 q 505 593 536 569 q 421 616 473 616 q 341 598 380 616 q 270 549 302 581 q 214 474 237 517 q 179 379 190 430 q 344 389 276 379 q 454 418 412 399 q 517 464 497 437 q 536 526 536 492 z "},"f":{"ha":410,"x_min":7,"x_max":576,"o":"m 558 932 q 542 938 551 935 q 522 944 532 941 q 499 948 511 947 q 476 950 487 950 q 390 914 420 950 q 345 806 360 878 l 319 694 l 484 694 l 461 600 l 297 600 l 119 -231 l 7 -231 l 186 600 l 66 600 l 87 694 l 207 694 l 235 823 q 271 925 248 883 q 326 994 294 967 q 398 1032 357 1020 q 486 1044 438 1044 q 535 1040 511 1044 q 576 1031 559 1036 l 558 932 z "},"g":{"ha":753,"x_min":-24,"x_max":710,"o":"m 576 50 q 532 -100 559 -31 q 458 -219 504 -169 q 345 -298 412 -270 q 182 -326 278 -326 q 66 -311 115 -326 q -24 -273 17 -295 l -3 -170 q 88 -213 40 -195 q 192 -231 136 -231 q 297 -213 252 -231 q 373 -161 341 -195 q 427 -77 406 -127 q 463 36 448 -28 l 486 144 l 484 144 q 433 73 458 103 q 381 23 408 43 q 324 -7 354 3 q 258 -17 294 -17 q 174 0 212 -17 q 109 49 136 16 q 67 130 82 81 q 53 243 53 179 q 66 361 53 303 q 104 472 79 420 q 166 568 130 524 q 248 644 202 612 q 350 693 294 675 q 468 711 405 711 q 594 703 531 711 q 710 685 657 695 l 576 50 m 582 603 q 526 612 559 608 q 456 616 493 616 q 339 587 392 616 q 248 507 286 557 q 188 389 210 456 q 167 248 167 322 q 173 180 167 211 q 194 126 180 149 q 230 91 208 104 q 283 78 252 78 q 352 94 321 78 q 410 135 384 109 q 457 194 437 161 q 494 261 478 227 q 521 329 510 296 q 538 390 532 363 l 582 603 z "},"h":{"ha":774,"x_min":33,"x_max":703,"o":"m 703 519 q 700 493 703 511 q 695 454 698 475 q 688 414 692 434 q 681 380 684 394 l 600 0 l 488 0 l 572 407 q 578 432 575 418 q 583 460 581 446 q 586 487 585 475 q 587 505 587 498 q 563 587 587 558 q 489 616 539 616 q 402 591 446 616 q 321 525 359 566 q 257 435 284 485 q 218 336 229 385 l 146 0 l 33 0 l 253 1028 l 364 1028 l 258 532 l 261 532 q 316 603 286 570 q 379 660 346 636 q 450 698 413 684 q 526 711 487 711 q 658 660 613 711 q 703 519 703 609 z "},"i":{"ha":359,"x_min":65,"x_max":361,"o":"m 282 3 q 244 -6 265 -3 q 201 -9 222 -9 q 99 25 133 -9 q 65 117 65 59 q 68 157 65 134 q 79 214 72 180 l 180 694 l 293 694 l 191 211 q 183 167 185 182 q 180 140 180 151 q 196 98 180 113 q 244 83 211 83 q 275 85 262 83 q 300 92 288 87 l 282 3 m 361 942 q 341 890 361 911 q 290 868 320 868 q 238 889 260 868 q 216 942 216 911 q 238 993 216 973 q 290 1013 260 1013 q 340 992 319 1013 q 361 942 361 972 z "},"j":{"ha":334,"x_min":-265,"x_max":361,"o":"m 153 32 q 37 -237 115 -147 q -165 -326 -41 -326 q -190 -325 -177 -326 q -217 -321 -203 -323 q -242 -314 -230 -318 q -265 -306 -255 -311 l -245 -201 q -227 -212 -237 -207 q -203 -222 -216 -218 q -179 -229 -191 -227 q -155 -232 -166 -232 q -37 -172 -85 -232 q 36 11 11 -111 l 182 694 l 293 694 l 153 32 m 361 942 q 341 890 361 911 q 290 868 320 868 q 238 889 260 868 q 216 942 216 911 q 238 993 216 973 q 290 1013 260 1013 q 340 992 319 1013 q 361 942 361 972 z "},"k":{"ha":681,"x_min":33,"x_max":724,"o":"m 338 374 l 583 0 l 454 0 l 227 367 l 224 367 l 146 0 l 33 0 l 253 1028 l 364 1028 l 231 400 l 233 400 l 579 694 l 724 694 l 338 374 z "},"l":{"ha":359,"x_min":65,"x_max":366,"o":"m 282 3 q 244 -6 265 -3 q 201 -9 222 -9 q 99 25 133 -9 q 65 117 65 59 q 68 157 65 134 q 79 214 72 180 l 253 1029 l 366 1029 l 191 211 q 183 167 185 182 q 180 140 180 151 q 196 98 180 113 q 244 83 211 83 q 275 85 262 83 q 300 92 288 87 l 282 3 z "},"m":{"ha":1192,"x_min":33,"x_max":1121,"o":"m 1121 519 q 1119 493 1121 511 q 1113 454 1116 475 q 1105 414 1109 434 q 1099 380 1101 394 l 1017 0 l 905 0 l 990 407 q 996 433 993 418 q 1001 461 998 447 q 1004 487 1003 475 q 1006 505 1006 498 q 983 588 1006 559 q 911 616 960 616 q 858 605 885 616 q 804 572 830 593 q 754 525 778 552 q 710 467 730 498 q 675 404 690 436 q 654 340 661 372 l 582 0 l 469 0 l 555 407 q 561 433 558 418 q 566 461 564 447 q 570 487 568 475 q 571 505 571 498 q 547 588 571 559 q 476 616 524 616 q 422 605 450 616 q 368 572 394 593 q 317 524 341 551 q 273 466 293 496 q 239 402 253 435 q 218 339 225 370 l 146 0 l 33 0 l 140 496 q 151 551 146 522 q 161 607 157 580 q 170 656 166 633 q 175 694 173 680 l 283 694 q 275 639 280 668 q 267 586 271 610 q 258 530 263 557 l 261 530 q 314 603 286 570 q 374 660 342 636 q 441 698 406 684 q 513 711 475 711 q 587 699 556 711 q 639 662 618 686 q 671 606 660 639 q 684 532 682 572 q 738 603 709 570 q 799 660 766 635 q 869 697 832 684 q 947 711 906 711 q 1078 661 1034 711 q 1121 519 1121 610 z "},"n":{"ha":781,"x_min":39,"x_max":709,"o":"m 709 521 q 707 493 709 511 q 701 455 705 475 q 693 415 697 435 q 686 380 690 395 l 606 0 l 493 0 l 578 407 q 583 432 581 418 q 588 460 586 446 q 591 487 590 475 q 593 505 593 498 q 568 587 593 557 q 494 616 543 616 q 406 590 450 616 q 324 523 361 564 q 260 433 287 482 q 224 339 233 385 l 151 0 l 39 0 l 146 496 q 157 551 151 522 q 167 607 162 580 q 175 656 172 633 q 180 694 178 680 l 289 694 q 281 639 286 668 q 273 586 276 610 q 264 530 269 557 l 267 530 q 319 601 290 568 q 381 658 348 633 q 453 697 415 683 q 532 711 490 711 q 611 697 578 711 q 666 659 644 684 q 699 598 688 633 q 709 521 709 563 z "},"o":{"ha":743,"x_min":53,"x_max":690,"o":"m 690 437 q 664 262 690 345 q 589 118 638 180 q 470 19 540 56 q 311 -17 399 -17 q 204 2 252 -17 q 122 57 156 21 q 71 143 89 92 q 53 257 53 193 q 80 436 53 353 q 158 580 108 519 q 277 676 208 642 q 431 711 347 711 q 537 692 490 711 q 619 638 585 673 q 672 552 653 602 q 690 437 690 501 m 576 432 q 566 510 576 476 q 535 568 555 545 q 488 604 515 591 q 425 616 460 616 q 317 586 366 616 q 236 506 269 555 q 185 392 203 456 q 167 262 167 329 q 177 186 167 220 q 207 128 188 152 q 255 91 227 104 q 318 78 283 78 q 427 108 378 78 q 508 188 475 138 q 559 302 541 238 q 576 432 576 366 z "},"p":{"ha":753,"x_min":-39,"x_max":700,"o":"m 700 452 q 689 348 700 401 q 656 241 678 294 q 600 142 633 189 q 521 60 566 96 q 418 4 475 24 q 290 -17 360 -17 q 211 -9 250 -17 q 143 8 172 -2 l 74 -322 l -39 -322 l 131 481 q 140 533 136 503 q 147 594 144 564 q 152 652 150 625 q 154 694 154 680 l 268 694 q 266 663 268 683 q 262 622 264 644 q 256 581 259 601 q 252 549 254 561 l 254 549 q 363 671 302 631 q 494 711 423 711 q 580 695 542 711 q 645 646 618 679 q 686 565 671 614 q 700 452 700 516 m 586 447 q 579 515 586 484 q 558 568 573 546 q 520 604 543 591 q 463 616 496 616 q 396 602 427 616 q 339 563 366 587 q 291 506 313 538 q 252 439 269 474 q 223 370 235 405 q 205 304 212 335 l 163 103 q 192 93 175 98 q 227 85 209 89 q 264 80 245 82 q 300 78 283 78 q 386 94 347 78 q 457 136 426 109 q 513 199 489 163 q 553 276 537 235 q 578 361 570 317 q 586 447 586 405 z "},"q":{"ha":753,"x_min":53,"x_max":710,"o":"m 498 -322 l 386 -322 l 454 -1 q 469 68 460 32 q 485 134 477 105 l 484 134 q 436 70 460 98 q 384 23 411 42 q 325 -7 356 3 q 258 -17 294 -17 q 173 0 211 -17 q 108 50 134 17 q 67 132 81 83 q 53 243 53 180 q 62 340 53 288 q 92 444 71 392 q 145 545 113 496 q 226 630 178 593 q 336 689 273 667 q 479 711 399 711 q 550 708 516 711 q 614 700 585 705 q 668 689 644 695 q 710 679 692 684 l 498 -322 m 582 600 q 530 611 558 606 q 467 616 503 616 q 364 598 409 616 q 286 550 319 580 q 230 481 252 519 q 193 401 207 442 q 173 320 179 360 q 167 248 167 280 q 173 180 167 211 q 193 126 179 149 q 231 91 208 104 q 288 78 254 78 q 353 93 323 78 q 410 133 384 108 q 456 189 435 157 q 493 256 477 221 q 520 326 509 291 q 538 390 532 360 l 582 600 z "},"r":{"ha":493,"x_min":35,"x_max":539,"o":"m 519 576 l 517 576 q 481 592 503 585 q 437 600 459 600 q 362 575 398 600 q 297 508 326 549 q 245 412 267 466 q 211 302 223 359 l 146 0 l 35 0 l 132 461 q 144 521 138 490 q 156 583 151 552 q 165 643 161 614 q 171 694 169 671 l 281 694 q 276 651 279 674 q 271 607 273 629 q 265 569 268 586 q 261 542 262 551 l 264 542 q 308 612 286 581 q 355 665 330 643 q 408 699 380 687 q 468 711 435 711 q 506 708 487 711 q 539 700 524 704 l 519 576 z "},"s":{"ha":549,"x_min":11,"x_max":515,"o":"m 492 572 q 423 604 461 592 q 347 616 385 616 q 249 587 283 616 q 214 510 214 558 q 220 474 214 490 q 239 443 227 458 q 271 415 252 429 q 315 386 290 401 q 425 295 391 342 q 458 191 458 249 q 444 114 458 151 q 397 47 429 76 q 315 1 366 18 q 192 -17 264 -17 q 147 -14 172 -17 q 98 -6 123 -12 q 51 7 73 -1 q 11 25 28 15 l 33 131 q 67 112 47 121 q 110 95 87 102 q 159 83 134 87 q 210 78 184 78 q 311 105 277 78 q 345 180 345 132 q 339 213 345 198 q 321 243 334 228 q 288 273 309 258 q 235 307 267 288 q 133 395 165 349 q 100 498 100 441 q 115 579 100 541 q 162 647 131 617 q 239 694 193 676 q 349 711 286 711 q 441 702 397 711 q 515 677 485 692 l 492 572 z "},"t":{"ha":449,"x_min":66,"x_max":489,"o":"m 468 600 l 293 600 l 215 232 q 207 186 211 211 q 203 147 203 162 q 218 97 203 113 q 267 82 233 82 q 288 85 275 82 q 314 92 300 87 q 341 101 328 96 q 364 110 354 106 l 343 12 q 289 -5 319 2 q 232 -12 259 -12 q 166 -2 193 -12 q 122 26 139 7 q 97 70 104 44 q 89 129 89 96 q 93 175 89 149 q 102 222 96 201 l 182 600 l 66 600 l 87 694 l 201 694 l 237 864 q 258 870 240 865 q 297 882 276 876 q 337 894 319 888 q 357 900 355 899 l 314 694 l 489 694 l 468 600 z "},"u":{"ha":775,"x_min":66,"x_max":737,"o":"m 631 197 q 620 142 625 171 q 610 87 614 114 q 602 38 605 61 q 596 0 598 15 l 488 0 q 495 55 491 26 q 504 109 500 84 q 513 164 509 137 l 510 164 q 457 94 486 127 q 395 36 429 61 q 324 -3 361 12 q 245 -17 286 -17 q 167 -3 201 -17 q 111 36 134 11 q 78 96 89 61 q 66 175 66 132 q 69 201 66 184 q 75 239 72 219 q 83 280 79 260 q 90 314 87 300 l 171 694 l 283 694 l 197 288 q 192 262 195 277 q 187 234 189 248 q 183 208 184 220 q 182 189 182 196 q 207 108 182 138 q 281 78 231 78 q 340 90 311 78 q 398 123 370 102 q 452 171 427 144 q 497 230 477 199 q 532 293 517 260 q 553 355 546 326 l 625 694 l 737 694 l 631 197 z "},"v":{"ha":657,"x_min":93,"x_max":718,"o":"m 297 0 l 203 0 l 93 694 l 205 694 l 267 257 q 270 228 269 244 q 274 195 272 212 q 276 161 275 178 q 277 132 277 145 l 279 132 q 292 160 285 144 q 308 192 299 176 q 326 226 317 209 q 343 257 335 243 l 591 694 l 718 694 l 297 0 z "},"w":{"ha":1000,"x_min":85,"x_max":1050,"o":"m 694 0 l 585 0 l 545 493 q 544 509 544 499 q 544 528 544 518 q 546 546 545 537 q 547 561 547 555 l 545 561 q 539 545 543 554 q 532 527 536 536 q 523 508 528 517 q 515 492 519 498 l 256 0 l 146 0 l 85 694 l 192 694 l 225 175 q 225 143 227 160 q 222 110 224 125 l 227 110 q 239 145 232 125 q 253 178 246 164 l 524 694 l 623 694 l 661 174 q 661 140 663 158 q 657 109 659 122 l 663 109 q 667 124 664 115 q 673 141 670 132 q 681 159 677 151 q 688 175 684 168 l 937 694 l 1050 694 l 694 0 z "},"x":{"ha":632,"x_min":-58,"x_max":690,"o":"m 379 339 l 539 0 l 416 -1 l 329 216 q 318 245 325 227 q 304 279 311 264 l 301 279 q 290 264 296 273 q 277 248 283 256 q 266 232 271 239 q 256 220 260 225 l 74 0 l -58 0 l 254 346 l 98 694 l 221 694 l 304 473 q 317 438 311 457 q 326 408 323 419 l 329 408 q 338 420 333 413 q 350 435 344 427 q 362 452 356 444 q 375 467 369 460 l 564 694 l 690 694 l 379 339 z "},"y":{"ha":672,"x_min":-109,"x_max":742,"o":"m 249 -115 q 186 -205 218 -166 q 119 -271 154 -244 q 44 -312 84 -298 q -43 -326 5 -326 q -78 -323 -58 -326 q -109 -317 -97 -320 l -87 -218 q -61 -227 -77 -224 q -29 -231 -45 -231 q 55 -205 18 -231 q 126 -126 93 -179 l 210 3 l 83 694 l 199 694 l 279 161 q 282 133 281 146 q 281 109 282 119 l 285 109 q 295 132 288 117 q 311 160 302 146 l 619 694 l 742 694 l 249 -115 z "},"z":{"ha":628,"x_min":-53,"x_max":672,"o":"m 665 661 l 144 94 l 539 94 l 518 0 l -53 0 l -45 36 l 476 600 l 114 600 l 135 694 l 672 694 l 665 661 z "},"{":{"ha":422,"x_min":49,"x_max":498,"o":"m 481 888 q 394 857 429 888 q 345 754 360 827 l 302 562 q 253 439 286 486 q 170 376 220 392 l 170 374 q 213 332 195 361 q 231 253 231 303 q 229 222 231 238 q 224 189 228 207 l 186 14 q 180 -20 182 -4 q 178 -49 178 -35 q 199 -108 178 -90 q 265 -129 220 -127 l 248 -211 q 171 -199 203 -210 q 118 -167 138 -187 q 87 -120 97 -147 q 78 -61 78 -94 q 80 -32 78 -46 q 85 -1 81 -17 l 126 192 q 131 220 130 206 q 132 245 132 233 q 112 313 132 288 q 49 342 92 338 l 66 419 q 156 456 123 422 q 204 562 189 490 l 245 758 q 283 864 259 823 q 341 929 308 905 q 414 962 374 953 q 498 972 454 972 l 481 888 z "},"|":{"ha":334,"x_min":118,"x_max":216,"o":"m 118 -326 l 118 1063 l 216 1063 l 216 -326 l 118 -326 z "},"}":{"ha":422,"x_min":-75,"x_max":374,"o":"m 355 342 q 306 332 328 340 q 267 306 283 323 q 238 262 250 288 q 218 199 226 235 l 176 4 q 139 -102 163 -60 q 82 -167 115 -143 q 9 -200 50 -191 q -75 -210 -31 -210 l -58 -126 q 29 -95 -5 -125 q 79 8 64 -64 l 119 199 q 170 322 136 275 q 254 386 203 370 l 254 389 q 210 430 229 401 q 192 510 192 459 q 194 540 192 524 q 199 574 195 556 l 236 749 q 244 810 244 783 q 224 870 244 850 q 158 890 203 889 l 175 972 q 253 961 220 972 q 305 930 285 949 q 335 883 326 910 q 345 823 345 856 q 343 794 345 809 q 338 764 341 779 l 297 571 q 292 542 294 555 q 290 517 290 529 q 311 448 290 473 q 374 421 332 423 l 355 342 z "},"~":{"ha":951,"x_min":153,"x_max":821,"o":"m 821 509 q 806 425 819 463 q 770 358 793 386 q 712 314 747 330 q 631 298 677 298 q 581 304 604 298 q 537 320 558 310 q 495 344 515 330 q 453 372 475 357 q 428 388 441 380 q 400 403 414 396 q 372 414 387 410 q 343 418 357 418 q 272 387 296 418 q 244 298 247 356 l 153 298 q 168 383 155 345 q 204 450 180 422 q 263 493 228 477 q 343 509 298 509 q 391 504 369 509 q 433 490 414 498 q 469 471 452 481 q 503 449 486 460 q 542 422 525 434 q 574 403 559 410 q 604 391 589 395 q 636 387 619 387 q 674 396 657 387 q 703 421 691 405 q 722 460 715 437 q 729 509 728 482 l 821 509 z "},"Ä":{"ha":878,"x_min":-71,"x_max":798,"o":"m 677 0 l 633 272 l 221 272 l 64 0 l -71 0 l 509 972 l 628 972 l 798 0 l 677 0 m 553 789 q 552 804 552 795 q 551 822 551 813 q 551 840 551 831 q 551 854 551 848 l 549 854 q 543 840 547 848 q 536 822 540 831 q 527 804 532 813 q 519 789 523 795 l 279 375 l 615 375 l 553 789 m 781 1129 q 761 1082 781 1101 q 713 1063 741 1063 q 667 1081 686 1063 q 647 1129 647 1100 q 652 1156 647 1143 q 667 1177 658 1168 q 687 1191 675 1185 q 712 1196 699 1196 q 739 1191 726 1196 q 761 1176 751 1185 q 775 1155 770 1167 q 781 1129 781 1143 m 519 1129 q 514 1103 519 1115 q 499 1082 509 1091 q 478 1068 490 1073 q 451 1063 465 1063 q 426 1068 438 1063 q 405 1082 414 1073 q 390 1103 395 1090 q 385 1129 385 1115 q 390 1156 385 1143 q 405 1177 395 1168 q 426 1191 414 1185 q 451 1196 438 1196 q 478 1191 465 1196 q 499 1176 490 1185 q 514 1155 509 1167 q 519 1129 519 1143 z "},"Å":{"ha":878,"x_min":-71,"x_max":798,"o":"m 677 0 l 633 272 l 221 272 l 64 0 l -71 0 l 489 939 q 447 982 463 954 q 431 1046 431 1009 q 442 1101 431 1076 q 472 1144 453 1126 q 517 1171 492 1162 q 572 1181 543 1181 q 628 1171 603 1181 q 671 1144 653 1161 q 700 1102 690 1126 q 710 1050 710 1078 q 689 979 710 1010 q 635 933 668 949 l 798 0 l 677 0 m 647 1050 q 641 1081 647 1067 q 624 1104 635 1095 q 600 1120 614 1114 q 570 1125 586 1125 q 514 1104 535 1125 q 493 1050 493 1082 q 514 992 493 1013 q 570 972 536 972 q 625 995 603 972 q 647 1050 647 1017 m 553 789 q 552 804 552 795 q 551 822 551 813 q 551 840 551 831 q 551 854 551 848 l 549 854 q 543 840 547 848 q 536 822 540 831 q 527 804 532 813 q 519 789 523 795 l 279 375 l 615 375 l 553 789 z "},"Ç":{"ha":888,"x_min":90,"x_max":921,"o":"m 757 35 q 638 -4 698 9 q 509 -17 578 -17 l 497 -71 q 544 -76 522 -71 q 582 -94 566 -82 q 608 -122 598 -105 q 618 -161 618 -139 q 567 -258 618 -222 q 419 -294 517 -294 q 390 -293 406 -294 q 359 -290 374 -292 l 372 -231 q 424 -235 399 -235 q 511 -218 482 -235 q 539 -172 539 -201 q 520 -135 539 -149 q 458 -121 500 -121 q 440 -121 450 -121 q 421 -123 431 -122 l 444 -14 q 298 29 363 -5 q 186 118 233 63 q 115 247 140 173 q 90 410 90 321 q 131 644 90 537 q 245 827 171 750 q 424 946 319 903 q 654 989 528 989 q 808 970 741 989 q 921 928 875 951 l 896 811 q 851 838 876 824 q 795 862 826 851 q 728 880 764 873 q 650 886 692 886 q 467 850 548 886 q 329 751 386 814 q 241 603 272 688 q 211 419 211 518 q 233 276 211 338 q 297 172 256 214 q 395 108 338 130 q 522 86 452 86 q 604 91 567 86 q 671 105 640 96 q 730 127 703 115 q 783 154 758 140 l 757 35 z "},"É":{"ha":693,"x_min":50,"x_max":749,"o":"m 726 869 l 351 869 l 281 538 l 628 538 l 606 435 l 258 435 l 187 103 l 586 103 l 566 0 l 50 0 l 256 972 l 749 972 l 726 869 m 521 1063 l 437 1063 l 633 1284 l 743 1284 l 521 1063 z "},"Ñ":{"ha":1043,"x_min":50,"x_max":1048,"o":"m 842 0 l 715 0 l 357 779 q 352 792 355 785 q 347 809 349 800 q 342 826 344 818 q 339 839 340 834 l 335 839 q 333 822 334 832 q 331 802 332 812 q 328 782 330 792 q 325 765 326 772 l 163 0 l 50 0 l 256 972 l 392 972 l 736 210 q 743 195 739 203 q 749 177 746 186 q 756 159 753 168 q 761 144 759 151 l 764 144 q 766 163 764 153 q 768 186 767 174 q 772 210 770 198 q 775 229 774 221 l 933 972 l 1048 972 l 842 0 m 899 1225 q 885 1167 897 1194 q 853 1120 873 1140 q 808 1088 834 1099 q 751 1076 782 1076 q 697 1086 719 1076 q 657 1107 675 1096 q 624 1129 640 1119 q 587 1139 608 1139 q 533 1116 553 1139 q 509 1063 513 1094 l 444 1063 q 459 1123 446 1095 q 492 1171 471 1151 q 539 1201 512 1190 q 599 1213 567 1213 q 649 1202 629 1213 q 686 1180 669 1192 q 719 1157 703 1167 q 758 1147 736 1147 q 786 1153 773 1147 q 809 1170 799 1159 q 825 1194 819 1180 q 833 1225 831 1208 l 899 1225 z "},"Ö":{"ha":1047,"x_min":93,"x_max":1008,"o":"m 1008 578 q 997 453 1008 515 q 964 333 985 391 q 910 224 942 275 q 839 131 879 172 q 768 70 806 97 q 687 23 730 42 q 594 -7 644 3 q 488 -17 545 -17 q 323 15 396 -17 q 198 101 250 46 q 120 233 147 157 q 93 397 93 309 q 139 650 93 538 q 267 844 184 762 q 420 950 333 911 q 618 989 507 989 q 780 958 707 989 q 903 873 852 928 q 981 743 954 818 q 1008 578 1008 667 m 888 574 q 868 704 888 646 q 812 802 848 762 q 724 865 775 843 q 608 886 672 886 q 465 854 533 886 q 343 764 396 821 q 289 689 313 731 q 248 600 265 647 q 221 500 231 552 q 212 396 212 449 q 231 271 212 328 q 285 173 250 214 q 373 109 321 132 q 493 86 425 86 q 637 116 568 86 q 758 205 706 146 q 815 287 791 242 q 855 381 839 332 q 880 479 871 429 q 888 574 888 528 m 839 1129 q 819 1082 839 1101 q 772 1063 800 1063 q 725 1081 745 1063 q 705 1129 705 1100 q 711 1156 705 1143 q 725 1177 716 1168 q 746 1191 734 1185 q 770 1196 758 1196 q 797 1191 785 1196 q 819 1176 810 1185 q 833 1155 828 1167 q 839 1129 839 1143 m 578 1129 q 572 1103 578 1115 q 558 1082 567 1091 q 536 1068 549 1073 q 509 1063 524 1063 q 484 1068 496 1063 q 463 1082 472 1073 q 448 1103 454 1090 q 443 1129 443 1115 q 448 1156 443 1143 q 463 1177 454 1168 q 484 1191 472 1185 q 509 1196 496 1196 q 536 1191 524 1196 q 558 1176 549 1185 q 572 1155 567 1167 q 578 1129 578 1143 z "},"Ü":{"ha":957,"x_min":114,"x_max":972,"o":"m 846 382 q 794 213 825 287 q 715 87 764 138 q 597 10 667 37 q 429 -17 527 -17 q 295 7 354 -17 q 196 72 236 31 q 135 170 156 113 q 114 292 114 226 q 118 357 114 321 q 127 427 121 394 l 245 972 l 363 972 l 245 433 q 240 399 243 418 q 234 363 237 381 q 231 328 232 345 q 229 300 229 312 q 245 205 229 245 q 291 139 262 165 q 358 99 319 113 q 443 86 397 86 q 546 102 500 86 q 626 153 591 119 q 685 241 661 188 q 726 370 710 295 l 856 972 l 972 972 l 846 382 m 820 1129 q 800 1082 820 1101 q 753 1063 781 1063 q 706 1081 726 1063 q 686 1129 686 1100 q 692 1156 686 1143 q 706 1177 697 1168 q 727 1191 715 1185 q 751 1196 739 1196 q 778 1191 766 1196 q 800 1176 791 1185 q 814 1155 809 1167 q 820 1129 820 1143 m 559 1129 q 553 1103 559 1115 q 539 1082 548 1091 q 517 1068 530 1073 q 490 1063 505 1063 q 465 1068 477 1063 q 444 1082 453 1073 q 429 1103 435 1090 q 424 1129 424 1115 q 429 1156 424 1143 q 444 1177 435 1168 q 465 1191 453 1185 q 490 1196 477 1196 q 517 1191 505 1196 q 539 1176 530 1185 q 553 1155 548 1167 q 559 1129 559 1143 z "},"á":{"ha":753,"x_min":53,"x_max":710,"o":"m 614 222 q 603 164 608 197 q 594 101 598 132 q 588 42 591 69 q 586 0 586 15 l 471 0 q 473 33 471 14 q 476 72 474 52 q 481 112 479 92 q 486 146 484 132 l 484 146 q 441 83 463 113 q 393 31 419 54 q 334 -4 366 9 q 257 -17 301 -17 q 174 -1 212 -17 q 109 48 136 16 q 67 129 82 80 q 53 241 53 177 q 61 331 53 281 q 89 433 69 381 q 140 535 108 486 q 220 625 172 585 q 333 688 268 664 q 484 711 398 711 q 595 703 538 711 q 710 684 653 695 l 614 222 m 582 603 q 526 612 558 608 q 467 616 494 616 q 362 598 408 616 q 284 549 317 579 q 228 479 251 519 q 192 399 205 440 q 173 318 178 358 q 167 245 167 278 q 174 176 167 207 q 195 123 180 145 q 232 90 210 102 q 286 78 255 78 q 350 92 320 78 q 405 130 379 106 q 452 184 431 153 q 490 251 473 216 q 518 322 507 286 q 538 392 530 358 l 582 603 m 474 827 l 391 827 l 587 1048 l 696 1048 l 474 827 z "},"à":{"ha":753,"x_min":53,"x_max":710,"o":"m 614 222 q 603 164 608 197 q 594 101 598 132 q 588 42 591 69 q 586 0 586 15 l 471 0 q 473 33 471 14 q 476 72 474 52 q 481 112 479 92 q 486 146 484 132 l 484 146 q 441 83 463 113 q 393 31 419 54 q 334 -4 366 9 q 257 -17 301 -17 q 174 -1 212 -17 q 109 48 136 16 q 67 129 82 80 q 53 241 53 177 q 61 331 53 281 q 89 433 69 381 q 140 535 108 486 q 220 625 172 585 q 333 688 268 664 q 484 711 398 711 q 595 703 538 711 q 710 684 653 695 l 614 222 m 582 603 q 526 612 558 608 q 467 616 494 616 q 362 598 408 616 q 284 549 317 579 q 228 479 251 519 q 192 399 205 440 q 173 318 178 358 q 167 245 167 278 q 174 176 167 207 q 195 123 180 145 q 232 90 210 102 q 286 78 255 78 q 350 92 320 78 q 405 130 379 106 q 452 184 431 153 q 490 251 473 216 q 518 322 507 286 q 538 392 530 358 l 582 603 m 525 827 l 363 1048 l 467 1048 l 607 827 l 525 827 z "},"â":{"ha":753,"x_min":53,"x_max":710,"o":"m 614 222 q 603 164 608 197 q 594 101 598 132 q 588 42 591 69 q 586 0 586 15 l 471 0 q 473 33 471 14 q 476 72 474 52 q 481 112 479 92 q 486 146 484 132 l 484 146 q 441 83 463 113 q 393 31 419 54 q 334 -4 366 9 q 257 -17 301 -17 q 174 -1 212 -17 q 109 48 136 16 q 67 129 82 80 q 53 241 53 177 q 61 331 53 281 q 89 433 69 381 q 140 535 108 486 q 220 625 172 585 q 333 688 268 664 q 484 711 398 711 q 595 703 538 711 q 710 684 653 695 l 614 222 m 582 603 q 526 612 558 608 q 467 616 494 616 q 362 598 408 616 q 284 549 317 579 q 228 479 251 519 q 192 399 205 440 q 173 318 178 358 q 167 245 167 278 q 174 176 167 207 q 195 123 180 145 q 232 90 210 102 q 286 78 255 78 q 350 92 320 78 q 405 130 379 106 q 452 184 431 153 q 490 251 473 216 q 518 322 507 286 q 538 392 530 358 l 582 603 m 597 827 l 519 983 l 375 827 l 293 827 l 485 1051 l 575 1051 l 673 827 l 597 827 z "},"ä":{"ha":753,"x_min":53,"x_max":710,"o":"m 614 222 q 603 164 608 197 q 594 101 598 132 q 588 42 591 69 q 586 0 586 15 l 471 0 q 473 33 471 14 q 476 72 474 52 q 481 112 479 92 q 486 146 484 132 l 484 146 q 441 83 463 113 q 393 31 419 54 q 334 -4 366 9 q 257 -17 301 -17 q 174 -1 212 -17 q 109 48 136 16 q 67 129 82 80 q 53 241 53 177 q 61 331 53 281 q 89 433 69 381 q 140 535 108 486 q 220 625 172 585 q 333 688 268 664 q 484 711 398 711 q 595 703 538 711 q 710 684 653 695 l 614 222 m 582 603 q 526 612 558 608 q 467 616 494 616 q 362 598 408 616 q 284 549 317 579 q 228 479 251 519 q 192 399 205 440 q 173 318 178 358 q 167 245 167 278 q 174 176 167 207 q 195 123 180 145 q 232 90 210 102 q 286 78 255 78 q 350 92 320 78 q 405 130 379 106 q 452 184 431 153 q 490 251 473 216 q 518 322 507 286 q 538 392 530 358 l 582 603 m 680 893 q 660 846 680 865 q 612 827 640 827 q 566 845 585 827 q 546 893 546 864 q 551 920 546 907 q 566 941 557 932 q 586 955 574 949 q 611 960 598 960 q 638 955 625 960 q 660 940 650 949 q 674 919 669 931 q 680 893 680 907 m 418 893 q 413 867 418 879 q 398 846 408 855 q 377 832 389 837 q 350 827 364 827 q 325 832 337 827 q 303 846 313 837 q 289 867 294 854 q 283 893 283 879 q 289 920 283 907 q 303 941 294 932 q 325 955 313 949 q 350 960 337 960 q 377 955 364 960 q 398 940 389 949 q 413 919 408 931 q 418 893 418 907 z "},"ã":{"ha":753,"x_min":53,"x_max":710,"o":"m 614 222 q 603 164 608 197 q 594 101 598 132 q 588 42 591 69 q 586 0 586 15 l 471 0 q 473 33 471 14 q 476 72 474 52 q 481 112 479 92 q 486 146 484 132 l 484 146 q 441 83 463 113 q 393 31 419 54 q 334 -4 366 9 q 257 -17 301 -17 q 174 -1 212 -17 q 109 48 136 16 q 67 129 82 80 q 53 241 53 177 q 61 331 53 281 q 89 433 69 381 q 140 535 108 486 q 220 625 172 585 q 333 688 268 664 q 484 711 398 711 q 595 703 538 711 q 710 684 653 695 l 614 222 m 582 603 q 526 612 558 608 q 467 616 494 616 q 362 598 408 616 q 284 549 317 579 q 228 479 251 519 q 192 399 205 440 q 173 318 178 358 q 167 245 167 278 q 174 176 167 207 q 195 123 180 145 q 232 90 210 102 q 286 78 255 78 q 350 92 320 78 q 405 130 379 106 q 452 184 431 153 q 490 251 473 216 q 518 322 507 286 q 538 392 530 358 l 582 603 m 706 989 q 692 931 704 958 q 661 884 680 904 q 615 852 642 863 q 559 840 589 840 q 504 850 526 840 q 465 871 482 860 q 432 893 448 883 q 395 903 416 903 q 340 880 360 903 q 317 827 320 858 l 252 827 q 266 887 254 859 q 299 935 279 915 q 347 965 319 954 q 406 977 374 977 q 456 966 436 977 q 493 944 476 956 q 527 921 510 931 q 566 911 543 911 q 593 917 581 911 q 616 933 606 923 q 633 958 627 944 q 641 989 639 972 l 706 989 z "},"å":{"ha":753,"x_min":53,"x_max":710,"o":"m 614 222 q 603 164 608 197 q 594 101 598 132 q 588 42 591 69 q 586 0 586 15 l 471 0 q 473 33 471 14 q 476 72 474 52 q 481 112 479 92 q 486 146 484 132 l 484 146 q 441 83 463 113 q 393 31 419 54 q 334 -4 366 9 q 257 -17 301 -17 q 174 -1 212 -17 q 109 48 136 16 q 67 129 82 80 q 53 241 53 177 q 61 331 53 281 q 89 433 69 381 q 140 535 108 486 q 220 625 172 585 q 333 688 268 664 q 484 711 398 711 q 595 703 538 711 q 710 684 653 695 l 614 222 m 582 603 q 526 612 558 608 q 467 616 494 616 q 362 598 408 616 q 284 549 317 579 q 228 479 251 519 q 192 399 205 440 q 173 318 178 358 q 167 245 167 278 q 174 176 167 207 q 195 123 180 145 q 232 90 210 102 q 286 78 255 78 q 350 92 320 78 q 405 130 379 106 q 452 184 431 153 q 490 251 473 216 q 518 322 507 286 q 538 392 530 358 l 582 603 m 633 932 q 623 879 633 903 q 593 836 612 854 q 548 808 574 818 q 493 798 522 798 q 439 807 464 798 q 395 833 414 816 q 366 873 376 850 q 355 926 355 897 q 367 983 355 958 q 397 1025 378 1008 q 442 1052 416 1042 q 497 1061 468 1061 q 553 1052 528 1061 q 596 1025 578 1042 q 624 984 614 1008 q 633 932 633 960 m 571 930 q 565 961 571 947 q 548 985 559 975 q 524 1000 538 995 q 493 1006 509 1006 q 438 984 460 1006 q 417 930 417 963 q 439 873 417 894 q 493 852 460 852 q 524 859 510 852 q 549 876 538 865 q 565 900 559 886 q 571 930 571 914 z "},"ç":{"ha":606,"x_min":53,"x_max":611,"o":"m 485 33 q 398 -3 442 10 q 304 -17 355 -17 l 293 -71 q 339 -76 317 -71 q 378 -94 361 -82 q 404 -122 394 -105 q 414 -161 414 -139 q 363 -258 414 -222 q 215 -294 313 -294 q 186 -293 201 -294 q 155 -290 170 -292 l 168 -231 q 220 -235 195 -235 q 307 -218 278 -235 q 335 -172 335 -201 q 316 -135 335 -149 q 254 -121 296 -121 q 236 -121 245 -121 q 216 -123 226 -122 l 241 -9 q 158 25 194 1 q 99 86 123 50 q 64 168 76 122 q 53 267 53 214 q 64 379 53 323 q 99 483 76 434 q 155 574 121 532 q 231 647 188 616 q 327 694 274 677 q 441 711 380 711 q 497 707 471 711 q 545 696 524 703 q 584 682 567 690 q 611 667 601 674 l 586 557 q 517 599 557 582 q 428 616 477 616 q 343 600 381 616 q 277 557 306 584 q 227 494 248 530 q 192 421 205 459 q 172 346 178 383 q 165 275 165 308 q 208 128 165 178 q 325 78 251 78 q 418 97 370 78 q 509 144 466 115 l 485 33 z "},"é":{"ha":676,"x_min":53,"x_max":650,"o":"m 650 532 q 625 432 650 477 q 545 354 601 387 q 396 304 488 322 q 168 286 304 287 q 167 271 167 279 q 167 257 167 263 q 177 188 167 220 q 209 131 187 155 q 263 92 230 106 q 343 78 297 78 q 446 96 390 78 q 553 147 502 114 l 532 37 q 443 -1 494 16 q 328 -17 391 -17 q 198 7 251 -17 q 114 70 146 31 q 67 162 81 110 q 53 271 53 214 q 66 388 53 332 q 105 494 80 445 q 164 583 130 543 q 241 652 199 623 q 331 696 283 680 q 431 711 379 711 q 525 697 484 711 q 594 658 566 683 q 635 601 621 633 q 650 532 650 568 m 536 526 q 505 593 536 569 q 421 616 473 616 q 341 598 380 616 q 270 549 302 581 q 214 474 237 517 q 179 379 190 430 q 344 389 276 379 q 454 418 412 399 q 517 464 497 437 q 536 526 536 492 m 422 827 l 339 827 l 535 1048 l 644 1048 l 422 827 z "},"è":{"ha":676,"x_min":53,"x_max":650,"o":"m 650 532 q 625 432 650 477 q 545 354 601 387 q 396 304 488 322 q 168 286 304 287 q 167 271 167 279 q 167 257 167 263 q 177 188 167 220 q 209 131 187 155 q 263 92 230 106 q 343 78 297 78 q 446 96 390 78 q 553 147 502 114 l 532 37 q 443 -1 494 16 q 328 -17 391 -17 q 198 7 251 -17 q 114 70 146 31 q 67 162 81 110 q 53 271 53 214 q 66 388 53 332 q 105 494 80 445 q 164 583 130 543 q 241 652 199 623 q 331 696 283 680 q 431 711 379 711 q 525 697 484 711 q 594 658 566 683 q 635 601 621 633 q 650 532 650 568 m 536 526 q 505 593 536 569 q 421 616 473 616 q 341 598 380 616 q 270 549 302 581 q 214 474 237 517 q 179 379 190 430 q 344 389 276 379 q 454 418 412 399 q 517 464 497 437 q 536 526 536 492 m 475 827 l 313 1048 l 416 1048 l 557 827 l 475 827 z "},"ê":{"ha":676,"x_min":53,"x_max":650,"o":"m 650 532 q 625 432 650 477 q 545 354 601 387 q 396 304 488 322 q 168 286 304 287 q 167 271 167 279 q 167 257 167 263 q 177 188 167 220 q 209 131 187 155 q 263 92 230 106 q 343 78 297 78 q 446 96 390 78 q 553 147 502 114 l 532 37 q 443 -1 494 16 q 328 -17 391 -17 q 198 7 251 -17 q 114 70 146 31 q 67 162 81 110 q 53 271 53 214 q 66 388 53 332 q 105 494 80 445 q 164 583 130 543 q 241 652 199 623 q 331 696 283 680 q 431 711 379 711 q 525 697 484 711 q 594 658 566 683 q 635 601 621 633 q 650 532 650 568 m 536 526 q 505 593 536 569 q 421 616 473 616 q 341 598 380 616 q 270 549 302 581 q 214 474 237 517 q 179 379 190 430 q 344 389 276 379 q 454 418 412 399 q 517 464 497 437 q 536 526 536 492 m 553 827 l 475 983 l 331 827 l 249 827 l 441 1051 l 531 1051 l 629 827 l 553 827 z "},"ë":{"ha":676,"x_min":53,"x_max":650,"o":"m 650 532 q 625 432 650 477 q 545 354 601 387 q 396 304 488 322 q 168 286 304 287 q 167 271 167 279 q 167 257 167 263 q 177 188 167 220 q 209 131 187 155 q 263 92 230 106 q 343 78 297 78 q 446 96 390 78 q 553 147 502 114 l 532 37 q 443 -1 494 16 q 328 -17 391 -17 q 198 7 251 -17 q 114 70 146 31 q 67 162 81 110 q 53 271 53 214 q 66 388 53 332 q 105 494 80 445 q 164 583 130 543 q 241 652 199 623 q 331 696 283 680 q 431 711 379 711 q 525 697 484 711 q 594 658 566 683 q 635 601 621 633 q 650 532 650 568 m 536 526 q 505 593 536 569 q 421 616 473 616 q 341 598 380 616 q 270 549 302 581 q 214 474 237 517 q 179 379 190 430 q 344 389 276 379 q 454 418 412 399 q 517 464 497 437 q 536 526 536 492 m 637 893 q 618 846 637 865 q 570 827 598 827 q 524 845 543 827 q 504 893 504 864 q 509 920 504 907 q 524 941 515 932 q 544 955 532 949 q 569 960 556 960 q 596 955 583 960 q 617 940 608 949 q 632 919 627 931 q 637 893 637 907 m 376 893 q 371 867 376 879 q 356 846 366 855 q 335 832 347 837 q 308 827 322 827 q 283 832 295 827 q 261 846 271 837 q 247 867 252 854 q 241 893 241 879 q 247 920 241 907 q 261 941 252 932 q 283 955 271 949 q 308 960 295 960 q 335 955 322 960 q 356 940 347 949 q 371 919 366 931 q 376 893 376 907 z "},"í":{"ha":359,"x_min":65,"x_max":449,"o":"m 282 3 q 244 -6 265 -3 q 201 -9 222 -9 q 99 25 133 -9 q 65 117 65 59 q 68 157 65 134 q 79 214 72 180 l 180 694 l 293 694 l 191 211 q 183 167 185 182 q 180 140 180 151 q 196 98 180 113 q 244 83 211 83 q 275 85 262 83 q 300 92 288 87 l 282 3 m 227 827 l 144 827 l 340 1048 l 449 1048 l 227 827 z "},"ì":{"ha":359,"x_min":65,"x_max":378,"o":"m 282 3 q 244 -6 265 -3 q 201 -9 222 -9 q 99 25 133 -9 q 65 117 65 59 q 68 157 65 134 q 79 214 72 180 l 180 694 l 293 694 l 191 211 q 183 167 185 182 q 180 140 180 151 q 196 98 180 113 q 244 83 211 83 q 275 85 262 83 q 300 92 288 87 l 282 3 m 296 827 l 134 1048 l 238 1048 l 378 827 l 296 827 z "},"î":{"ha":359,"x_min":65,"x_max":448,"o":"m 282 3 q 244 -6 265 -3 q 201 -9 222 -9 q 99 25 133 -9 q 65 117 65 59 q 68 157 65 134 q 79 214 72 180 l 180 694 l 293 694 l 191 211 q 183 167 185 182 q 180 140 180 151 q 196 98 180 113 q 244 83 211 83 q 275 85 262 83 q 300 92 288 87 l 282 3 m 371 827 l 294 983 l 149 827 l 67 827 l 259 1051 l 349 1051 l 448 827 l 371 827 z "},"ï":{"ha":359,"x_min":65,"x_max":466,"o":"m 282 3 q 244 -6 265 -3 q 201 -9 222 -9 q 99 25 133 -9 q 65 117 65 59 q 68 157 65 134 q 79 214 72 180 l 180 694 l 293 694 l 191 211 q 183 167 185 182 q 180 140 180 151 q 196 98 180 113 q 244 83 211 83 q 275 85 262 83 q 300 92 288 87 l 282 3 m 466 893 q 446 846 466 865 q 399 827 427 827 q 352 845 372 827 q 332 893 332 864 q 338 920 332 907 q 352 941 343 932 q 373 955 361 949 q 397 960 385 960 q 424 955 412 960 q 446 940 437 949 q 460 919 455 931 q 466 893 466 907 m 205 893 q 199 867 205 879 q 185 846 194 855 q 163 832 176 837 q 136 827 151 827 q 111 832 123 827 q 90 846 99 837 q 75 867 81 854 q 70 893 70 879 q 75 920 70 907 q 90 941 81 932 q 111 955 99 949 q 136 960 123 960 q 163 955 151 960 q 185 940 176 949 q 199 919 194 931 q 205 893 205 907 z "},"ñ":{"ha":781,"x_min":39,"x_max":709,"o":"m 709 521 q 707 493 709 511 q 701 455 705 475 q 693 415 697 435 q 686 380 690 395 l 606 0 l 493 0 l 578 407 q 583 432 581 418 q 588 460 586 446 q 591 487 590 475 q 593 505 593 498 q 568 587 593 557 q 494 616 543 616 q 406 590 450 616 q 324 523 361 564 q 260 433 287 482 q 224 339 233 385 l 151 0 l 39 0 l 146 496 q 157 551 151 522 q 167 607 162 580 q 175 656 172 633 q 180 694 178 680 l 289 694 q 281 639 286 668 q 273 586 276 610 q 264 530 269 557 l 267 530 q 319 601 290 568 q 381 658 348 633 q 453 697 415 683 q 532 711 490 711 q 611 697 578 711 q 666 659 644 684 q 699 598 688 633 q 709 521 709 563 m 706 989 q 692 931 704 958 q 661 884 680 904 q 615 852 642 863 q 559 840 589 840 q 504 850 526 840 q 465 871 482 860 q 432 893 448 883 q 395 903 416 903 q 340 880 360 903 q 317 827 320 858 l 252 827 q 266 887 254 859 q 299 935 279 915 q 347 965 319 954 q 406 977 374 977 q 456 966 436 977 q 493 944 476 956 q 527 921 510 931 q 566 911 543 911 q 593 917 581 911 q 616 933 606 923 q 633 958 627 944 q 641 989 639 972 l 706 989 z "},"ó":{"ha":743,"x_min":53,"x_max":690,"o":"m 690 437 q 664 262 690 345 q 589 118 638 180 q 470 19 540 56 q 311 -17 399 -17 q 204 2 252 -17 q 122 57 156 21 q 71 143 89 92 q 53 257 53 193 q 80 436 53 353 q 158 580 108 519 q 277 676 208 642 q 431 711 347 711 q 537 692 490 711 q 619 638 585 673 q 672 552 653 602 q 690 437 690 501 m 576 432 q 566 510 576 476 q 535 568 555 545 q 488 604 515 591 q 425 616 460 616 q 317 586 366 616 q 236 506 269 555 q 185 392 203 456 q 167 262 167 329 q 177 186 167 220 q 207 128 188 152 q 255 91 227 104 q 318 78 283 78 q 427 108 378 78 q 508 188 475 138 q 559 302 541 238 q 576 432 576 366 m 433 827 l 350 827 l 546 1048 l 655 1048 l 433 827 z "},"ò":{"ha":743,"x_min":53,"x_max":690,"o":"m 690 437 q 664 262 690 345 q 589 118 638 180 q 470 19 540 56 q 311 -17 399 -17 q 204 2 252 -17 q 122 57 156 21 q 71 143 89 92 q 53 257 53 193 q 80 436 53 353 q 158 580 108 519 q 277 676 208 642 q 431 711 347 711 q 537 692 490 711 q 619 638 585 673 q 672 552 653 602 q 690 437 690 501 m 576 432 q 566 510 576 476 q 535 568 555 545 q 488 604 515 591 q 425 616 460 616 q 317 586 366 616 q 236 506 269 555 q 185 392 203 456 q 167 262 167 329 q 177 186 167 220 q 207 128 188 152 q 255 91 227 104 q 318 78 283 78 q 427 108 378 78 q 508 188 475 138 q 559 302 541 238 q 576 432 576 366 m 505 827 l 343 1048 l 447 1048 l 587 827 l 505 827 z "},"ô":{"ha":743,"x_min":53,"x_max":690,"o":"m 690 437 q 664 262 690 345 q 589 118 638 180 q 470 19 540 56 q 311 -17 399 -17 q 204 2 252 -17 q 122 57 156 21 q 71 143 89 92 q 53 257 53 193 q 80 436 53 353 q 158 580 108 519 q 277 676 208 642 q 431 711 347 711 q 537 692 490 711 q 619 638 585 673 q 672 552 653 602 q 690 437 690 501 m 576 432 q 566 510 576 476 q 535 568 555 545 q 488 604 515 591 q 425 616 460 616 q 317 586 366 616 q 236 506 269 555 q 185 392 203 456 q 167 262 167 329 q 177 186 167 220 q 207 128 188 152 q 255 91 227 104 q 318 78 283 78 q 427 108 378 78 q 508 188 475 138 q 559 302 541 238 q 576 432 576 366 m 561 827 l 484 983 l 339 827 l 257 827 l 449 1051 l 539 1051 l 637 827 l 561 827 z "},"ö":{"ha":743,"x_min":53,"x_max":690,"o":"m 690 437 q 664 262 690 345 q 589 118 638 180 q 470 19 540 56 q 311 -17 399 -17 q 204 2 252 -17 q 122 57 156 21 q 71 143 89 92 q 53 257 53 193 q 80 436 53 353 q 158 580 108 519 q 277 676 208 642 q 431 711 347 711 q 537 692 490 711 q 619 638 585 673 q 672 552 653 602 q 690 437 690 501 m 576 432 q 566 510 576 476 q 535 568 555 545 q 488 604 515 591 q 425 616 460 616 q 317 586 366 616 q 236 506 269 555 q 185 392 203 456 q 167 262 167 329 q 177 186 167 220 q 207 128 188 152 q 255 91 227 104 q 318 78 283 78 q 427 108 378 78 q 508 188 475 138 q 559 302 541 238 q 576 432 576 366 m 659 893 q 639 846 659 865 q 591 827 619 827 q 545 845 564 827 q 525 893 525 864 q 530 920 525 907 q 545 941 536 932 q 565 955 553 949 q 590 960 577 960 q 617 955 604 960 q 638 940 629 949 q 653 919 648 931 q 659 893 659 907 m 397 893 q 392 867 397 879 q 377 846 387 855 q 356 832 368 837 q 329 827 343 827 q 304 832 316 827 q 282 846 292 837 q 268 867 273 854 q 262 893 262 879 q 268 920 262 907 q 282 941 273 932 q 304 955 292 949 q 329 960 316 960 q 356 955 343 960 q 377 940 368 949 q 392 919 387 931 q 397 893 397 907 z "},"õ":{"ha":743,"x_min":53,"x_max":692,"o":"m 690 437 q 664 262 690 345 q 589 118 638 180 q 470 19 540 56 q 311 -17 399 -17 q 204 2 252 -17 q 122 57 156 21 q 71 143 89 92 q 53 257 53 193 q 80 436 53 353 q 158 580 108 519 q 277 676 208 642 q 431 711 347 711 q 537 692 490 711 q 619 638 585 673 q 672 552 653 602 q 690 437 690 501 m 576 432 q 566 510 576 476 q 535 568 555 545 q 488 604 515 591 q 425 616 460 616 q 317 586 366 616 q 236 506 269 555 q 185 392 203 456 q 167 262 167 329 q 177 186 167 220 q 207 128 188 152 q 255 91 227 104 q 318 78 283 78 q 427 108 378 78 q 508 188 475 138 q 559 302 541 238 q 576 432 576 366 m 692 989 q 678 931 690 958 q 647 884 666 904 q 601 852 627 863 q 545 840 575 840 q 490 850 512 840 q 451 871 468 860 q 417 893 433 883 q 380 903 401 903 q 326 880 346 903 q 302 827 306 858 l 237 827 q 252 887 239 859 q 285 935 264 915 q 333 965 305 954 q 392 977 360 977 q 442 966 422 977 q 479 944 462 956 q 512 921 496 931 q 551 911 529 911 q 579 917 566 911 q 602 933 592 923 q 618 958 612 944 q 627 989 625 972 l 692 989 z "},"ú":{"ha":775,"x_min":66,"x_max":737,"o":"m 631 197 q 620 142 625 171 q 610 87 614 114 q 602 38 605 61 q 596 0 598 15 l 488 0 q 495 55 491 26 q 504 109 500 84 q 513 164 509 137 l 510 164 q 457 94 486 127 q 395 36 429 61 q 324 -3 361 12 q 245 -17 286 -17 q 167 -3 201 -17 q 111 36 134 11 q 78 96 89 61 q 66 175 66 132 q 69 201 66 184 q 75 239 72 219 q 83 280 79 260 q 90 314 87 300 l 171 694 l 283 694 l 197 288 q 192 262 195 277 q 187 234 189 248 q 183 208 184 220 q 182 189 182 196 q 207 108 182 138 q 281 78 231 78 q 340 90 311 78 q 398 123 370 102 q 452 171 427 144 q 497 230 477 199 q 532 293 517 260 q 553 355 546 326 l 625 694 l 737 694 l 631 197 m 460 827 l 376 827 l 572 1048 l 682 1048 l 460 827 z "},"ù":{"ha":775,"x_min":66,"x_max":737,"o":"m 631 197 q 620 142 625 171 q 610 87 614 114 q 602 38 605 61 q 596 0 598 15 l 488 0 q 495 55 491 26 q 504 109 500 84 q 513 164 509 137 l 510 164 q 457 94 486 127 q 395 36 429 61 q 324 -3 361 12 q 245 -17 286 -17 q 167 -3 201 -17 q 111 36 134 11 q 78 96 89 61 q 66 175 66 132 q 69 201 66 184 q 75 239 72 219 q 83 280 79 260 q 90 314 87 300 l 171 694 l 283 694 l 197 288 q 192 262 195 277 q 187 234 189 248 q 183 208 184 220 q 182 189 182 196 q 207 108 182 138 q 281 78 231 78 q 340 90 311 78 q 398 123 370 102 q 452 171 427 144 q 497 230 477 199 q 532 293 517 260 q 553 355 546 326 l 625 694 l 737 694 l 631 197 m 504 827 l 342 1048 l 446 1048 l 586 827 l 504 827 z "},"û":{"ha":775,"x_min":66,"x_max":737,"o":"m 631 197 q 620 142 625 171 q 610 87 614 114 q 602 38 605 61 q 596 0 598 15 l 488 0 q 495 55 491 26 q 504 109 500 84 q 513 164 509 137 l 510 164 q 457 94 486 127 q 395 36 429 61 q 324 -3 361 12 q 245 -17 286 -17 q 167 -3 201 -17 q 111 36 134 11 q 78 96 89 61 q 66 175 66 132 q 69 201 66 184 q 75 239 72 219 q 83 280 79 260 q 90 314 87 300 l 171 694 l 283 694 l 197 288 q 192 262 195 277 q 187 234 189 248 q 183 208 184 220 q 182 189 182 196 q 207 108 182 138 q 281 78 231 78 q 340 90 311 78 q 398 123 370 102 q 452 171 427 144 q 497 230 477 199 q 532 293 517 260 q 553 355 546 326 l 625 694 l 737 694 l 631 197 m 578 827 l 500 983 l 356 827 l 274 827 l 466 1051 l 556 1051 l 654 827 l 578 827 z "},"ü":{"ha":775,"x_min":66,"x_max":737,"o":"m 631 197 q 620 142 625 171 q 610 87 614 114 q 602 38 605 61 q 596 0 598 15 l 488 0 q 495 55 491 26 q 504 109 500 84 q 513 164 509 137 l 510 164 q 457 94 486 127 q 395 36 429 61 q 324 -3 361 12 q 245 -17 286 -17 q 167 -3 201 -17 q 111 36 134 11 q 78 96 89 61 q 66 175 66 132 q 69 201 66 184 q 75 239 72 219 q 83 280 79 260 q 90 314 87 300 l 171 694 l 283 694 l 197 288 q 192 262 195 277 q 187 234 189 248 q 183 208 184 220 q 182 189 182 196 q 207 108 182 138 q 281 78 231 78 q 340 90 311 78 q 398 123 370 102 q 452 171 427 144 q 497 230 477 199 q 532 293 517 260 q 553 355 546 326 l 625 694 l 737 694 l 631 197 m 678 893 q 659 846 678 865 q 611 827 639 827 q 564 845 584 827 q 545 893 545 864 q 550 920 545 907 q 564 941 555 932 q 585 955 573 949 q 610 960 597 960 q 636 955 624 960 q 658 940 649 949 q 673 919 667 931 q 678 893 678 907 m 417 893 q 412 867 417 879 q 397 846 406 855 q 375 832 388 837 q 349 827 363 827 q 323 832 336 827 q 302 846 311 837 q 288 867 293 854 q 282 893 282 879 q 288 920 282 907 q 302 941 293 932 q 323 955 311 949 q 349 960 336 960 q 375 955 363 960 q 397 940 388 949 q 412 919 406 931 q 417 893 417 907 z "},"†":{"ha":522,"x_min":85,"x_max":568,"o":"m 547 606 l 373 626 l 246 155 l 195 155 l 267 626 l 85 606 l 107 707 l 309 694 l 340 972 l 446 972 l 360 694 l 568 707 l 547 606 z "},"°":{"ha":524,"x_min":167,"x_max":543,"o":"m 543 798 q 528 724 543 758 q 488 664 513 690 q 428 623 462 638 q 354 608 393 608 q 281 623 315 608 q 221 664 247 638 q 181 724 196 690 q 167 798 167 758 q 181 870 167 836 q 221 929 196 904 q 281 969 247 954 q 354 983 315 983 q 428 969 393 983 q 488 929 462 954 q 528 870 513 904 q 543 798 543 836 m 463 798 q 454 839 463 820 q 431 873 446 859 q 396 896 416 888 q 354 904 376 904 q 313 896 332 904 q 279 873 294 888 q 256 839 264 859 q 248 798 248 820 q 256 755 248 775 q 279 720 264 735 q 313 696 294 705 q 354 688 332 688 q 395 696 376 688 q 430 720 415 705 q 454 755 445 735 q 463 798 463 775 z "},"¢":{"ha":749,"x_min":129,"x_max":704,"o":"m 677 673 q 627 712 658 695 q 558 734 597 728 l 446 205 q 524 226 486 210 q 600 271 562 242 l 578 157 q 510 124 549 138 q 425 107 472 111 l 396 -33 l 310 -33 l 339 110 q 249 143 288 119 q 183 205 210 168 q 143 288 157 241 q 129 389 129 335 q 139 497 129 447 q 166 589 149 547 q 208 668 184 632 q 261 733 233 704 q 312 774 284 756 q 369 804 339 791 q 431 823 399 816 q 493 832 463 830 l 519 958 l 606 958 l 579 829 q 654 813 621 824 q 704 790 688 803 l 677 673 m 472 732 q 397 704 431 724 q 335 653 362 684 q 297 600 314 629 q 269 537 280 570 q 252 468 258 504 q 245 397 245 433 q 277 275 245 321 q 361 214 309 229 l 472 732 z "},"£":{"ha":749,"x_min":7,"x_max":768,"o":"m 746 856 q 684 884 718 874 q 614 895 650 895 q 488 844 539 895 q 412 681 436 793 l 379 526 l 581 526 l 559 431 l 359 431 l 332 306 q 275 177 316 229 q 171 94 235 124 l 637 94 l 618 0 l 7 0 l 28 92 q 156 170 109 115 q 221 304 204 224 l 248 431 l 114 431 l 134 526 l 268 526 l 306 703 q 351 828 321 774 q 421 918 380 882 q 512 971 461 954 q 619 989 562 989 q 705 981 667 989 q 768 961 744 972 l 746 856 z "},"§":{"ha":623,"x_min":29,"x_max":627,"o":"m 606 885 q 545 912 581 901 q 473 924 509 924 q 416 917 442 924 q 370 896 389 910 q 341 862 351 882 q 330 815 330 842 q 339 770 330 790 q 364 734 349 751 q 399 704 379 718 q 441 676 420 690 q 506 627 481 651 q 546 580 531 604 q 566 532 560 556 q 571 482 571 508 q 559 417 571 448 q 527 359 547 386 q 478 313 506 333 q 418 281 450 293 q 447 228 437 253 q 457 170 457 202 q 443 90 457 128 q 397 21 429 51 q 316 -27 366 -9 q 196 -45 267 -45 q 147 -42 172 -45 q 100 -34 122 -39 q 59 -23 77 -29 q 29 -11 41 -17 l 50 92 q 85 72 66 81 q 125 57 104 63 q 167 46 146 50 q 207 43 188 43 q 314 71 277 43 q 351 149 351 98 q 343 190 351 171 q 321 225 336 208 q 283 258 306 241 q 232 293 261 275 q 187 327 208 309 q 151 368 166 346 q 126 417 135 391 q 117 475 117 444 q 130 544 117 513 q 164 600 142 575 q 213 643 185 625 q 272 673 241 661 q 239 728 254 697 q 225 791 225 758 q 247 893 225 851 q 305 961 269 935 q 386 999 340 987 q 476 1011 431 1011 q 514 1009 494 1011 q 554 1004 534 1007 q 593 995 574 1000 q 627 983 612 989 l 606 885 m 464 467 q 460 495 464 481 q 448 526 457 510 q 422 557 438 541 q 379 589 406 572 q 352 607 364 598 q 325 627 340 615 q 251 575 279 608 q 224 497 224 542 q 227 463 224 478 q 240 433 230 448 q 267 402 250 418 q 314 367 285 387 q 341 349 328 357 q 367 328 355 340 q 440 389 417 351 q 464 467 464 427 z "},"•":{"ha":562,"x_min":125,"x_max":473,"o":"m 473 431 q 459 363 473 395 q 422 308 446 332 q 366 271 398 284 q 298 257 334 257 q 231 271 262 257 q 176 308 199 284 q 138 363 152 332 q 125 431 125 395 q 139 498 125 467 q 176 554 153 530 q 232 592 200 578 q 300 606 264 606 q 368 592 336 606 q 423 554 399 578 q 460 498 446 530 q 473 431 473 467 z "},"¶":{"ha":636,"x_min":106,"x_max":614,"o":"m 528 903 l 528 0 l 456 0 l 456 903 l 349 903 l 349 0 l 275 0 l 275 612 q 209 626 240 612 q 155 663 178 639 q 119 720 132 686 q 106 793 106 753 q 120 869 106 836 q 159 925 135 903 q 215 960 184 948 q 279 972 246 972 l 614 972 l 614 903 l 528 903 z "},"ß":{"ha":750,"x_min":39,"x_max":730,"o":"m 730 828 q 709 721 730 768 q 655 639 688 674 q 582 581 623 604 q 501 549 541 559 l 501 546 q 586 513 550 536 q 646 457 622 490 q 681 383 669 424 q 693 298 693 342 q 674 182 693 239 q 615 81 654 125 q 514 10 575 37 q 370 -17 453 -17 q 336 -15 354 -17 q 300 -11 317 -14 q 268 -4 283 -7 q 244 4 253 0 l 268 110 q 293 97 279 102 q 322 87 307 91 q 351 80 337 83 q 376 78 366 78 q 472 98 433 78 q 534 151 510 119 q 568 221 557 182 q 578 297 578 260 q 566 376 578 340 q 529 438 554 412 q 466 481 505 465 q 375 501 428 498 l 393 591 q 487 619 446 600 q 557 668 528 639 q 601 736 586 698 q 616 821 616 775 q 609 871 616 847 q 586 912 601 895 q 549 940 570 930 q 498 950 527 950 q 434 939 463 950 q 380 902 404 927 q 339 835 357 876 q 309 736 321 794 l 151 0 l 39 0 l 203 771 q 241 885 216 834 q 302 971 265 935 q 391 1025 340 1006 q 507 1044 441 1044 q 602 1027 561 1044 q 672 981 644 1010 q 715 913 701 952 q 730 828 730 873 z "},"­":{"ha":555,"x_min":89,"x_max":479,"o":"m 460 343 l 89 343 l 109 431 l 479 431 l 460 343 z "},"®":{"ha":1236,"x_min":212,"x_max":1025,"o":"m 618 173 q 331 292 450 173 q 212 579 212 410 q 331 867 212 748 q 618 986 450 986 q 906 867 787 986 q 1025 579 1025 748 q 906 292 1025 410 q 618 173 787 173 m 619 922 q 376 822 477 922 q 275 579 275 722 q 376 337 275 437 q 619 237 477 237 q 861 337 761 237 q 961 579 961 437 q 861 822 961 722 q 619 922 761 922 m 816 325 l 722 325 l 666 449 q 574 543 623 543 l 538 543 l 538 325 l 459 325 l 459 842 l 605 842 q 744 804 695 842 q 793 701 793 766 q 759 611 793 648 q 663 560 724 573 l 663 558 q 748 463 705 549 l 816 325 m 538 775 l 538 609 l 602 609 q 709 692 709 609 q 681 758 709 741 q 589 775 652 775 l 538 775 z "},"©":{"ha":1263,"x_min":149,"x_max":1166,"o":"m 1166 488 q 1149 351 1166 416 q 1098 230 1131 286 q 1020 128 1065 174 q 917 51 974 83 q 795 1 861 18 q 657 -17 729 -17 q 455 21 548 -17 q 293 125 361 58 q 187 283 225 192 q 149 484 149 375 q 166 619 149 554 q 216 740 184 684 q 295 842 249 796 q 398 921 341 888 q 521 971 454 954 q 660 989 587 989 q 857 952 765 989 q 1018 849 949 916 q 1127 691 1087 783 q 1166 488 1166 599 m 1105 485 q 1070 664 1105 582 q 975 806 1035 746 q 833 900 914 866 q 659 933 751 933 q 478 899 561 933 q 335 803 395 864 q 242 661 275 743 q 208 485 208 579 q 224 361 208 420 q 270 252 240 302 q 340 162 299 202 q 431 93 381 121 q 539 50 481 65 q 659 35 596 35 q 831 68 750 35 q 974 163 913 102 q 1070 306 1034 223 q 1105 485 1105 388 m 861 180 q 831 165 849 174 q 790 150 813 157 q 739 138 766 143 q 679 134 711 134 q 548 159 609 134 q 442 229 487 184 q 372 335 397 273 q 346 469 346 397 q 373 626 346 557 q 449 741 401 694 q 561 812 496 787 q 699 836 625 836 q 747 833 723 836 q 791 824 770 829 q 830 813 812 819 q 859 800 847 806 l 859 699 q 825 719 844 709 q 783 734 806 728 q 736 744 761 741 q 686 747 711 747 q 596 731 640 747 q 518 682 552 715 q 464 599 484 649 q 443 481 443 549 q 463 370 443 418 q 517 288 483 321 q 596 237 551 254 q 692 220 642 220 q 737 224 713 220 q 784 235 761 228 q 826 252 806 242 q 861 272 846 261 l 861 180 z "},"™":{"ha":1074,"x_min":106,"x_max":1000,"o":"m 928 524 l 928 847 l 925 847 l 775 524 l 736 524 l 591 847 l 589 847 l 589 524 l 519 524 l 519 972 l 606 972 l 758 636 l 761 636 l 917 972 l 1000 972 l 1000 524 l 928 524 m 321 905 l 321 524 l 244 524 l 244 904 l 106 904 l 106 972 l 461 972 l 461 905 l 321 905 z "},"´":{"ha":485,"x_min":225,"x_max":530,"o":"m 309 827 l 225 827 l 421 1048 l 530 1048 l 309 827 z "},"¨":{"ha":485,"x_min":146,"x_max":542,"o":"m 542 893 q 522 846 542 865 q 475 827 503 827 q 428 845 448 827 q 408 893 408 864 q 414 920 408 907 q 428 941 419 932 q 449 955 437 949 q 473 960 460 960 q 500 955 488 960 q 522 940 513 949 q 536 919 531 931 q 542 893 542 907 m 281 893 q 275 867 281 879 q 261 846 270 855 q 239 832 252 837 q 212 827 227 827 q 187 832 199 827 q 166 846 175 837 q 151 867 157 854 q 146 893 146 879 q 151 920 146 907 q 166 941 157 932 q 187 955 175 949 q 212 960 199 960 q 239 955 227 960 q 261 940 252 949 q 275 919 270 931 q 281 893 281 907 z "},"≠":{"ha":951,"x_min":178,"x_max":815,"o":"m 441 215 l 332 0 l 236 0 l 347 215 l 178 215 l 178 306 l 395 306 l 496 504 l 178 504 l 178 595 l 543 595 l 650 806 l 746 806 l 637 595 l 815 595 l 815 504 l 591 504 l 489 306 l 815 306 l 815 215 l 441 215 z "},"Æ":{"ha":1187,"x_min":-82,"x_max":1243,"o":"m 1221 868 l 844 868 l 774 538 l 1122 538 l 1100 435 l 751 435 l 681 103 l 1079 103 l 1059 0 l 543 0 l 602 272 l 257 272 l 58 0 l -82 0 l 642 972 l 1243 972 l 1221 868 m 689 868 l 335 378 l 624 378 l 726 868 l 689 868 z "},"Ø":{"ha":1047,"x_min":33,"x_max":1051,"o":"m 939 827 q 991 710 973 773 q 1008 575 1008 646 q 997 448 1008 511 q 961 324 985 384 q 902 210 937 264 q 819 111 866 155 q 673 17 755 50 q 484 -17 591 -17 q 397 -8 437 -17 q 321 15 356 0 q 256 50 286 30 q 204 94 227 71 l 89 -20 l 33 33 l 155 155 q 110 267 126 207 q 93 397 93 328 q 140 650 93 538 q 267 842 186 761 q 420 948 334 909 q 619 986 506 986 q 775 958 707 986 q 889 885 842 930 l 997 994 l 1051 940 l 939 827 m 807 804 q 723 862 772 840 q 612 884 673 884 q 533 875 571 884 q 460 850 494 866 q 397 813 427 835 q 343 766 367 792 q 288 689 312 732 q 247 599 263 647 q 221 499 230 551 q 212 392 212 447 q 220 312 212 350 q 243 240 229 274 l 807 804 m 888 576 q 878 666 888 625 q 851 742 868 708 l 286 174 q 372 109 321 131 q 493 86 424 86 q 628 111 565 86 q 739 184 690 136 q 802 264 774 219 q 849 359 830 309 q 878 466 868 410 q 888 576 888 521 z "},"∞":{"ha":1135,"x_min":77,"x_max":1101,"o":"m 1101 407 q 1082 306 1101 354 q 1029 220 1063 257 q 949 162 996 184 q 848 140 903 140 q 708 186 773 140 q 587 326 643 231 q 463 186 530 232 q 329 140 396 140 q 227 159 273 140 q 147 212 180 178 q 95 294 114 246 q 77 401 77 342 q 96 503 77 454 q 148 588 115 551 q 228 646 182 625 q 329 668 274 668 q 473 623 409 668 q 590 484 538 578 q 709 621 644 574 q 847 668 774 668 q 950 649 903 668 q 1030 596 997 631 q 1083 514 1064 562 q 1101 407 1101 466 m 1011 407 q 999 476 1011 444 q 966 532 987 508 q 915 570 945 556 q 848 583 884 583 q 735 540 788 583 q 632 404 682 496 q 731 270 678 311 q 847 228 784 228 q 918 242 887 228 q 969 280 948 256 q 1000 336 989 304 q 1011 407 1011 369 m 546 406 q 446 541 500 498 q 329 583 392 583 q 260 569 290 583 q 208 530 229 555 q 176 473 187 506 q 165 401 165 439 q 178 333 165 364 q 212 278 190 301 q 263 241 233 254 q 329 228 293 228 q 443 271 390 228 q 546 406 496 313 z "},"±":{"ha":951,"x_min":174,"x_max":811,"o":"m 538 441 l 538 168 l 449 168 l 449 441 l 174 441 l 174 532 l 449 532 l 449 806 l 538 806 l 538 532 l 811 532 l 811 441 l 538 441 m 174 0 l 174 90 l 811 90 l 811 0 l 174 0 z "},"≤":{"ha":951,"x_min":178,"x_max":815,"o":"m 205 447 l 205 486 l 789 812 l 789 711 l 353 471 l 353 468 l 789 256 l 789 153 l 205 447 m 178 12 l 178 103 l 815 103 l 815 12 l 178 12 z "},"≥":{"ha":951,"x_min":178,"x_max":815,"o":"m 205 153 l 205 256 l 642 465 l 642 469 l 205 711 l 205 812 l 789 486 l 789 447 l 205 153 m 178 12 l 178 103 l 815 103 l 815 12 l 178 12 z "},"¥":{"ha":749,"x_min":57,"x_max":840,"o":"m 503 528 l 696 528 l 676 433 l 449 433 l 419 293 l 646 293 l 627 199 l 400 199 l 357 0 l 245 0 l 289 199 l 57 199 l 77 293 l 309 293 l 338 433 l 106 433 l 126 528 l 323 528 l 179 972 l 297 972 l 396 616 q 408 573 404 591 q 414 542 412 556 l 418 542 q 440 580 427 561 q 468 621 452 599 l 711 972 l 840 972 l 503 528 z "},"µ":{"ha":797,"x_min":-33,"x_max":737,"o":"m 77 -268 l -33 -268 l 171 694 l 283 694 l 197 288 q 192 262 195 277 q 187 234 189 248 q 183 208 184 220 q 182 189 182 196 q 207 108 182 138 q 281 78 231 78 q 340 90 311 78 q 398 123 370 102 q 451 171 427 144 q 496 230 476 199 q 531 293 517 260 q 553 355 546 326 l 625 694 l 737 694 l 633 211 q 625 167 629 190 q 622 130 622 144 q 627 105 622 115 q 641 89 633 95 q 659 80 649 83 q 680 78 669 78 q 704 80 692 78 q 728 86 717 82 l 711 -3 q 672 -12 694 -8 q 629 -15 650 -15 q 536 16 564 -15 q 507 98 507 47 q 508 113 507 104 q 509 132 508 122 q 511 150 510 141 q 513 164 512 159 l 510 164 q 462 93 489 126 q 404 36 435 60 q 336 -3 372 12 q 258 -17 299 -17 q 187 1 218 -17 q 145 50 157 20 l 77 -268 z "},"∂":{"ha":743,"x_min":68,"x_max":713,"o":"m 713 633 q 710 556 713 596 q 701 476 707 515 q 689 400 696 436 q 673 334 682 363 q 621 191 653 256 q 543 81 588 127 q 442 9 498 35 q 318 -17 386 -17 q 215 2 261 -17 q 136 55 169 20 q 86 140 104 90 q 68 252 68 190 q 79 362 68 307 q 110 467 90 417 q 162 561 131 517 q 232 637 193 605 q 319 687 271 669 q 422 705 367 705 q 528 676 485 705 q 600 591 572 647 l 603 591 q 604 614 604 604 q 604 639 604 625 q 595 753 604 703 q 564 840 585 804 q 508 895 543 876 q 422 914 473 914 q 378 909 401 914 q 332 896 355 904 q 291 879 310 888 q 257 860 271 869 l 282 965 q 321 983 300 975 q 364 997 342 991 q 409 1006 387 1003 q 452 1010 431 1010 q 546 996 505 1010 q 615 957 586 982 q 663 897 644 932 q 693 820 682 862 q 708 731 704 778 q 713 633 713 684 m 593 469 q 570 526 584 500 q 535 570 555 551 q 491 600 515 589 q 436 611 466 611 q 362 596 396 611 q 299 556 328 582 q 249 496 271 530 q 212 422 227 461 q 190 340 197 382 q 182 256 182 298 q 192 183 182 216 q 220 127 201 151 q 265 91 238 104 q 326 78 292 78 q 424 108 379 78 q 504 190 469 138 q 561 314 538 242 q 593 469 584 385 z "},"∑":{"ha":856,"x_min":56,"x_max":842,"o":"m 56 -318 l 56 -265 l 514 334 l 81 911 l 81 972 l 814 972 l 814 868 l 248 868 l 650 336 l 224 -218 l 842 -218 l 842 -318 l 56 -318 z "},"∏":{"ha":1047,"x_min":150,"x_max":947,"o":"m 832 -318 l 832 867 l 264 867 l 264 -318 l 150 -318 l 150 972 l 947 972 l 947 -318 l 832 -318 z "},"∫":{"ha":749,"x_min":150,"x_max":642,"o":"m 642 930 q 609 943 628 938 q 567 949 590 949 q 515 938 537 949 q 479 908 493 927 q 457 861 465 888 q 450 802 450 834 l 450 -94 q 431 -200 450 -156 q 380 -273 412 -245 q 310 -315 349 -302 q 231 -329 271 -329 q 185 -326 207 -329 q 150 -317 163 -322 l 150 -216 q 182 -229 163 -224 q 224 -235 202 -235 q 275 -224 254 -235 q 312 -194 297 -214 q 333 -148 326 -175 q 340 -87 340 -121 l 340 807 q 360 914 340 869 q 411 987 380 958 q 482 1029 443 1016 q 561 1043 522 1043 q 607 1040 584 1043 q 642 1031 629 1036 l 642 930 z "},"ª":{"ha":606,"x_min":134,"x_max":621,"o":"m 554 639 q 547 599 551 621 q 540 554 543 576 q 535 514 537 532 q 533 485 533 495 l 440 485 q 442 507 441 494 q 445 533 443 519 q 448 559 446 546 q 450 581 449 572 l 449 581 q 374 503 417 534 q 275 472 330 472 q 171 520 208 472 q 134 657 134 568 q 139 718 134 684 q 159 789 145 753 q 195 862 172 826 q 251 925 217 897 q 331 970 285 953 q 437 987 377 987 q 481 986 457 987 q 529 981 505 984 q 577 975 553 979 q 621 966 600 970 l 554 639 m 518 903 q 476 910 500 907 q 433 913 452 913 q 364 901 395 913 q 311 868 334 888 q 272 821 288 847 q 245 767 256 795 q 231 712 235 739 q 227 663 227 685 q 231 616 227 637 q 245 579 235 594 q 271 555 255 564 q 310 546 287 546 q 374 568 345 546 q 427 623 404 590 q 466 693 450 655 q 489 761 482 730 l 518 903 z "},"º":{"ha":621,"x_min":146,"x_max":636,"o":"m 636 781 q 621 670 636 725 q 571 571 605 614 q 485 499 538 527 q 359 472 433 472 q 271 488 310 472 q 203 532 231 504 q 161 601 176 561 q 146 688 146 640 q 165 804 146 749 q 219 899 184 858 q 307 963 255 939 q 424 986 358 986 q 515 970 475 986 q 582 927 555 955 q 622 862 608 899 q 636 781 636 825 m 545 774 q 537 827 545 802 q 514 870 530 852 q 474 900 498 889 q 418 911 450 911 q 339 892 373 911 q 283 843 305 874 q 249 773 260 812 q 237 690 237 733 q 246 632 237 658 q 271 587 255 606 q 311 557 288 568 q 363 547 334 547 q 449 568 414 547 q 505 622 484 589 q 535 695 526 654 q 545 774 545 735 z "},"Ω":{"ha":1070,"x_min":-4,"x_max":1046,"o":"m 1046 606 q 1018 435 1046 513 q 944 294 990 357 q 837 181 898 230 q 710 100 777 133 l 940 100 l 920 0 l 570 0 l 591 110 q 718 191 659 144 q 821 298 777 238 q 890 432 865 358 q 916 595 916 506 q 896 713 916 660 q 838 805 876 767 q 746 865 800 844 q 625 886 692 886 q 463 853 537 886 q 335 760 389 820 q 251 617 281 701 q 220 435 220 534 q 231 328 220 375 q 262 243 242 281 q 309 172 281 204 q 368 110 336 140 l 346 0 l -4 0 l 16 100 l 257 100 q 199 157 229 123 q 146 233 170 190 q 108 329 123 277 q 93 444 93 382 q 134 667 93 567 q 248 839 176 768 q 419 950 321 911 q 631 989 517 989 q 807 959 730 989 q 937 878 884 929 q 1018 756 990 826 q 1046 606 1046 686 z "},"æ":{"ha":1147,"x_min":53,"x_max":1122,"o":"m 1122 532 q 1098 432 1122 477 q 1017 354 1074 387 q 868 304 961 322 q 639 286 775 287 q 638 272 639 279 q 637 260 637 266 q 647 190 637 223 q 679 133 657 157 q 734 93 700 108 q 815 78 768 78 q 918 96 862 78 q 1025 147 974 114 l 1004 37 q 915 -1 966 16 q 800 -17 864 -17 q 692 0 739 -17 q 613 48 646 18 q 562 121 581 79 q 539 214 544 163 l 536 214 q 482 129 512 170 q 416 55 452 87 q 337 3 380 22 q 244 -17 294 -17 q 156 2 193 -17 q 97 54 120 20 q 63 133 74 87 q 53 232 53 178 q 64 334 53 280 q 99 442 75 389 q 159 544 122 495 q 247 630 195 593 q 365 689 298 667 q 514 711 431 711 q 631 696 579 711 q 724 661 683 681 q 807 698 762 685 q 907 711 852 711 q 989 699 950 711 q 1058 664 1028 687 q 1105 607 1087 641 q 1122 532 1122 574 m 1008 525 q 1000 564 1008 547 q 975 593 991 581 q 938 611 959 605 q 890 616 916 616 q 811 600 849 616 q 741 553 772 584 q 685 479 709 523 q 650 380 661 435 q 816 391 747 380 q 927 419 884 401 q 989 465 970 438 q 1008 525 1008 492 m 639 589 q 612 599 627 594 q 578 608 596 604 q 542 614 561 612 q 505 616 523 616 q 396 598 445 616 q 309 550 347 580 q 244 480 271 519 q 200 398 217 440 q 174 313 182 355 q 165 235 165 271 q 171 171 165 200 q 189 122 177 142 q 218 90 200 101 q 261 78 236 78 q 321 92 290 78 q 385 138 352 106 q 452 223 418 170 q 521 354 486 276 q 541 401 529 372 q 568 462 553 429 q 601 528 583 494 q 639 589 619 561 z "},"ø":{"ha":743,"x_min":-37,"x_max":798,"o":"m 664 568 q 684 509 677 542 q 690 437 690 475 q 663 258 690 341 q 586 114 635 175 q 466 18 536 53 q 311 -17 396 -17 q 202 3 250 -17 q 119 61 153 23 l 14 -37 l -37 18 l 78 125 q 60 187 66 155 q 53 257 53 219 q 80 435 53 352 q 158 579 108 517 q 277 676 208 641 q 432 711 347 711 q 541 691 494 711 q 623 635 588 671 l 745 749 l 798 693 l 664 568 m 542 558 q 492 602 522 588 q 425 616 463 616 q 317 586 366 616 q 236 506 269 555 q 185 392 203 456 q 167 260 167 328 q 171 212 167 234 l 542 558 m 576 436 q 572 484 576 463 l 200 136 q 249 94 218 111 q 318 78 279 78 q 427 109 378 78 q 508 189 475 139 q 559 303 541 239 q 576 436 576 368 z "},"¿":{"ha":597,"x_min":-21,"x_max":473,"o":"m 473 639 q 468 609 473 623 q 452 585 462 595 q 428 568 441 574 q 399 562 414 562 q 370 568 384 562 q 346 585 356 574 q 330 609 336 595 q 323 639 323 623 q 330 668 323 654 q 346 692 336 682 q 370 708 356 703 q 399 714 384 714 q 428 708 414 714 q 452 692 441 703 q 468 668 462 682 q 473 639 473 654 m 406 -249 q 313 -279 363 -267 q 212 -290 263 -290 q 116 -274 159 -290 q 43 -229 73 -258 q -4 -160 12 -199 q -21 -75 -21 -121 q -11 3 -21 -33 q 22 74 0 40 q 79 139 45 107 q 160 204 113 172 q 221 252 196 229 q 263 300 246 275 q 292 356 281 326 q 311 428 303 387 l 412 428 q 391 340 403 379 q 360 268 379 300 q 313 207 341 235 q 244 151 286 178 q 172 97 201 123 q 123 45 142 71 q 96 -8 104 19 q 87 -64 87 -35 q 98 -119 87 -94 q 126 -161 108 -143 q 170 -188 144 -178 q 227 -197 196 -197 q 322 -182 273 -197 q 418 -135 372 -168 l 406 -249 z "}," ":{"ha":382,"x_min":0,"x_max":0,"o":""},"¡":{"ha":443,"x_min":33,"x_max":353,"o":"m 353 639 q 347 609 353 623 q 331 585 341 595 q 308 568 321 574 q 279 562 294 562 q 250 568 264 562 q 226 585 236 574 q 210 609 216 595 q 204 639 204 623 q 210 668 204 654 q 226 692 216 682 q 250 708 236 703 q 279 714 264 714 q 308 708 294 714 q 331 692 321 703 q 347 668 341 682 q 353 639 353 654 m 150 -271 l 33 -271 l 195 428 l 286 428 l 150 -271 z "},"¬":{"ha":951,"x_min":167,"x_max":804,"o":"m 715 172 l 715 465 l 167 465 l 167 554 l 804 554 l 804 172 l 715 172 z "},"√":{"ha":903,"x_min":104,"x_max":777,"o":"m 513 -1 l 436 -1 l 220 515 l 104 515 l 104 590 l 283 590 l 469 140 l 696 1028 l 777 1028 l 513 -1 z "},"ƒ":{"ha":749,"x_min":39,"x_max":707,"o":"m 688 854 q 652 870 674 863 q 611 878 631 878 q 538 851 569 878 q 494 770 507 825 l 464 628 l 582 628 l 561 534 l 444 534 l 350 94 q 308 -44 332 11 q 255 -130 284 -98 q 191 -175 225 -162 q 117 -187 156 -187 q 100 -186 110 -187 q 78 -184 90 -186 q 57 -180 67 -182 q 39 -174 46 -177 l 50 -75 q 81 -89 64 -85 q 109 -93 97 -93 q 149 -84 130 -93 q 184 -53 168 -75 q 215 8 201 -31 q 241 107 229 47 l 334 533 l 253 533 l 273 628 l 351 628 l 383 777 q 412 858 393 821 q 459 919 431 894 q 524 959 488 945 q 604 972 561 972 q 660 967 631 972 q 707 956 689 962 l 688 854 z "},"≈":{"ha":951,"x_min":163,"x_max":831,"o":"m 831 652 q 816 568 829 606 q 780 501 804 529 q 721 457 756 473 q 640 441 686 441 q 591 447 614 441 q 547 463 568 453 q 505 487 526 473 q 463 515 484 500 q 437 531 450 524 q 411 546 425 539 q 382 557 397 553 q 353 561 368 561 q 281 530 306 561 q 254 441 256 499 l 163 441 q 178 526 165 488 q 214 592 191 564 q 273 636 238 621 q 353 652 307 652 q 401 646 379 652 q 443 632 423 641 q 479 613 462 624 q 513 591 496 602 q 552 565 535 576 q 585 546 570 553 q 615 534 600 538 q 646 530 629 530 q 684 539 667 530 q 713 564 701 548 q 732 603 725 581 q 739 652 739 625 l 831 652 m 831 372 q 816 289 829 327 q 780 222 804 250 q 721 179 756 195 q 640 163 686 163 q 591 169 614 163 q 547 184 568 174 q 505 208 526 195 q 463 236 484 221 q 437 252 450 244 q 411 266 425 260 q 382 277 397 273 q 353 281 368 281 q 281 251 306 281 q 254 163 256 220 l 163 163 q 178 247 165 209 q 214 313 191 286 q 273 357 238 341 q 353 372 307 372 q 401 367 379 372 q 443 354 423 362 q 479 334 462 345 q 513 313 496 323 q 552 286 535 297 q 585 267 570 274 q 615 255 600 259 q 646 252 629 252 q 713 284 688 252 q 739 372 738 317 l 831 372 z "},"Δ":{"ha":922,"x_min":-20,"x_max":806,"o":"m 794 0 l -20 0 l -7 56 l 532 972 l 661 972 l 806 56 l 794 0 m 586 742 q 582 775 584 758 q 578 809 580 793 q 576 838 576 825 q 575 857 575 851 l 572 857 q 555 822 565 842 q 534 781 546 802 l 142 104 l 682 104 l 586 742 z "},"«":{"ha":714,"x_min":60,"x_max":701,"o":"m 444 357 l 595 136 l 489 136 l 335 364 l 582 597 l 701 597 l 444 357 m 170 357 l 321 136 l 214 136 l 60 364 l 307 597 l 427 597 l 170 357 z "},"»":{"ha":714,"x_min":12,"x_max":654,"o":"m 407 138 l 288 138 l 546 378 l 393 599 l 498 599 l 654 371 l 407 138 m 132 138 l 12 138 l 271 378 l 119 599 l 225 599 l 379 371 l 132 138 z "},"…":{"ha":1022,"x_min":36,"x_max":865,"o":"m 865 62 q 860 34 865 47 q 844 10 854 20 q 820 -6 833 0 q 790 -12 806 -12 q 762 -6 775 -12 q 739 10 749 0 q 723 34 728 20 q 717 62 717 47 q 723 92 717 78 q 739 116 728 106 q 762 133 749 127 q 790 139 775 139 q 820 133 806 139 q 844 116 833 127 q 860 92 854 106 q 865 62 865 78 m 525 62 q 519 34 525 47 q 503 10 513 20 q 479 -6 493 0 q 450 -12 466 -12 q 421 -6 435 -12 q 397 10 407 0 q 381 34 387 20 q 375 62 375 47 q 381 92 375 78 q 397 116 387 106 q 421 133 407 127 q 450 139 435 139 q 479 133 466 139 q 503 116 493 127 q 519 92 513 106 q 525 62 525 78 m 184 62 q 179 34 184 47 q 163 10 173 20 q 139 -6 153 0 q 110 -12 125 -12 q 81 -6 95 -12 q 58 10 68 0 q 42 34 47 20 q 36 62 36 47 q 42 92 36 78 q 58 116 47 106 q 81 133 68 127 q 110 139 95 139 q 139 133 125 139 q 163 116 153 127 q 179 92 173 106 q 184 62 184 78 z "},"À":{"ha":878,"x_min":-71,"x_max":798,"o":"m 677 0 l 633 272 l 221 272 l 64 0 l -71 0 l 509 972 l 628 972 l 798 0 l 677 0 m 553 789 q 552 804 552 795 q 551 822 551 813 q 551 840 551 831 q 551 854 551 848 l 549 854 q 543 840 547 848 q 536 822 540 831 q 527 804 532 813 q 519 789 523 795 l 279 375 l 615 375 l 553 789 m 608 1063 l 446 1284 l 550 1284 l 690 1063 l 608 1063 z "},"Ã":{"ha":878,"x_min":-71,"x_max":812,"o":"m 677 0 l 633 272 l 221 272 l 64 0 l -71 0 l 509 972 l 628 972 l 798 0 l 677 0 m 553 789 q 552 804 552 795 q 551 822 551 813 q 551 840 551 831 q 551 854 551 848 l 549 854 q 543 840 547 848 q 536 822 540 831 q 527 804 532 813 q 519 789 523 795 l 279 375 l 615 375 l 553 789 m 812 1225 q 799 1167 810 1194 q 767 1120 787 1140 q 722 1088 748 1099 q 665 1076 696 1076 q 611 1086 633 1076 q 571 1107 589 1096 q 538 1129 554 1119 q 501 1139 522 1139 q 447 1116 467 1139 q 423 1063 427 1094 l 358 1063 q 373 1123 360 1095 q 406 1171 385 1151 q 453 1201 426 1190 q 513 1213 481 1213 q 563 1202 543 1213 q 600 1180 583 1192 q 633 1157 616 1167 q 672 1147 650 1147 q 700 1153 687 1147 q 723 1170 713 1159 q 739 1194 733 1180 q 747 1225 745 1208 l 812 1225 z "},"Õ":{"ha":1047,"x_min":93,"x_max":1008,"o":"m 1008 578 q 997 453 1008 515 q 964 333 985 391 q 910 224 942 275 q 839 131 879 172 q 768 70 806 97 q 687 23 730 42 q 594 -7 644 3 q 488 -17 545 -17 q 323 15 396 -17 q 198 101 250 46 q 120 233 147 157 q 93 397 93 309 q 139 650 93 538 q 267 844 184 762 q 420 950 333 911 q 618 989 507 989 q 780 958 707 989 q 903 873 852 928 q 981 743 954 818 q 1008 578 1008 667 m 888 574 q 868 704 888 646 q 812 802 848 762 q 724 865 775 843 q 608 886 672 886 q 465 854 533 886 q 343 764 396 821 q 289 689 313 731 q 248 600 265 647 q 221 500 231 552 q 212 396 212 449 q 231 271 212 328 q 285 173 250 214 q 373 109 321 132 q 493 86 425 86 q 637 116 568 86 q 758 205 706 146 q 815 287 791 242 q 855 381 839 332 q 880 479 871 429 q 888 574 888 528 m 872 1225 q 858 1167 870 1194 q 827 1120 846 1140 q 782 1088 808 1099 q 725 1076 755 1076 q 670 1086 692 1076 q 631 1107 648 1096 q 598 1129 614 1119 q 561 1139 582 1139 q 506 1116 526 1139 q 483 1063 486 1094 l 418 1063 q 432 1123 420 1095 q 465 1171 445 1151 q 513 1201 486 1190 q 572 1213 541 1213 q 622 1202 602 1213 q 659 1180 642 1192 q 693 1157 676 1167 q 732 1147 709 1147 q 760 1153 747 1147 q 783 1170 772 1159 q 799 1194 793 1180 q 807 1225 805 1208 l 872 1225 z "},"Œ":{"ha":1283,"x_min":90,"x_max":1339,"o":"m 1317 869 l 942 869 l 871 538 l 1219 538 l 1197 435 l 848 435 l 778 103 l 1177 103 l 1156 0 l 697 0 q 649 -3 673 0 q 599 -8 625 -5 q 545 -14 573 -12 q 484 -17 516 -17 q 319 15 392 -17 q 195 102 246 46 q 117 233 144 157 q 90 397 90 309 q 136 650 90 538 q 264 844 182 762 q 418 950 330 911 q 623 989 507 989 q 701 986 665 989 q 771 981 738 984 q 833 975 804 978 q 890 972 863 972 l 1339 972 l 1317 869 m 823 864 q 737 880 788 874 q 614 886 686 886 q 463 855 532 886 q 343 766 394 823 q 289 693 313 734 q 247 604 264 652 q 220 504 230 556 q 211 396 211 451 q 229 274 211 331 q 281 176 246 218 q 370 110 317 134 q 494 86 423 86 q 584 93 543 86 q 664 111 626 100 l 823 864 z "},"œ":{"ha":1182,"x_min":53,"x_max":1157,"o":"m 1157 532 q 1133 432 1157 477 q 1052 354 1108 387 q 903 304 996 322 q 673 286 810 287 q 673 270 673 279 q 672 254 672 262 q 682 188 672 220 q 714 132 692 156 q 769 93 735 107 q 848 78 802 78 q 898 83 872 78 q 952 96 924 87 q 1007 118 979 105 q 1060 147 1034 131 l 1039 37 q 949 -1 1001 16 q 833 -17 897 -17 q 741 -5 781 -17 q 672 29 701 7 q 624 81 643 51 q 593 147 604 111 l 590 147 q 470 27 541 71 q 311 -17 398 -17 q 204 2 252 -17 q 122 57 156 21 q 71 143 89 92 q 53 257 53 193 q 80 436 53 353 q 158 580 108 519 q 277 676 208 642 q 431 711 347 711 q 510 700 474 711 q 574 666 546 688 q 622 614 602 644 q 653 549 642 585 l 656 549 q 711 615 681 585 q 777 667 741 646 q 852 700 812 688 q 937 711 892 711 q 1032 697 991 711 q 1101 658 1073 683 q 1143 601 1128 633 q 1157 532 1157 568 m 1043 524 q 1011 593 1043 570 q 928 616 979 616 q 848 599 887 616 q 778 551 810 582 q 722 476 745 519 q 686 379 698 432 q 862 391 793 379 q 971 422 930 402 q 1027 468 1011 442 q 1043 524 1043 494 m 572 432 q 534 568 572 520 q 425 616 495 616 q 317 586 366 616 q 236 506 269 555 q 185 392 203 456 q 167 262 167 329 q 177 186 167 220 q 207 128 188 152 q 255 91 227 104 q 318 78 283 78 q 426 108 378 78 q 506 188 473 138 q 555 302 538 238 q 572 432 572 366 z "},"–":{"ha":694,"x_min":3,"x_max":715,"o":"m 3 343 l 20 431 l 715 431 l 697 343 l 3 343 z "},"—":{"ha":1389,"x_min":3,"x_max":1409,"o":"m 3 343 l 20 431 l 1409 431 l 1392 343 l 3 343 z "},"“":{"ha":519,"x_min":131,"x_max":576,"o":"m 458 669 l 357 669 l 497 972 l 576 972 l 458 669 m 232 669 l 131 669 l 269 972 l 350 972 l 232 669 z "},"”":{"ha":519,"x_min":136,"x_max":582,"o":"m 441 669 l 363 669 l 482 972 l 582 972 l 441 669 m 215 669 l 136 669 l 256 972 l 355 972 l 215 669 z "},"‘":{"ha":293,"x_min":131,"x_max":350,"o":"m 232 669 l 131 669 l 269 972 l 350 972 l 232 669 z "},"’":{"ha":293,"x_min":136,"x_max":355,"o":"m 215 669 l 136 669 l 256 972 l 355 972 l 215 669 z "},"÷":{"ha":951,"x_min":174,"x_max":811,"o":"m 567 661 q 546 609 567 629 q 498 589 526 589 q 447 609 467 589 q 427 660 427 630 q 446 712 427 690 q 498 733 466 733 q 567 661 567 733 m 811 359 l 174 359 l 174 450 l 811 450 l 811 359 m 563 147 q 543 96 563 115 q 495 77 523 77 q 444 97 465 77 q 422 146 422 117 q 443 199 422 177 q 495 221 463 221 q 563 147 563 221 z "},"◊":{"ha":810,"x_min":94,"x_max":758,"o":"m 452 0 l 400 0 l 94 485 l 400 972 l 452 972 l 758 486 l 452 0 m 427 876 l 184 486 l 427 94 l 668 486 l 427 876 z "},"ÿ":{"ha":672,"x_min":-109,"x_max":742,"o":"m 249 -115 q 186 -205 218 -166 q 119 -271 154 -244 q 44 -312 84 -298 q -43 -326 5 -326 q -78 -323 -58 -326 q -109 -317 -97 -320 l -87 -218 q -61 -227 -77 -224 q -29 -231 -45 -231 q 55 -205 18 -231 q 126 -126 93 -179 l 210 3 l 83 694 l 199 694 l 279 161 q 282 133 281 146 q 281 109 282 119 l 285 109 q 295 132 288 117 q 311 160 302 146 l 619 694 l 742 694 l 249 -115 m 618 893 q 599 846 618 865 q 551 827 579 827 q 505 845 524 827 q 485 893 485 864 q 490 920 485 907 q 505 941 496 932 q 525 955 513 949 q 550 960 537 960 q 577 955 564 960 q 598 940 589 949 q 613 919 608 931 q 618 893 618 907 m 357 893 q 352 867 357 879 q 337 846 347 855 q 316 832 328 837 q 289 827 303 827 q 264 832 276 827 q 242 846 252 837 q 228 867 233 854 q 222 893 222 879 q 228 920 222 907 q 242 941 233 932 q 264 955 252 949 q 289 960 276 960 q 316 955 303 960 q 337 940 328 949 q 352 919 347 931 q 357 893 357 907 z "},"Ÿ":{"ha":770,"x_min":143,"x_max":890,"o":"m 441 370 l 364 0 l 248 0 l 325 367 l 143 972 l 267 972 l 387 525 q 395 493 392 509 q 400 467 398 477 l 401 467 q 416 493 407 477 q 436 524 426 508 l 760 972 l 890 972 l 441 370 m 726 1129 q 707 1082 726 1101 q 659 1063 687 1063 q 612 1081 632 1063 q 593 1129 593 1100 q 598 1156 593 1143 q 612 1177 604 1168 q 633 1191 621 1185 q 658 1196 645 1196 q 685 1191 672 1196 q 706 1176 697 1185 q 721 1155 715 1167 q 726 1129 726 1143 m 465 1129 q 460 1103 465 1115 q 445 1082 454 1091 q 424 1068 436 1073 q 397 1063 411 1063 q 372 1068 384 1063 q 350 1082 359 1073 q 336 1103 341 1090 q 330 1129 330 1115 q 336 1156 330 1143 q 350 1177 341 1168 q 372 1191 359 1185 q 397 1196 384 1196 q 424 1191 411 1196 q 445 1176 436 1185 q 460 1155 454 1167 q 465 1129 465 1143 z "},"⁄":{"ha":183,"x_min":-307,"x_max":581,"o":"m -207 0 l -307 0 l 482 972 l 581 972 l -207 0 z "},"€":{"ha":749,"x_min":32,"x_max":832,"o":"m 811 831 q 731 872 774 856 q 637 888 688 888 q 514 868 569 888 q 416 812 458 848 q 343 728 373 777 q 293 623 313 680 l 684 623 l 667 549 l 272 549 q 261 477 264 513 q 257 404 258 441 l 636 404 l 621 329 l 260 329 q 333 146 273 207 q 496 86 394 86 q 590 100 544 86 q 675 135 635 114 l 660 21 q 583 -6 628 6 q 476 -18 538 -18 q 349 4 408 -18 q 246 71 290 27 q 174 180 201 115 q 140 329 146 245 l 32 329 l 49 404 l 140 404 q 145 476 142 441 q 157 549 149 512 l 81 549 l 96 623 l 175 623 q 241 768 199 701 q 342 884 283 835 q 478 961 401 933 q 650 989 555 989 q 753 976 705 989 q 832 947 800 963 l 811 831 z "},"‹":{"ha":439,"x_min":60,"x_max":427,"o":"m 170 357 l 321 136 l 214 136 l 60 364 l 307 597 l 427 597 l 170 357 z "},"›":{"ha":439,"x_min":12,"x_max":379,"o":"m 132 138 l 12 138 l 269 378 l 118 599 l 225 599 l 379 371 l 132 138 z "},"ﬁ":{"ha":769,"x_min":7,"x_max":772,"o":"m 558 932 q 542 938 551 935 q 522 944 532 941 q 499 948 511 947 q 476 950 487 950 q 390 914 420 950 q 345 806 360 878 l 319 694 l 484 694 l 461 600 l 297 600 l 119 -231 l 7 -231 l 186 600 l 66 600 l 87 694 l 207 694 l 235 823 q 271 925 248 883 q 326 994 294 967 q 398 1032 357 1020 q 486 1044 438 1044 q 535 1040 511 1044 q 576 1031 559 1036 l 558 932 m 692 3 q 654 -6 675 -3 q 612 -9 633 -9 q 509 25 543 -9 q 475 117 475 59 q 479 157 475 134 q 490 214 482 180 l 591 694 l 703 694 l 602 211 q 593 167 595 182 q 591 140 591 151 q 606 98 591 113 q 654 83 621 83 q 685 85 672 83 q 710 92 699 87 l 692 3 m 772 942 q 751 890 772 911 q 700 868 730 868 q 648 889 670 868 q 626 942 626 911 q 648 993 626 973 q 700 1013 670 1013 q 751 992 730 1013 q 772 942 772 972 z "},"ﬂ":{"ha":769,"x_min":7,"x_max":776,"o":"m 558 932 q 542 938 551 935 q 522 944 532 941 q 499 948 511 947 q 476 950 487 950 q 390 914 420 950 q 345 806 360 878 l 319 694 l 484 694 l 461 600 l 297 600 l 119 -231 l 7 -231 l 186 600 l 66 600 l 87 694 l 207 694 l 235 823 q 271 925 248 883 q 326 994 294 967 q 398 1032 357 1020 q 486 1044 438 1044 q 535 1040 511 1044 q 576 1031 559 1036 l 558 932 m 692 3 q 654 -6 675 -3 q 612 -9 633 -9 q 509 25 543 -9 q 475 117 475 59 q 479 157 475 134 q 490 214 482 180 l 663 1029 l 776 1029 l 602 211 q 593 167 595 182 q 591 140 591 151 q 606 98 591 113 q 654 83 621 83 q 685 85 672 83 q 710 92 699 87 l 692 3 z "},"‡":{"ha":522,"x_min":33,"x_max":583,"o":"m 493 352 l 291 366 l 274 155 l 168 155 l 239 366 l 33 352 l 54 454 l 227 433 l 294 564 l 282 694 l 100 673 l 122 775 l 324 762 l 341 972 l 447 972 l 376 762 l 583 775 l 562 673 l 388 694 l 321 564 l 333 433 l 515 454 l 493 352 z "},"·":{"ha":302,"x_min":92,"x_max":240,"o":"m 240 422 q 234 393 240 407 q 218 369 229 379 q 195 353 208 359 q 167 347 182 347 q 137 353 151 347 q 113 369 123 359 q 97 393 103 379 q 92 422 92 407 q 97 451 92 437 q 113 475 103 465 q 137 491 123 485 q 165 497 151 497 q 195 491 181 497 q 218 475 208 485 q 234 451 229 465 q 240 422 240 437 z "},"‚":{"ha":293,"x_min":-39,"x_max":180,"o":"m 40 -153 l -39 -153 l 81 149 l 180 149 l 40 -153 z "},"„":{"ha":519,"x_min":-39,"x_max":407,"o":"m 267 -155 l 187 -155 l 307 147 l 407 147 l 267 -155 m 40 -155 l -39 -155 l 81 147 l 180 147 l 40 -155 z "},"‰":{"ha":1683,"x_min":115,"x_max":1618,"o":"m 1618 290 q 1599 179 1618 233 q 1547 81 1581 124 q 1464 13 1512 39 q 1357 -14 1416 -14 q 1259 6 1297 -14 q 1199 56 1221 26 q 1168 121 1177 86 q 1160 187 1160 157 q 1179 296 1160 242 q 1232 393 1198 350 q 1316 463 1267 436 q 1426 489 1365 489 q 1506 476 1470 489 q 1566 437 1541 463 q 1605 375 1591 412 q 1618 290 1618 338 m 1079 290 q 1060 179 1079 233 q 1007 81 1041 124 q 924 13 972 39 q 817 -14 876 -14 q 719 6 758 -14 q 659 56 681 26 q 628 121 636 86 q 619 187 619 157 q 638 296 619 242 q 692 393 657 350 q 777 463 727 436 q 888 489 826 489 q 966 476 931 489 q 1027 437 1002 463 q 1065 375 1052 412 q 1079 290 1079 338 m 229 0 l 129 0 l 962 972 l 1063 972 l 229 0 m 575 787 q 556 676 575 730 q 503 578 537 621 q 420 510 468 536 q 313 484 372 484 q 243 493 273 484 q 191 518 213 502 q 154 554 169 534 q 131 597 140 574 q 119 642 123 619 q 115 685 115 665 q 124 758 115 722 q 149 828 132 794 q 188 890 165 861 q 241 940 212 919 q 307 974 271 962 q 383 986 342 986 q 462 973 427 986 q 522 934 497 960 q 561 872 547 909 q 575 787 575 835 m 1528 288 q 1522 335 1528 312 q 1505 375 1517 357 q 1473 403 1493 393 q 1425 414 1453 414 q 1351 392 1383 414 q 1297 337 1319 370 q 1263 263 1274 303 q 1251 186 1251 223 q 1257 139 1251 162 q 1276 99 1263 117 q 1309 72 1289 82 q 1360 61 1330 61 q 1428 80 1397 61 q 1481 131 1459 100 q 1516 203 1503 163 q 1528 288 1528 244 m 987 288 q 982 335 987 312 q 964 375 977 357 q 932 403 952 393 q 885 414 913 414 q 811 392 844 414 q 757 337 779 370 q 723 263 734 303 q 711 186 711 223 q 718 139 711 162 q 736 99 724 117 q 770 72 749 82 q 819 61 790 61 q 888 80 857 61 q 941 131 919 100 q 975 203 963 163 q 987 288 987 244 m 484 785 q 478 832 484 809 q 460 872 473 854 q 429 900 448 890 q 380 911 409 911 q 307 889 339 911 q 252 834 275 867 q 218 761 230 801 q 207 684 207 720 q 213 637 207 660 q 232 597 219 615 q 266 569 245 580 q 315 558 286 558 q 384 577 353 558 q 437 628 414 597 q 471 701 459 660 q 484 785 484 741 z "},"Â":{"ha":878,"x_min":-71,"x_max":798,"o":"m 677 0 l 633 272 l 221 272 l 64 0 l -71 0 l 509 972 l 628 972 l 798 0 l 677 0 m 553 789 q 552 804 552 795 q 551 822 551 813 q 551 840 551 831 q 551 854 551 848 l 549 854 q 543 840 547 848 q 536 822 540 831 q 527 804 532 813 q 519 789 523 795 l 279 375 l 615 375 l 553 789 m 693 1063 l 616 1219 l 471 1063 l 389 1063 l 581 1287 l 671 1287 l 770 1063 l 693 1063 z "},"Ê":{"ha":693,"x_min":50,"x_max":749,"o":"m 726 869 l 351 869 l 281 538 l 628 538 l 606 435 l 258 435 l 187 103 l 586 103 l 566 0 l 50 0 l 256 972 l 749 972 l 726 869 m 637 1063 l 560 1219 l 416 1063 l 334 1063 l 526 1287 l 616 1287 l 714 1063 l 637 1063 z "},"Á":{"ha":878,"x_min":-71,"x_max":798,"o":"m 677 0 l 633 272 l 221 272 l 64 0 l -71 0 l 509 972 l 628 972 l 798 0 l 677 0 m 553 789 q 552 804 552 795 q 551 822 551 813 q 551 840 551 831 q 551 854 551 848 l 549 854 q 543 840 547 848 q 536 822 540 831 q 527 804 532 813 q 519 789 523 795 l 279 375 l 615 375 l 553 789 m 543 1063 l 460 1063 l 656 1284 l 765 1284 l 543 1063 z "},"Ë":{"ha":693,"x_min":50,"x_max":749,"o":"m 726 869 l 351 869 l 281 538 l 628 538 l 606 435 l 258 435 l 187 103 l 586 103 l 566 0 l 50 0 l 256 972 l 749 972 l 726 869 m 722 1129 q 703 1082 722 1101 q 655 1063 683 1063 q 608 1081 628 1063 q 589 1129 589 1100 q 594 1156 589 1143 q 608 1177 600 1168 q 629 1191 617 1185 q 654 1196 641 1196 q 681 1191 668 1196 q 702 1176 693 1185 q 717 1155 711 1167 q 722 1129 722 1143 m 461 1129 q 456 1103 461 1115 q 441 1082 450 1091 q 419 1068 432 1073 q 393 1063 407 1063 q 368 1068 380 1063 q 346 1082 355 1073 q 332 1103 337 1090 q 326 1129 326 1115 q 332 1156 326 1143 q 346 1177 337 1168 q 368 1191 355 1185 q 393 1196 380 1196 q 419 1191 407 1196 q 441 1176 432 1185 q 456 1155 450 1167 q 461 1129 461 1143 z "},"È":{"ha":693,"x_min":50,"x_max":749,"o":"m 726 869 l 351 869 l 281 538 l 628 538 l 606 435 l 258 435 l 187 103 l 586 103 l 566 0 l 50 0 l 256 972 l 749 972 l 726 869 m 543 1063 l 380 1284 l 484 1284 l 625 1063 l 543 1063 z "},"Í":{"ha":370,"x_min":50,"x_max":516,"o":"m 167 0 l 50 0 l 256 972 l 374 972 l 167 0 m 294 1063 l 211 1063 l 407 1284 l 516 1284 l 294 1063 z "},"Î":{"ha":370,"x_min":50,"x_max":519,"o":"m 167 0 l 50 0 l 256 972 l 374 972 l 167 0 m 443 1063 l 366 1219 l 221 1063 l 139 1063 l 331 1287 l 421 1287 l 519 1063 l 443 1063 z "},"Ï":{"ha":370,"x_min":50,"x_max":534,"o":"m 167 0 l 50 0 l 256 972 l 374 972 l 167 0 m 534 1129 q 514 1082 534 1101 q 467 1063 494 1063 q 420 1081 439 1063 q 400 1129 400 1100 q 406 1156 400 1143 q 420 1177 411 1168 q 440 1191 429 1185 q 465 1196 452 1196 q 492 1191 479 1196 q 514 1176 505 1185 q 528 1155 523 1167 q 534 1129 534 1143 m 273 1129 q 267 1103 273 1115 q 253 1082 262 1091 q 231 1068 243 1073 q 204 1063 218 1063 q 179 1068 191 1063 q 158 1082 167 1073 q 143 1103 149 1090 q 138 1129 138 1115 q 143 1156 138 1143 q 158 1177 149 1168 q 179 1191 167 1185 q 204 1196 191 1196 q 231 1191 218 1196 q 253 1176 243 1185 q 267 1155 262 1167 q 273 1129 273 1143 z "},"Ì":{"ha":370,"x_min":50,"x_max":454,"o":"m 167 0 l 50 0 l 256 972 l 374 972 l 167 0 m 372 1063 l 210 1284 l 313 1284 l 454 1063 l 372 1063 z "},"Ó":{"ha":1047,"x_min":93,"x_max":1008,"o":"m 1008 578 q 997 453 1008 515 q 964 333 985 391 q 910 224 942 275 q 839 131 879 172 q 768 70 806 97 q 687 23 730 42 q 594 -7 644 3 q 488 -17 545 -17 q 323 15 396 -17 q 198 101 250 46 q 120 233 147 157 q 93 397 93 309 q 139 650 93 538 q 267 844 184 762 q 420 950 333 911 q 618 989 507 989 q 780 958 707 989 q 903 873 852 928 q 981 743 954 818 q 1008 578 1008 667 m 888 574 q 868 704 888 646 q 812 802 848 762 q 724 865 775 843 q 608 886 672 886 q 465 854 533 886 q 343 764 396 821 q 289 689 313 731 q 248 600 265 647 q 221 500 231 552 q 212 396 212 449 q 231 271 212 328 q 285 173 250 214 q 373 109 321 132 q 493 86 425 86 q 637 116 568 86 q 758 205 706 146 q 815 287 791 242 q 855 381 839 332 q 880 479 871 429 q 888 574 888 528 m 585 1063 l 502 1063 l 698 1284 l 807 1284 l 585 1063 z "},"Ô":{"ha":1047,"x_min":93,"x_max":1008,"o":"m 1008 578 q 997 453 1008 515 q 964 333 985 391 q 910 224 942 275 q 839 131 879 172 q 768 70 806 97 q 687 23 730 42 q 594 -7 644 3 q 488 -17 545 -17 q 323 15 396 -17 q 198 101 250 46 q 120 233 147 157 q 93 397 93 309 q 139 650 93 538 q 267 844 184 762 q 420 950 333 911 q 618 989 507 989 q 780 958 707 989 q 903 873 852 928 q 981 743 954 818 q 1008 578 1008 667 m 888 574 q 868 704 888 646 q 812 802 848 762 q 724 865 775 843 q 608 886 672 886 q 465 854 533 886 q 343 764 396 821 q 289 689 313 731 q 248 600 265 647 q 221 500 231 552 q 212 396 212 449 q 231 271 212 328 q 285 173 250 214 q 373 109 321 132 q 493 86 425 86 q 637 116 568 86 q 758 205 706 146 q 815 287 791 242 q 855 381 839 332 q 880 479 871 429 q 888 574 888 528 m 729 1063 l 652 1219 l 507 1063 l 425 1063 l 617 1287 l 707 1287 l 806 1063 l 729 1063 z "},"Ò":{"ha":1047,"x_min":93,"x_max":1008,"o":"m 1008 578 q 997 453 1008 515 q 964 333 985 391 q 910 224 942 275 q 839 131 879 172 q 768 70 806 97 q 687 23 730 42 q 594 -7 644 3 q 488 -17 545 -17 q 323 15 396 -17 q 198 101 250 46 q 120 233 147 157 q 93 397 93 309 q 139 650 93 538 q 267 844 184 762 q 420 950 333 911 q 618 989 507 989 q 780 958 707 989 q 903 873 852 928 q 981 743 954 818 q 1008 578 1008 667 m 888 574 q 868 704 888 646 q 812 802 848 762 q 724 865 775 843 q 608 886 672 886 q 465 854 533 886 q 343 764 396 821 q 289 689 313 731 q 248 600 265 647 q 221 500 231 552 q 212 396 212 449 q 231 271 212 328 q 285 173 250 214 q 373 109 321 132 q 493 86 425 86 q 637 116 568 86 q 758 205 706 146 q 815 287 791 242 q 855 381 839 332 q 880 479 871 429 q 888 574 888 528 m 668 1063 l 506 1284 l 610 1284 l 750 1063 l 668 1063 z "},"Ú":{"ha":957,"x_min":114,"x_max":972,"o":"m 846 382 q 794 213 825 287 q 715 87 764 138 q 597 10 667 37 q 429 -17 527 -17 q 295 7 354 -17 q 196 72 236 31 q 135 170 156 113 q 114 292 114 226 q 118 357 114 321 q 127 427 121 394 l 245 972 l 363 972 l 245 433 q 240 399 243 418 q 234 363 237 381 q 231 328 232 345 q 229 300 229 312 q 245 205 229 245 q 291 139 262 165 q 358 99 319 113 q 443 86 397 86 q 546 102 500 86 q 626 153 591 119 q 685 241 661 188 q 726 370 710 295 l 856 972 l 972 972 l 846 382 m 597 1063 l 514 1063 l 710 1284 l 819 1284 l 597 1063 z "},"Û":{"ha":957,"x_min":114,"x_max":972,"o":"m 846 382 q 794 213 825 287 q 715 87 764 138 q 597 10 667 37 q 429 -17 527 -17 q 295 7 354 -17 q 196 72 236 31 q 135 170 156 113 q 114 292 114 226 q 118 357 114 321 q 127 427 121 394 l 245 972 l 363 972 l 245 433 q 240 399 243 418 q 234 363 237 381 q 231 328 232 345 q 229 300 229 312 q 245 205 229 245 q 291 139 262 165 q 358 99 319 113 q 443 86 397 86 q 546 102 500 86 q 626 153 591 119 q 685 241 661 188 q 726 370 710 295 l 856 972 l 972 972 l 846 382 m 733 1063 l 656 1219 l 511 1063 l 429 1063 l 621 1287 l 711 1287 l 810 1063 l 733 1063 z "},"Ù":{"ha":957,"x_min":114,"x_max":972,"o":"m 846 382 q 794 213 825 287 q 715 87 764 138 q 597 10 667 37 q 429 -17 527 -17 q 295 7 354 -17 q 196 72 236 31 q 135 170 156 113 q 114 292 114 226 q 118 357 114 321 q 127 427 121 394 l 245 972 l 363 972 l 245 433 q 240 399 243 418 q 234 363 237 381 q 231 328 232 345 q 229 300 229 312 q 245 205 229 245 q 291 139 262 165 q 358 99 319 113 q 443 86 397 86 q 546 102 500 86 q 626 153 591 119 q 685 241 661 188 q 726 370 710 295 l 856 972 l 972 972 l 846 382 m 661 1063 l 498 1284 l 602 1284 l 743 1063 l 661 1063 z "},"ı":{"ha":359,"x_min":65,"x_max":300,"o":"m 282 3 q 244 -6 265 -3 q 201 -9 222 -9 q 99 25 133 -9 q 65 117 65 59 q 68 157 65 134 q 79 214 72 180 l 180 694 l 293 694 l 191 211 q 183 167 185 182 q 180 140 180 151 q 196 98 180 113 q 244 83 211 83 q 275 85 262 83 q 300 92 288 87 l 282 3 z "},"ˆ":{"ha":485,"x_min":142,"x_max":522,"o":"m 446 827 l 368 983 l 224 827 l 142 827 l 334 1051 l 424 1051 l 522 827 l 446 827 z "},"˜":{"ha":485,"x_min":121,"x_max":575,"o":"m 575 989 q 561 931 573 958 q 530 884 549 904 q 485 852 511 863 q 428 840 458 840 q 373 850 395 840 q 334 871 351 860 q 301 893 317 883 q 264 903 285 903 q 209 880 229 903 q 186 827 189 858 l 121 827 q 135 887 123 859 q 168 935 148 915 q 216 965 189 954 q 275 977 243 977 q 325 966 305 977 q 362 944 345 956 q 396 921 379 931 q 435 911 412 911 q 463 917 450 911 q 486 933 475 923 q 502 958 496 944 q 510 989 508 972 l 575 989 z "},"ˉ":{"ha":485,"x_min":163,"x_max":518,"o":"m 163 827 l 174 900 l 518 900 l 507 827 l 163 827 z "},"˘":{"ha":485,"x_min":174,"x_max":555,"o":"m 555 999 q 523 926 543 958 q 474 872 502 895 q 412 838 446 850 q 339 827 378 827 q 271 838 302 827 q 219 868 240 848 q 185 914 197 887 q 174 972 174 941 q 175 986 174 981 q 178 999 176 991 l 249 999 q 248 990 248 994 q 248 981 248 986 q 274 917 248 940 q 342 895 300 895 q 429 920 394 895 q 481 999 463 945 l 555 999 z "},"˙":{"ha":485,"x_min":281,"x_max":412,"o":"m 412 895 q 393 846 412 866 q 346 827 374 827 q 321 832 333 827 q 300 846 309 837 q 286 868 292 855 q 281 895 281 880 q 286 921 281 909 q 300 941 292 932 q 321 955 309 949 q 346 960 333 960 q 371 955 359 960 q 392 941 383 949 q 407 921 401 932 q 412 895 412 909 z "},"˚":{"ha":485,"x_min":216,"x_max":494,"o":"m 494 932 q 484 879 494 903 q 454 836 473 854 q 409 808 435 818 q 354 798 383 798 q 300 807 325 798 q 256 833 275 816 q 227 873 237 850 q 216 926 216 897 q 228 983 216 958 q 258 1025 239 1008 q 303 1052 277 1042 q 358 1061 329 1061 q 414 1052 389 1061 q 457 1025 439 1042 q 485 984 475 1008 q 494 932 494 960 m 432 930 q 426 961 432 947 q 409 985 420 975 q 385 1000 399 995 q 354 1006 370 1006 q 299 984 321 1006 q 278 930 278 963 q 300 873 278 894 q 354 852 321 852 q 385 859 371 852 q 410 876 399 865 q 426 900 420 886 q 432 930 432 914 z "},"¸":{"ha":485,"x_min":25,"x_max":283,"o":"m 283 -161 q 233 -258 283 -222 q 85 -294 182 -294 q 56 -293 71 -294 q 25 -290 40 -292 l 37 -231 q 89 -235 65 -235 q 176 -218 148 -235 q 204 -172 204 -201 q 185 -135 204 -149 q 123 -121 165 -121 q 105 -121 114 -121 q 86 -123 96 -122 l 113 0 l 178 0 l 161 -71 q 209 -76 186 -71 q 247 -94 231 -82 q 274 -122 264 -105 q 283 -161 283 -139 z "},"˝":{"ha":485,"x_min":161,"x_max":599,"o":"m 404 827 l 335 827 l 503 1047 l 599 1047 l 404 827 m 231 827 l 161 827 l 330 1047 l 422 1047 l 231 827 z "},"˛":{"ha":485,"x_min":-1,"x_max":204,"o":"m 204 0 q 144 -56 169 -32 q 105 -101 120 -81 q 83 -137 90 -121 q 77 -170 77 -154 q 131 -224 77 -224 q 164 -218 146 -224 q 192 -207 181 -212 l 182 -277 q 151 -287 170 -283 q 109 -292 132 -292 q 26 -263 53 -292 q -1 -186 -1 -235 q 5 -148 -1 -168 q 28 -105 12 -127 q 70 -56 43 -82 q 135 0 96 -30 l 204 0 z "},"ˇ":{"ha":485,"x_min":189,"x_max":570,"o":"m 379 827 l 288 827 l 189 1051 l 265 1051 l 343 895 l 489 1051 l 570 1051 l 379 827 z "},"Ł":{"ha":643,"x_min":20,"x_max":576,"o":"m 554 0 l 50 0 l 135 401 l 20 351 l 40 458 l 158 510 l 256 972 l 374 972 l 288 566 l 501 664 l 481 558 l 264 457 l 189 106 l 576 106 l 554 0 z "},"ł":{"ha":382,"x_min":33,"x_max":419,"o":"m 214 211 q 205 167 208 182 q 203 140 203 151 q 218 98 203 113 q 267 83 233 83 q 297 85 284 83 q 322 92 311 87 l 304 3 q 266 -6 288 -3 q 224 -9 245 -9 q 121 25 155 -9 q 87 117 87 59 q 91 157 87 134 q 102 214 94 180 l 149 431 l 33 363 l 54 468 l 170 533 l 275 1029 l 388 1029 l 297 604 l 419 675 l 397 571 l 275 501 l 214 211 z "},"Š":{"ha":690,"x_min":25,"x_max":726,"o":"m 672 827 q 632 850 655 839 q 582 869 608 861 q 526 882 555 877 q 468 886 496 886 q 377 871 414 886 q 317 832 340 856 q 285 781 295 809 q 275 729 275 753 q 284 671 275 697 q 311 622 293 646 q 356 574 328 598 q 421 524 384 551 q 496 463 463 493 q 552 402 529 433 q 587 335 575 370 q 599 260 599 300 q 594 204 599 235 q 575 144 589 174 q 539 84 562 113 q 480 33 516 55 q 395 -3 445 10 q 277 -17 345 -17 q 202 -12 239 -17 q 133 3 165 -6 q 72 23 100 12 q 25 45 45 34 l 45 163 q 94 133 66 147 q 153 109 122 119 q 218 92 184 98 q 283 86 251 86 q 372 98 335 86 q 433 132 409 111 q 468 182 457 153 q 479 245 479 212 q 470 300 479 276 q 441 348 460 325 q 391 396 421 372 q 319 449 361 420 q 256 500 286 473 q 203 560 226 528 q 167 631 180 593 q 154 714 154 669 q 175 820 154 770 q 236 907 195 869 q 337 967 277 945 q 476 989 397 989 q 537 985 507 989 q 595 975 567 981 q 649 961 624 968 q 694 945 675 953 l 672 827 m 536 1063 l 444 1063 l 346 1287 l 422 1287 l 500 1131 l 646 1287 l 726 1287 l 536 1063 z "},"š":{"ha":549,"x_min":11,"x_max":604,"o":"m 492 572 q 423 604 461 592 q 347 616 385 616 q 249 587 283 616 q 214 510 214 558 q 220 474 214 490 q 239 443 227 458 q 271 415 252 429 q 315 386 290 401 q 425 295 391 342 q 458 191 458 249 q 444 114 458 151 q 397 47 429 76 q 315 1 366 18 q 192 -17 264 -17 q 147 -14 172 -17 q 98 -6 123 -12 q 51 7 73 -1 q 11 25 28 15 l 33 131 q 67 112 47 121 q 110 95 87 102 q 159 83 134 87 q 210 78 184 78 q 311 105 277 78 q 345 180 345 132 q 339 213 345 198 q 321 243 334 228 q 288 273 309 258 q 235 307 267 288 q 133 395 165 349 q 100 498 100 441 q 115 579 100 541 q 162 647 131 617 q 239 694 193 676 q 349 711 286 711 q 441 702 397 711 q 515 677 485 692 l 492 572 m 414 827 l 322 827 l 224 1051 l 300 1051 l 378 895 l 524 1051 l 604 1051 l 414 827 z "},"Ž":{"ha":791,"x_min":-53,"x_max":895,"o":"m 888 943 l 154 103 l 696 103 l 673 0 l -53 0 l -46 35 l 682 869 l 178 869 l 199 972 l 895 972 l 888 943 m 594 1063 l 503 1063 l 404 1287 l 480 1287 l 558 1131 l 704 1287 l 785 1287 l 594 1063 z "},"ž":{"ha":628,"x_min":-53,"x_max":672,"o":"m 665 661 l 144 94 l 539 94 l 518 0 l -53 0 l -45 36 l 476 600 l 114 600 l 135 694 l 672 694 l 665 661 m 463 827 l 371 827 l 273 1051 l 349 1051 l 427 895 l 572 1051 l 653 1051 l 463 827 z "},"¦":{"ha":334,"x_min":118,"x_max":216,"o":"m 118 485 l 118 1063 l 216 1063 l 216 485 l 118 485 m 118 -326 l 118 252 l 216 252 l 216 -326 l 118 -326 z "},"Ð":{"ha":989,"x_min":32,"x_max":950,"o":"m 950 572 q 935 428 950 499 q 889 293 920 357 q 811 176 859 230 q 697 83 763 122 q 546 22 631 44 q 355 0 460 0 l 50 0 l 144 440 l 32 440 l 52 543 l 165 543 l 257 972 l 522 972 q 698 944 619 972 q 833 864 777 916 q 920 739 889 812 q 950 572 950 665 m 831 564 q 810 692 831 635 q 747 788 789 749 q 644 848 705 827 q 500 869 582 869 l 351 869 l 281 543 l 513 543 l 492 440 l 260 440 l 187 103 l 358 103 q 568 138 479 103 q 715 235 657 173 q 802 381 774 296 q 831 564 831 465 z "},"ð":{"ha":725,"x_min":53,"x_max":718,"o":"m 542 884 q 638 701 604 805 q 673 469 673 597 q 664 358 673 415 q 634 247 654 300 q 583 144 614 193 q 511 61 553 96 q 416 4 469 25 q 298 -17 363 -17 q 198 1 243 -17 q 120 54 153 19 q 71 138 88 88 q 53 253 53 189 q 65 371 53 313 q 99 479 77 428 q 152 573 121 530 q 223 646 184 615 q 307 694 262 677 q 403 711 353 711 q 489 692 454 711 q 543 644 524 672 l 546 644 q 528 700 539 672 q 504 754 517 728 q 475 803 490 781 q 446 842 460 825 l 245 758 l 218 823 l 400 899 q 368 933 386 916 q 329 967 349 950 q 288 1000 309 984 q 250 1028 268 1015 l 399 1028 q 447 988 420 1011 q 494 940 473 966 l 689 1022 l 718 958 l 542 884 m 559 443 q 552 507 559 476 q 527 563 545 538 q 482 602 510 587 q 412 616 454 616 q 310 584 355 616 q 233 500 264 552 q 184 385 201 449 q 167 258 167 321 q 176 184 167 217 q 202 127 184 151 q 247 91 220 104 q 307 78 273 78 q 386 95 351 78 q 450 141 422 113 q 498 207 478 170 q 532 285 519 245 q 553 367 546 326 q 559 443 559 408 z "},"Ý":{"ha":770,"x_min":143,"x_max":890,"o":"m 441 370 l 364 0 l 248 0 l 325 367 l 143 972 l 267 972 l 387 525 q 395 493 392 509 q 400 467 398 477 l 401 467 q 416 493 407 477 q 436 524 426 508 l 760 972 l 890 972 l 441 370 m 509 1063 l 425 1063 l 621 1284 l 730 1284 l 509 1063 z "},"ý":{"ha":672,"x_min":-109,"x_max":742,"o":"m 249 -115 q 186 -205 218 -166 q 119 -271 154 -244 q 44 -312 84 -298 q -43 -326 5 -326 q -78 -323 -58 -326 q -109 -317 -97 -320 l -87 -218 q -61 -227 -77 -224 q -29 -231 -45 -231 q 55 -205 18 -231 q 126 -126 93 -179 l 210 3 l 83 694 l 199 694 l 279 161 q 282 133 281 146 q 281 109 282 119 l 285 109 q 295 132 288 117 q 311 160 302 146 l 619 694 l 742 694 l 249 -115 m 413 827 l 330 827 l 526 1048 l 635 1048 l 413 827 z "},"Þ":{"ha":799,"x_min":50,"x_max":765,"o":"m 765 566 q 741 430 765 494 q 667 318 717 366 q 541 243 617 271 q 359 215 465 215 l 214 215 l 167 0 l 50 0 l 256 972 l 374 972 l 342 819 l 475 819 q 608 798 553 819 q 698 742 663 777 q 749 661 733 707 q 765 566 765 615 m 646 555 q 634 618 646 589 q 598 669 623 648 q 535 704 574 691 q 443 717 497 717 l 319 717 l 235 318 l 371 318 q 495 336 443 318 q 580 386 547 354 q 630 461 614 417 q 646 555 646 505 z "},"þ":{"ha":753,"x_min":-39,"x_max":700,"o":"m 700 452 q 689 348 700 401 q 656 241 678 294 q 600 142 633 189 q 521 60 566 96 q 418 4 475 24 q 290 -17 360 -17 q 211 -9 250 -17 q 143 8 172 -2 l 74 -322 l -39 -322 l 248 1028 l 358 1028 l 286 688 q 270 615 278 650 q 252 549 261 580 l 254 549 q 494 711 352 711 q 580 695 542 711 q 645 646 618 679 q 686 565 671 614 q 700 452 700 516 m 586 447 q 579 515 586 484 q 558 568 573 546 q 520 604 543 591 q 463 616 496 616 q 396 602 427 616 q 339 563 366 587 q 291 506 313 538 q 252 439 269 474 q 223 370 235 405 q 205 304 212 335 l 163 103 q 192 93 175 98 q 227 85 209 89 q 264 80 245 82 q 300 78 283 78 q 386 94 347 78 q 457 136 426 109 q 513 199 489 163 q 553 276 537 235 q 578 361 570 317 q 586 447 586 405 z "},"−":{"ha":951,"x_min":174,"x_max":811,"o":"m 174 359 l 174 450 l 811 450 l 811 359 l 174 359 z "},"×":{"ha":951,"x_min":192,"x_max":779,"o":"m 715 111 l 486 342 l 256 111 l 192 175 l 422 404 l 192 635 l 256 699 l 486 468 l 715 699 l 779 635 l 549 404 l 779 175 l 715 111 z "},"½":{"ha":1315,"x_min":162,"x_max":1226,"o":"m 245 396 l 345 875 q 254 820 300 844 q 162 777 208 795 l 181 869 q 235 889 209 878 q 289 915 261 901 q 346 948 316 930 q 410 987 375 966 l 457 987 l 334 396 l 245 396 m 1145 1 l 769 1 l 781 56 q 807 120 788 92 q 851 172 825 148 q 908 217 878 196 q 970 257 939 237 q 1030 297 1001 277 q 1081 339 1059 317 q 1117 387 1103 361 q 1131 444 1131 413 q 1110 491 1131 475 q 1053 507 1089 507 q 891 438 971 507 l 912 539 q 1082 591 980 591 q 1142 581 1116 591 q 1187 554 1168 571 q 1216 512 1206 536 q 1226 459 1226 488 q 1202 362 1226 405 q 1143 285 1179 319 q 1064 223 1107 250 q 984 173 1021 195 q 920 130 947 150 q 890 91 894 110 l 888 83 l 1162 83 l 1145 1 m 323 0 l 223 0 l 1013 972 l 1111 972 l 323 0 z "},"¼":{"ha":1272,"x_min":162,"x_max":1163,"o":"m 245 396 l 345 875 q 254 820 300 844 q 162 777 208 795 l 181 869 q 235 889 209 878 q 289 915 261 901 q 346 948 316 930 q 410 987 375 966 l 457 987 l 334 396 l 245 396 m 1146 139 l 1072 139 l 1043 1 l 954 1 l 982 139 l 715 139 l 728 201 q 899 377 817 283 q 1057 577 981 470 l 1163 577 l 1087 213 l 1162 213 l 1146 139 m 998 213 l 1050 465 q 936 327 992 388 q 824 213 880 267 l 998 213 m 337 0 l 237 0 l 1026 972 l 1124 972 l 337 0 z "},"¾":{"ha":1335,"x_min":106,"x_max":1221,"o":"m 493 561 q 481 499 493 531 q 444 441 470 467 q 374 398 417 415 q 267 382 330 382 q 225 384 248 382 q 179 391 202 387 q 136 401 156 395 q 106 414 117 407 l 125 504 q 154 489 137 496 q 191 476 172 481 q 232 467 211 470 q 272 464 253 464 q 333 472 308 464 q 373 495 357 481 q 395 526 388 509 q 401 561 401 543 q 394 597 401 581 q 371 626 387 614 q 331 644 355 637 q 271 650 306 650 l 214 650 l 232 732 l 289 732 q 355 741 326 732 q 402 764 383 749 q 431 797 421 779 q 440 835 440 816 q 419 884 440 864 q 351 904 398 904 q 282 893 315 904 q 218 865 249 882 l 239 961 q 268 971 252 966 q 301 979 284 975 q 336 984 319 982 q 370 986 354 986 q 437 977 407 986 q 489 950 467 967 q 522 907 510 932 q 533 851 533 882 q 494 753 533 793 q 387 697 454 714 l 387 694 q 493 561 493 667 m 1204 139 l 1130 139 l 1101 1 l 1012 1 l 1040 139 l 774 139 l 787 201 q 958 377 876 283 q 1116 577 1040 470 l 1221 577 l 1145 213 l 1220 213 l 1204 139 m 1056 213 l 1108 465 q 995 327 1050 388 q 882 213 939 267 l 1056 213 m 363 0 l 262 0 l 1052 972 l 1150 972 l 363 0 z "},"₣":{"ha":677,"x_min":-16,"x_max":751,"o":"m 370 189 l 205 189 l 165 0 l 51 0 l 91 189 l -16 189 l 6 294 l 113 294 l 258 972 l 751 972 l 729 869 l 350 869 l 278 533 l 629 533 l 608 431 l 256 431 l 227 294 l 393 294 l 370 189 z "},"Ğ":{"ha":956,"x_min":93,"x_max":937,"o":"m 916 807 q 864 836 893 822 q 801 862 836 850 q 726 880 766 873 q 640 886 686 886 q 460 850 539 886 q 326 752 380 814 q 241 606 271 690 q 212 427 212 522 q 234 284 212 347 q 298 177 256 221 q 398 110 339 133 q 530 86 456 86 q 622 95 581 86 q 699 117 663 103 l 757 400 l 532 400 l 554 501 l 896 501 l 800 53 q 673 2 743 22 q 517 -18 603 -18 q 338 15 417 -18 q 205 106 260 48 q 122 243 151 164 q 93 414 93 322 q 109 566 93 492 q 157 703 125 639 q 237 820 189 767 q 347 910 284 872 q 486 968 409 947 q 654 989 563 989 q 748 983 705 989 q 826 967 791 977 q 890 946 862 958 q 937 925 918 935 l 916 807 m 882 1234 q 849 1162 869 1194 q 800 1107 828 1130 q 738 1074 772 1085 q 665 1062 704 1062 q 597 1073 628 1062 q 545 1103 566 1084 q 512 1149 524 1122 q 500 1208 500 1176 q 501 1221 500 1216 q 504 1234 502 1227 l 575 1234 q 574 1225 574 1230 q 574 1216 574 1221 q 600 1153 574 1175 q 668 1130 626 1130 q 755 1155 720 1130 q 807 1234 789 1181 l 882 1234 z "},"ğ":{"ha":753,"x_min":-24,"x_max":728,"o":"m 576 50 q 532 -100 559 -31 q 458 -219 504 -169 q 345 -298 412 -270 q 182 -326 278 -326 q 66 -311 115 -326 q -24 -273 17 -295 l -3 -170 q 88 -213 40 -195 q 192 -231 136 -231 q 297 -213 252 -231 q 373 -161 341 -195 q 427 -77 406 -127 q 463 36 448 -28 l 486 144 l 484 144 q 433 73 458 103 q 381 23 408 43 q 324 -7 354 3 q 258 -17 294 -17 q 174 0 212 -17 q 109 49 136 16 q 67 130 82 81 q 53 243 53 179 q 66 361 53 303 q 104 472 79 420 q 166 568 130 524 q 248 644 202 612 q 350 693 294 675 q 468 711 405 711 q 594 703 531 711 q 710 685 657 695 l 576 50 m 582 603 q 526 612 559 608 q 456 616 493 616 q 339 587 392 616 q 248 507 286 557 q 188 389 210 456 q 167 248 167 322 q 173 180 167 211 q 194 126 180 149 q 230 91 208 104 q 283 78 252 78 q 352 94 321 78 q 410 135 384 109 q 457 194 437 161 q 494 261 478 227 q 521 329 510 296 q 538 390 532 363 l 582 603 m 728 999 q 695 926 715 958 q 646 872 674 895 q 584 838 618 850 q 511 827 550 827 q 443 838 474 827 q 391 868 412 848 q 358 914 370 887 q 346 972 346 941 q 347 986 346 981 q 350 999 348 991 l 421 999 q 420 990 420 994 q 420 981 420 986 q 446 917 420 940 q 514 895 472 895 q 601 920 566 895 q 653 999 635 945 l 728 999 z "},"İ":{"ha":370,"x_min":50,"x_max":409,"o":"m 167 0 l 50 0 l 256 972 l 374 972 l 167 0 m 409 1131 q 390 1082 409 1102 q 342 1063 371 1063 q 318 1068 330 1063 q 297 1082 306 1073 q 283 1104 288 1091 q 277 1131 277 1116 q 283 1157 277 1145 q 297 1177 288 1168 q 318 1191 306 1185 q 342 1196 330 1196 q 368 1191 356 1196 q 389 1177 380 1185 q 404 1157 398 1168 q 409 1131 409 1145 z "},"Ş":{"ha":690,"x_min":25,"x_max":694,"o":"m 418 -161 q 367 -258 418 -222 q 219 -294 316 -294 q 190 -293 205 -294 q 159 -290 174 -292 l 172 -231 q 223 -235 199 -235 q 310 -218 282 -235 q 338 -172 338 -201 q 319 -135 338 -149 q 258 -121 300 -121 q 239 -121 248 -121 q 220 -123 230 -122 l 243 -16 q 202 -12 222 -14 q 133 3 165 -6 q 72 23 100 12 q 25 45 45 34 l 45 163 q 94 133 66 147 q 153 109 122 119 q 218 92 184 98 q 283 86 251 86 q 372 98 335 86 q 433 132 409 111 q 468 182 457 153 q 479 245 479 212 q 470 300 479 276 q 441 348 460 325 q 391 396 421 372 q 319 449 361 420 q 256 500 286 473 q 203 560 226 528 q 167 631 180 593 q 154 714 154 669 q 175 820 154 770 q 236 907 195 869 q 337 967 277 945 q 476 989 397 989 q 537 985 507 989 q 595 975 567 981 q 649 961 624 968 q 694 945 675 953 l 672 827 q 632 850 655 839 q 582 869 608 861 q 526 882 555 877 q 468 886 496 886 q 377 871 414 886 q 317 832 340 856 q 285 781 295 809 q 275 729 275 753 q 284 671 275 697 q 311 622 293 646 q 356 574 328 598 q 421 524 384 551 q 496 463 463 493 q 552 402 529 433 q 587 335 575 370 q 599 260 599 300 q 594 204 599 235 q 575 144 589 174 q 539 84 562 113 q 480 33 516 55 q 395 -3 445 10 q 308 -16 357 -14 l 296 -71 q 343 -76 321 -71 q 381 -94 365 -82 q 408 -122 398 -105 q 418 -161 418 -139 z "},"ş":{"ha":549,"x_min":11,"x_max":515,"o":"m 337 -161 q 286 -258 337 -222 q 138 -294 235 -294 q 109 -293 125 -294 q 79 -290 94 -292 l 91 -231 q 142 -235 119 -235 q 230 -218 201 -235 q 258 -172 258 -201 q 238 -135 258 -149 q 177 -121 219 -121 q 158 -121 168 -121 q 140 -123 149 -122 l 163 -16 q 147 -14 155 -15 q 98 -6 123 -12 q 51 7 73 -1 q 11 25 28 15 l 33 131 q 67 112 47 121 q 110 95 87 102 q 159 83 134 87 q 210 78 184 78 q 311 105 277 78 q 345 180 345 132 q 339 213 345 198 q 321 243 334 228 q 288 273 309 258 q 235 307 267 288 q 133 395 165 349 q 100 498 100 441 q 115 579 100 541 q 162 647 131 617 q 239 694 193 676 q 349 711 286 711 q 441 702 397 711 q 515 677 485 692 l 492 572 q 423 604 461 592 q 347 616 385 616 q 249 587 283 616 q 214 510 214 558 q 220 474 214 490 q 239 443 227 458 q 271 415 252 429 q 315 386 290 401 q 425 295 391 342 q 458 191 458 249 q 444 114 458 151 q 397 47 429 76 q 315 1 366 18 q 227 -16 277 -12 l 215 -71 q 262 -76 240 -71 q 301 -94 284 -82 q 327 -122 317 -105 q 337 -161 337 -139 z "},"Ć":{"ha":888,"x_min":93,"x_max":924,"o":"m 899 811 q 853 838 879 824 q 798 862 828 851 q 731 880 767 873 q 653 886 694 886 q 470 850 551 886 q 331 751 388 814 q 243 603 274 688 q 212 419 212 518 q 235 276 212 338 q 298 172 257 214 q 397 108 340 130 q 525 86 455 86 q 606 91 570 86 q 674 105 643 96 q 733 127 705 115 q 786 154 760 140 l 760 35 q 642 -4 705 9 q 501 -17 579 -17 q 333 14 409 -17 q 204 100 258 44 q 122 235 151 156 q 93 410 93 313 q 133 644 93 537 q 248 827 174 750 q 426 946 322 903 q 657 989 530 989 q 811 970 744 989 q 924 928 878 951 l 899 811 m 627 1063 l 543 1063 l 739 1284 l 848 1284 l 627 1063 z "},"ć":{"ha":606,"x_min":53,"x_max":692,"o":"m 586 557 q 517 599 557 582 q 428 616 477 616 q 343 600 381 616 q 277 557 306 584 q 227 494 248 530 q 192 421 205 459 q 172 346 178 383 q 165 275 165 308 q 208 128 165 178 q 325 78 251 78 q 418 97 370 78 q 509 144 466 115 l 485 33 q 397 -4 441 9 q 304 -17 353 -17 q 194 5 241 -17 q 115 64 146 26 q 68 154 84 102 q 53 267 53 206 q 64 379 53 323 q 99 483 76 434 q 155 574 121 532 q 231 647 188 616 q 327 694 274 677 q 441 711 380 711 q 497 707 471 711 q 545 696 524 703 q 584 682 567 690 q 611 667 601 674 l 586 557 m 471 827 l 387 827 l 583 1048 l 692 1048 l 471 827 z "},"Č":{"ha":888,"x_min":93,"x_max":924,"o":"m 899 811 q 853 838 879 824 q 798 862 828 851 q 731 880 767 873 q 653 886 694 886 q 470 850 551 886 q 331 751 388 814 q 243 603 274 688 q 212 419 212 518 q 235 276 212 338 q 298 172 257 214 q 397 108 340 130 q 525 86 455 86 q 606 91 570 86 q 674 105 643 96 q 733 127 705 115 q 786 154 760 140 l 760 35 q 642 -4 705 9 q 501 -17 579 -17 q 333 14 409 -17 q 204 100 258 44 q 122 235 151 156 q 93 410 93 313 q 133 644 93 537 q 248 827 174 750 q 426 946 322 903 q 657 989 530 989 q 811 970 744 989 q 924 928 878 951 l 899 811 m 672 1063 l 581 1063 l 482 1287 l 558 1287 l 636 1131 l 782 1287 l 863 1287 l 672 1063 z "},"č":{"ha":606,"x_min":53,"x_max":688,"o":"m 586 557 q 517 599 557 582 q 428 616 477 616 q 343 600 381 616 q 277 557 306 584 q 227 494 248 530 q 192 421 205 459 q 172 346 178 383 q 165 275 165 308 q 208 128 165 178 q 325 78 251 78 q 418 97 370 78 q 509 144 466 115 l 485 33 q 397 -4 441 9 q 304 -17 353 -17 q 194 5 241 -17 q 115 64 146 26 q 68 154 84 102 q 53 267 53 206 q 64 379 53 323 q 99 483 76 434 q 155 574 121 532 q 231 647 188 616 q 327 694 274 677 q 441 711 380 711 q 497 707 471 711 q 545 696 524 703 q 584 682 567 690 q 611 667 601 674 l 586 557 m 497 827 l 406 827 l 307 1051 l 383 1051 l 461 895 l 607 1051 l 688 1051 l 497 827 z "},"đ":{"ha":753,"x_min":53,"x_max":848,"o":"m 611 214 q 602 161 606 192 q 594 100 597 131 q 588 42 591 69 q 586 0 586 15 l 471 0 q 472 31 471 12 q 476 71 474 50 q 481 112 479 92 q 486 143 484 131 l 484 143 q 435 74 459 104 q 383 23 410 43 q 326 -7 356 3 q 258 -17 295 -17 q 173 0 211 -17 q 108 50 135 17 q 67 131 81 83 q 53 243 53 180 q 63 347 53 293 q 96 454 74 401 q 152 553 118 506 q 233 635 186 600 q 340 691 279 670 q 475 711 400 711 q 545 706 513 711 q 602 696 578 701 l 627 815 l 401 815 l 421 905 l 646 905 l 672 1028 l 782 1028 l 756 905 l 848 905 l 829 815 l 737 815 l 611 214 m 582 600 q 528 612 556 608 q 468 616 500 616 q 364 598 409 616 q 285 549 319 580 q 229 480 252 519 q 192 400 206 441 q 173 319 178 359 q 167 248 167 279 q 173 178 167 210 q 194 125 180 147 q 232 90 209 102 q 288 78 255 78 q 351 92 321 78 q 406 131 380 106 q 453 187 432 155 q 491 255 474 219 q 520 328 508 291 q 539 399 532 365 l 582 600 z "},"¯":{"ha":485,"x_min":163,"x_max":518,"o":"m 163 827 l 174 900 l 518 900 l 507 827 l 163 827 z "},"∙":{"ha":301,"x_min":77,"x_max":228,"o":"m 228 422 q 205 368 228 391 q 151 346 183 346 q 98 368 120 346 q 77 422 77 391 q 98 476 77 454 q 151 498 120 498 q 205 476 183 498 q 228 422 228 454 z "},"Ă":{"ha":878,"x_min":-71,"x_max":798,"o":"m 677 0 l 633 272 l 221 272 l 64 0 l -71 0 l 509 972 l 628 972 l 798 0 l 677 0 m 553 789 q 552 804 552 795 q 551 822 551 813 q 551 840 551 831 q 551 854 551 848 l 549 854 q 543 840 547 848 q 536 822 540 831 q 527 804 532 813 q 519 789 523 795 l 279 375 l 615 375 l 553 789 m 790 1236 q 757 1163 778 1195 q 708 1109 736 1131 q 646 1075 680 1086 q 574 1063 612 1063 q 506 1074 536 1063 q 453 1104 475 1085 q 420 1151 432 1124 q 408 1209 408 1177 q 409 1223 408 1217 q 412 1236 410 1228 l 484 1236 q 482 1227 482 1231 q 482 1217 482 1223 q 508 1154 482 1177 q 576 1131 534 1131 q 663 1157 629 1131 q 715 1236 698 1182 l 790 1236 z "},"ă":{"ha":753,"x_min":53,"x_max":710,"o":"m 614 222 q 603 164 608 197 q 594 101 598 132 q 588 42 591 69 q 586 0 586 15 l 471 0 q 473 33 471 14 q 476 72 474 52 q 481 112 479 92 q 486 146 484 132 l 484 146 q 441 83 463 113 q 393 31 419 54 q 334 -4 366 9 q 257 -17 301 -17 q 174 -1 212 -17 q 109 48 136 16 q 67 129 82 80 q 53 241 53 177 q 61 331 53 281 q 89 433 69 381 q 140 535 108 486 q 220 625 172 585 q 333 688 268 664 q 484 711 398 711 q 595 703 538 711 q 710 684 653 695 l 614 222 m 582 603 q 526 612 558 608 q 467 616 494 616 q 362 598 408 616 q 284 549 317 579 q 228 479 251 519 q 192 399 205 440 q 173 318 178 358 q 167 245 167 278 q 174 176 167 207 q 195 123 180 145 q 232 90 210 102 q 286 78 255 78 q 350 92 320 78 q 405 130 379 106 q 452 184 431 153 q 490 251 473 216 q 518 322 507 286 q 538 392 530 358 l 582 603 m 699 999 q 666 926 686 958 q 617 872 645 895 q 555 838 589 850 q 482 827 521 827 q 414 838 445 827 q 362 868 383 848 q 329 914 340 887 q 317 972 317 941 q 318 986 317 981 q 321 999 319 991 l 392 999 q 391 990 391 994 q 391 981 391 986 q 417 917 391 940 q 485 895 443 895 q 572 920 537 895 q 624 999 606 945 l 699 999 z "},"Ą":{"ha":878,"x_min":-71,"x_max":798,"o":"m 747 0 q 688 -56 712 -32 q 648 -101 663 -81 q 627 -137 633 -121 q 620 -170 620 -154 q 674 -224 620 -224 q 707 -218 690 -224 q 735 -207 724 -212 l 725 -277 q 694 -287 713 -283 q 652 -292 675 -292 q 569 -263 596 -292 q 542 -186 542 -235 q 549 -148 542 -168 q 571 -105 555 -127 q 613 -56 587 -82 q 678 0 639 -30 l 677 0 l 633 272 l 221 272 l 64 0 l -71 0 l 509 972 l 628 972 l 798 0 l 747 0 m 553 789 q 552 804 552 795 q 551 822 551 813 l 551 854 l 549 854 q 543 840 547 848 q 536 822 540 831 q 527 804 532 813 l 519 789 l 279 375 l 615 375 l 553 789 z "},"ą":{"ha":753,"x_min":53,"x_max":710,"o":"m 540 0 q 480 -56 505 -32 q 441 -101 456 -81 q 419 -137 426 -121 q 412 -170 412 -154 q 467 -224 412 -224 q 499 -218 482 -224 q 528 -207 517 -212 l 517 -277 q 486 -287 505 -283 q 444 -292 467 -292 q 361 -263 389 -292 q 334 -186 334 -235 q 341 -148 334 -168 q 363 -105 348 -127 q 405 -56 379 -82 q 471 0 431 -30 q 473 33 471 14 q 476 72 474 52 q 481 112 479 92 q 486 146 484 132 l 484 146 q 441 83 463 113 q 393 31 419 54 q 334 -4 366 9 q 257 -17 301 -17 q 174 -1 212 -17 q 109 48 136 16 q 67 129 82 80 q 53 241 53 177 q 61 331 53 281 q 89 433 69 381 q 140 535 108 486 q 220 625 172 585 q 333 688 268 664 q 484 711 398 711 q 595 703 538 711 q 710 684 653 695 l 614 222 q 603 164 608 197 q 594 101 598 132 q 588 42 591 69 q 586 0 586 15 l 540 0 m 582 603 q 526 612 558 608 q 467 616 494 616 q 362 598 408 616 q 284 549 317 579 q 228 479 251 519 q 192 399 205 440 q 173 318 178 358 q 167 245 167 278 q 174 176 167 207 q 195 123 180 145 q 232 90 210 102 q 286 78 255 78 q 350 92 320 78 q 405 130 379 106 q 452 184 431 153 q 490 251 473 216 q 518 322 507 286 q 538 392 530 358 l 582 603 z "},"Ď":{"ha":989,"x_min":50,"x_max":950,"o":"m 950 579 q 936 436 950 507 q 891 300 921 365 q 813 181 861 236 q 700 86 766 126 q 549 23 634 45 q 358 0 464 0 l 50 0 l 257 972 l 528 972 q 701 946 623 972 q 834 868 779 919 q 920 744 889 817 q 950 579 950 671 m 831 571 q 747 791 831 713 q 500 869 664 869 l 351 869 l 187 103 l 368 103 q 569 140 483 103 q 714 240 656 176 q 801 389 772 304 q 831 571 831 474 m 581 1063 l 490 1063 l 391 1287 l 467 1287 l 545 1131 l 691 1287 l 772 1287 l 581 1063 z "},"ď":{"ha":828,"x_min":53,"x_max":1034,"o":"m 611 214 q 602 161 606 192 q 594 100 597 131 q 588 42 591 69 q 586 0 586 15 l 471 0 q 472 31 471 12 q 476 71 474 50 q 481 112 479 92 q 486 143 484 131 l 484 143 q 435 74 459 104 q 383 23 410 43 q 326 -7 356 3 q 258 -17 295 -17 q 173 0 211 -17 q 108 50 135 17 q 67 131 81 83 q 53 243 53 180 q 63 347 53 293 q 96 454 74 401 q 152 553 118 506 q 233 635 186 600 q 340 691 279 670 q 475 711 400 711 q 545 706 513 711 q 602 696 578 701 l 672 1028 l 782 1028 l 611 214 m 582 600 q 528 612 556 608 q 468 616 500 616 q 364 598 409 616 q 285 549 319 580 q 229 480 252 519 q 192 400 206 441 q 173 319 178 359 q 167 248 167 279 q 173 178 167 210 q 194 125 180 147 q 232 90 209 102 q 288 78 255 78 q 351 92 321 78 q 406 131 380 106 q 453 187 432 155 q 491 255 474 219 q 520 328 508 291 q 539 399 532 365 l 582 600 m 1034 1028 l 884 852 l 801 852 l 918 1028 l 1034 1028 z "},"Đ":{"ha":989,"x_min":32,"x_max":950,"o":"m 950 572 q 935 428 950 499 q 889 293 920 357 q 811 176 859 230 q 697 83 763 122 q 546 22 631 44 q 355 0 460 0 l 50 0 l 144 440 l 32 440 l 52 543 l 165 543 l 257 972 l 522 972 q 698 944 619 972 q 833 864 777 916 q 920 739 889 812 q 950 572 950 665 m 831 564 q 810 692 831 635 q 747 788 789 749 q 644 848 705 827 q 500 869 582 869 l 351 869 l 281 543 l 513 543 l 492 440 l 260 440 l 187 103 l 358 103 q 568 138 479 103 q 715 235 657 173 q 802 381 774 296 q 831 564 831 465 z "},"Ę":{"ha":693,"x_min":50,"x_max":749,"o":"m 471 0 q 412 -56 436 -32 q 372 -101 387 -81 q 351 -137 357 -121 q 344 -170 344 -154 q 398 -224 344 -224 q 431 -218 414 -224 q 459 -207 448 -212 l 449 -277 q 418 -287 437 -283 q 376 -292 399 -292 q 293 -263 320 -292 q 266 -186 266 -235 q 273 -148 266 -168 q 295 -105 279 -127 q 337 -56 311 -82 q 402 0 363 -30 l 50 0 l 256 972 l 749 972 l 726 869 l 351 869 l 281 538 l 628 538 l 606 435 l 258 435 l 187 103 l 586 103 l 566 0 l 471 0 z "},"ę":{"ha":676,"x_min":53,"x_max":650,"o":"m 650 532 q 625 432 650 477 q 545 354 601 387 q 396 304 488 322 q 168 286 304 287 q 167 271 167 279 l 167 257 q 177 188 167 220 q 209 131 187 155 q 263 92 230 106 q 343 78 297 78 q 446 96 390 78 q 553 147 502 114 l 532 37 q 443 -1 494 16 q 370 -15 409 -11 q 328 -56 346 -38 q 288 -101 303 -81 q 267 -137 273 -121 q 260 -170 260 -154 q 314 -224 260 -224 q 347 -218 330 -224 q 375 -207 364 -212 l 365 -277 q 334 -287 353 -283 q 292 -292 315 -292 q 209 -263 236 -292 q 182 -186 182 -235 q 189 -148 182 -168 q 211 -105 195 -127 q 252 -56 227 -82 q 297 -16 271 -37 q 198 7 240 -12 q 114 70 146 31 q 67 162 81 110 q 53 271 53 214 q 66 388 53 332 q 105 494 80 445 q 164 583 130 543 q 241 652 199 623 q 331 696 283 680 q 431 711 379 711 q 525 697 484 711 q 594 658 566 683 q 635 601 621 633 q 650 532 650 568 m 536 526 q 505 593 536 569 q 421 616 473 616 q 341 598 380 616 q 270 549 302 581 q 214 474 237 517 q 179 379 190 430 q 344 389 276 379 q 454 418 412 399 q 517 464 497 437 q 536 526 536 492 z "},"Ě":{"ha":693,"x_min":50,"x_max":750,"o":"m 726 869 l 351 869 l 281 538 l 628 538 l 606 435 l 258 435 l 187 103 l 586 103 l 566 0 l 50 0 l 256 972 l 749 972 l 726 869 m 559 1063 l 468 1063 l 370 1287 l 446 1287 l 524 1131 l 669 1287 l 750 1287 l 559 1063 z "},"ě":{"ha":676,"x_min":53,"x_max":697,"o":"m 650 532 q 625 432 650 477 q 545 354 601 387 q 396 304 488 322 q 168 286 304 287 q 167 271 167 279 q 167 257 167 263 q 177 188 167 220 q 209 131 187 155 q 263 92 230 106 q 343 78 297 78 q 446 96 390 78 q 553 147 502 114 l 532 37 q 443 -1 494 16 q 328 -17 391 -17 q 198 7 251 -17 q 114 70 146 31 q 67 162 81 110 q 53 271 53 214 q 66 388 53 332 q 105 494 80 445 q 164 583 130 543 q 241 652 199 623 q 331 696 283 680 q 431 711 379 711 q 525 697 484 711 q 594 658 566 683 q 635 601 621 633 q 650 532 650 568 m 536 526 q 505 593 536 569 q 421 616 473 616 q 341 598 380 616 q 270 549 302 581 q 214 474 237 517 q 179 379 190 430 q 344 389 276 379 q 454 418 412 399 q 517 464 497 437 q 536 526 536 492 m 507 827 l 415 827 l 317 1051 l 393 1051 l 471 895 l 616 1051 l 697 1051 l 507 827 z "},"Ĺ":{"ha":643,"x_min":50,"x_max":755,"o":"m 554 0 l 50 0 l 256 972 l 374 972 l 189 106 l 576 106 l 554 0 m 534 1063 l 450 1063 l 646 1284 l 755 1284 l 534 1063 z "},"ĺ":{"ha":359,"x_min":65,"x_max":538,"o":"m 282 3 q 244 -6 265 -3 q 201 -9 222 -9 q 99 25 133 -9 q 65 117 65 59 q 68 157 65 134 q 79 214 72 180 l 253 1029 l 366 1029 l 191 211 q 183 167 185 182 q 180 140 180 151 q 196 98 180 113 q 244 83 211 83 q 275 85 262 83 q 300 92 288 87 l 282 3 m 317 1120 l 233 1120 l 429 1342 l 538 1342 l 317 1120 z "},"Ľ":{"ha":654,"x_min":50,"x_max":742,"o":"m 554 0 l 50 0 l 256 972 l 374 972 l 189 106 l 576 106 l 554 0 m 742 972 l 592 796 l 509 796 l 625 972 l 742 972 z "},"ľ":{"ha":410,"x_min":65,"x_max":623,"o":"m 282 3 q 244 -6 265 -3 q 201 -9 222 -9 q 99 25 133 -9 q 65 117 65 59 q 68 157 65 134 q 79 214 72 180 l 253 1029 l 366 1029 l 191 211 q 183 167 185 182 q 180 140 180 151 q 196 98 180 113 q 244 83 211 83 q 275 85 262 83 q 300 92 288 87 l 282 3 m 623 1028 l 473 852 l 389 852 l 506 1028 l 623 1028 z "},"Ŀ":{"ha":654,"x_min":50,"x_max":606,"o":"m 554 0 l 50 0 l 256 972 l 374 972 l 189 106 l 576 106 l 554 0 m 606 509 q 587 461 606 481 q 540 441 568 441 q 515 447 527 441 q 494 461 503 452 q 480 483 486 470 q 475 509 475 495 q 480 535 475 524 q 494 556 486 547 q 515 569 503 564 q 540 574 527 574 q 565 569 553 574 q 586 556 577 564 q 601 535 595 547 q 606 509 606 524 z "},"ŀ":{"ha":437,"x_min":65,"x_max":480,"o":"m 282 3 q 244 -6 265 -3 q 201 -9 222 -9 q 99 25 133 -9 q 65 117 65 59 q 68 157 65 134 q 79 214 72 180 l 253 1029 l 366 1029 l 191 211 q 183 167 185 182 q 180 140 180 151 q 196 98 180 113 q 244 83 211 83 q 275 85 262 83 q 300 92 288 87 l 282 3 m 480 509 q 461 461 480 481 q 414 441 442 441 q 389 447 401 441 q 368 461 377 452 q 354 483 359 470 q 349 509 349 495 q 354 535 349 524 q 368 556 359 547 q 389 569 377 564 q 414 574 401 574 q 439 569 427 574 q 460 556 451 564 q 475 535 469 547 q 480 509 480 524 z "},"Ń":{"ha":1043,"x_min":50,"x_max":1048,"o":"m 842 0 l 715 0 l 357 779 q 352 792 355 785 q 347 809 349 800 q 342 826 344 818 q 339 839 340 834 l 335 839 q 333 822 334 832 q 331 802 332 812 q 328 782 330 792 q 325 765 326 772 l 163 0 l 50 0 l 256 972 l 392 972 l 736 210 q 743 195 739 203 q 749 177 746 186 q 756 159 753 168 q 761 144 759 151 l 764 144 q 766 163 764 153 q 768 186 767 174 q 772 210 770 198 q 775 229 774 221 l 933 972 l 1048 972 l 842 0 m 635 1063 l 552 1063 l 748 1284 l 857 1284 l 635 1063 z "},"ń":{"ha":781,"x_min":39,"x_max":747,"o":"m 709 521 q 707 493 709 511 q 701 455 705 475 q 693 415 697 435 q 686 380 690 395 l 606 0 l 493 0 l 578 407 q 583 432 581 418 q 588 460 586 446 q 591 487 590 475 q 593 505 593 498 q 568 587 593 557 q 494 616 543 616 q 406 590 450 616 q 324 523 361 564 q 260 433 287 482 q 224 339 233 385 l 151 0 l 39 0 l 146 496 q 157 551 151 522 q 167 607 162 580 q 175 656 172 633 q 180 694 178 680 l 289 694 q 281 639 286 668 q 273 586 276 610 q 264 530 269 557 l 267 530 q 319 601 290 568 q 381 658 348 633 q 453 697 415 683 q 532 711 490 711 q 611 697 578 711 q 666 659 644 684 q 699 598 688 633 q 709 521 709 563 m 526 827 l 442 827 l 638 1048 l 747 1048 l 526 827 z "},"Ň":{"ha":1043,"x_min":50,"x_max":1048,"o":"m 842 0 l 715 0 l 357 779 q 352 792 355 785 q 347 809 349 800 q 342 826 344 818 q 339 839 340 834 l 335 839 q 333 822 334 832 q 331 802 332 812 q 328 782 330 792 q 325 765 326 772 l 163 0 l 50 0 l 256 972 l 392 972 l 736 210 q 743 195 739 203 q 749 177 746 186 q 756 159 753 168 q 761 144 759 151 l 764 144 q 766 163 764 153 q 768 186 767 174 q 772 210 770 198 q 775 229 774 221 l 933 972 l 1048 972 l 842 0 m 699 1063 l 608 1063 l 509 1287 l 585 1287 l 663 1131 l 809 1287 l 890 1287 l 699 1063 z "},"ň":{"ha":781,"x_min":39,"x_max":722,"o":"m 709 521 q 707 493 709 511 q 701 455 705 475 q 693 415 697 435 q 686 380 690 395 l 606 0 l 493 0 l 578 407 q 583 432 581 418 q 588 460 586 446 q 591 487 590 475 q 593 505 593 498 q 568 587 593 557 q 494 616 543 616 q 406 590 450 616 q 324 523 361 564 q 260 433 287 482 q 224 339 233 385 l 151 0 l 39 0 l 146 496 q 157 551 151 522 q 167 607 162 580 q 175 656 172 633 q 180 694 178 680 l 289 694 q 281 639 286 668 q 273 586 276 610 q 264 530 269 557 l 267 530 q 319 601 290 568 q 381 658 348 633 q 453 697 415 683 q 532 711 490 711 q 611 697 578 711 q 666 659 644 684 q 699 598 688 633 q 709 521 709 563 m 532 827 l 440 827 l 342 1051 l 418 1051 l 496 895 l 642 1051 l 722 1051 l 532 827 z "},"Ő":{"ha":1047,"x_min":93,"x_max":1008,"o":"m 1008 578 q 997 453 1008 515 q 964 333 985 391 q 910 224 942 275 q 839 131 879 172 q 768 70 806 97 q 687 23 730 42 q 594 -7 644 3 q 488 -17 545 -17 q 323 15 396 -17 q 198 101 250 46 q 120 233 147 157 q 93 397 93 309 q 139 650 93 538 q 267 844 184 762 q 420 950 333 911 q 618 989 507 989 q 780 958 707 989 q 903 873 852 928 q 981 743 954 818 q 1008 578 1008 667 m 888 574 q 868 704 888 646 q 812 802 848 762 q 724 865 775 843 q 608 886 672 886 q 465 854 533 886 q 343 764 396 821 q 289 689 313 731 q 248 600 265 647 q 221 500 231 552 q 212 396 212 449 q 231 271 212 328 q 285 173 250 214 q 373 109 321 132 q 493 86 425 86 q 637 116 568 86 q 758 205 706 146 q 815 287 791 242 q 855 381 839 332 q 880 479 871 429 q 888 574 888 528 m 706 1063 l 637 1063 l 804 1284 l 901 1284 l 706 1063 m 532 1063 l 463 1063 l 632 1284 l 724 1284 l 532 1063 z "},"ő":{"ha":743,"x_min":53,"x_max":743,"o":"m 690 437 q 664 262 690 345 q 589 118 638 180 q 470 19 540 56 q 311 -17 399 -17 q 204 2 252 -17 q 122 57 156 21 q 71 143 89 92 q 53 257 53 193 q 80 436 53 353 q 158 580 108 519 q 277 676 208 642 q 431 711 347 711 q 537 692 490 711 q 619 638 585 673 q 672 552 653 602 q 690 437 690 501 m 576 432 q 566 510 576 476 q 535 568 555 545 q 488 604 515 591 q 425 616 460 616 q 317 586 366 616 q 236 506 269 555 q 185 392 203 456 q 167 262 167 329 q 177 186 167 220 q 207 128 188 152 q 255 91 227 104 q 318 78 283 78 q 427 108 378 78 q 508 188 475 138 q 559 302 541 238 q 576 432 576 366 m 548 827 l 479 827 l 646 1047 l 743 1047 l 548 827 m 374 827 l 305 827 l 474 1047 l 566 1047 l 374 827 z "},"Ŕ":{"ha":808,"x_min":50,"x_max":793,"o":"m 793 732 q 771 618 793 669 q 710 530 749 567 q 618 472 671 494 q 501 444 564 450 l 501 441 q 557 399 533 431 q 596 311 581 366 l 677 0 l 553 0 l 481 290 q 431 384 465 354 q 340 414 397 414 l 256 414 l 167 0 l 50 0 l 256 972 l 524 972 q 646 954 595 972 q 729 902 696 935 q 777 825 762 869 q 793 732 793 781 m 673 720 q 663 780 673 752 q 632 827 653 807 q 578 858 611 847 q 501 869 546 869 l 351 869 l 277 517 l 411 517 q 532 534 482 517 q 613 578 582 551 q 659 643 645 606 q 673 720 673 680 m 514 1063 l 431 1063 l 627 1284 l 736 1284 l 514 1063 z "},"ŕ":{"ha":493,"x_min":35,"x_max":612,"o":"m 519 576 l 517 576 q 481 592 503 585 q 437 600 459 600 q 362 575 398 600 q 297 508 326 549 q 245 412 267 466 q 211 302 223 359 l 146 0 l 35 0 l 132 461 q 144 521 138 490 q 156 583 151 552 q 165 643 161 614 q 171 694 169 671 l 281 694 q 276 651 279 674 q 271 607 273 629 q 265 569 268 586 q 261 542 262 551 l 264 542 q 308 612 286 581 q 355 665 330 643 q 408 699 380 687 q 468 711 435 711 q 506 708 487 711 q 539 700 524 704 l 519 576 m 390 827 l 307 827 l 503 1048 l 612 1048 l 390 827 z "},"Ř":{"ha":808,"x_min":50,"x_max":793,"o":"m 793 732 q 771 618 793 669 q 710 530 749 567 q 618 472 671 494 q 501 444 564 450 l 501 441 q 557 399 533 431 q 596 311 581 366 l 677 0 l 553 0 l 481 290 q 431 384 465 354 q 340 414 397 414 l 256 414 l 167 0 l 50 0 l 256 972 l 524 972 q 646 954 595 972 q 729 902 696 935 q 777 825 762 869 q 793 732 793 781 m 673 720 q 663 780 673 752 q 632 827 653 807 q 578 858 611 847 q 501 869 546 869 l 351 869 l 277 517 l 411 517 q 532 534 482 517 q 613 578 582 551 q 659 643 645 606 q 673 720 673 680 m 544 1063 l 452 1063 l 354 1287 l 430 1287 l 508 1131 l 654 1287 l 734 1287 l 544 1063 z "},"ř":{"ha":493,"x_min":35,"x_max":591,"o":"m 519 576 l 517 576 q 481 592 503 585 q 437 600 459 600 q 362 575 398 600 q 297 508 326 549 q 245 412 267 466 q 211 302 223 359 l 146 0 l 35 0 l 132 461 q 144 521 138 490 q 156 583 151 552 q 165 643 161 614 q 171 694 169 671 l 281 694 q 276 651 279 674 q 271 607 273 629 q 265 569 268 586 q 261 542 262 551 l 264 542 q 308 612 286 581 q 355 665 330 643 q 408 699 380 687 q 468 711 435 711 q 506 708 487 711 q 539 700 524 704 l 519 576 m 401 827 l 309 827 l 211 1051 l 287 1051 l 365 895 l 511 1051 l 591 1051 l 401 827 z "},"Ś":{"ha":690,"x_min":25,"x_max":714,"o":"m 672 827 q 632 850 655 839 q 582 869 608 861 q 526 882 555 877 q 468 886 496 886 q 377 871 414 886 q 317 832 340 856 q 285 781 295 809 q 275 729 275 753 q 284 671 275 697 q 311 622 293 646 q 356 574 328 598 q 421 524 384 551 q 496 463 463 493 q 552 402 529 433 q 587 335 575 370 q 599 260 599 300 q 594 204 599 235 q 575 144 589 174 q 539 84 562 113 q 480 33 516 55 q 395 -3 445 10 q 277 -17 345 -17 q 202 -12 239 -17 q 133 3 165 -6 q 72 23 100 12 q 25 45 45 34 l 45 163 q 94 133 66 147 q 153 109 122 119 q 218 92 184 98 q 283 86 251 86 q 372 98 335 86 q 433 132 409 111 q 468 182 457 153 q 479 245 479 212 q 470 300 479 276 q 441 348 460 325 q 391 396 421 372 q 319 449 361 420 q 256 500 286 473 q 203 560 226 528 q 167 631 180 593 q 154 714 154 669 q 175 820 154 770 q 236 907 195 869 q 337 967 277 945 q 476 989 397 989 q 537 985 507 989 q 595 975 567 981 q 649 961 624 968 q 694 945 675 953 l 672 827 m 492 1062 l 409 1062 l 605 1284 l 714 1284 l 492 1062 z "},"ś":{"ha":549,"x_min":11,"x_max":614,"o":"m 492 572 q 423 604 461 592 q 347 616 385 616 q 249 587 283 616 q 214 510 214 558 q 220 474 214 490 q 239 443 227 458 q 271 415 252 429 q 315 386 290 401 q 425 295 391 342 q 458 191 458 249 q 444 114 458 151 q 397 47 429 76 q 315 1 366 18 q 192 -17 264 -17 q 147 -14 172 -17 q 98 -6 123 -12 q 51 7 73 -1 q 11 25 28 15 l 33 131 q 67 112 47 121 q 110 95 87 102 q 159 83 134 87 q 210 78 184 78 q 311 105 277 78 q 345 180 345 132 q 339 213 345 198 q 321 243 334 228 q 288 273 309 258 q 235 307 267 288 q 133 395 165 349 q 100 498 100 441 q 115 579 100 541 q 162 647 131 617 q 239 694 193 676 q 349 711 286 711 q 441 702 397 711 q 515 677 485 692 l 492 572 m 392 827 l 309 827 l 505 1048 l 614 1048 l 392 827 z "},"Ţ":{"ha":730,"x_min":132,"x_max":829,"o":"m 416 -161 q 366 -258 416 -222 q 218 -294 315 -294 q 189 -293 204 -294 q 158 -290 173 -292 l 170 -231 q 222 -235 198 -235 q 309 -218 281 -235 q 337 -172 337 -201 q 318 -135 337 -149 q 256 -121 298 -121 q 238 -121 247 -121 q 219 -123 229 -122 l 245 0 l 231 0 l 415 869 l 132 869 l 154 972 l 829 972 l 807 869 l 530 869 l 347 0 l 311 0 l 294 -71 q 341 -76 319 -71 q 380 -94 363 -82 q 407 -122 397 -105 q 416 -161 416 -139 z "},"ţ":{"ha":449,"x_min":66,"x_max":489,"o":"m 336 -161 q 285 -258 336 -222 q 137 -294 234 -294 q 108 -293 123 -294 q 77 -290 92 -292 l 90 -231 q 141 -235 117 -235 q 228 -218 200 -235 q 256 -172 256 -201 q 237 -135 256 -149 q 176 -121 218 -121 q 157 -121 166 -121 q 138 -123 148 -122 l 164 -2 q 121 26 138 8 q 97 70 104 44 q 89 129 89 96 q 93 175 89 149 q 102 222 96 201 l 182 600 l 66 600 l 87 694 l 201 694 l 237 864 q 258 870 240 865 q 297 882 276 876 q 337 894 319 888 q 357 900 355 899 l 314 694 l 489 694 l 468 600 l 293 600 l 215 232 q 207 186 211 211 q 203 147 203 162 q 218 97 203 113 q 267 82 233 82 q 288 85 275 82 q 314 92 300 87 q 341 101 328 96 q 364 110 354 106 l 343 12 q 289 -5 319 2 q 232 -12 259 -12 l 227 -12 l 214 -71 q 261 -76 239 -71 q 299 -94 283 -82 q 326 -122 316 -105 q 336 -161 336 -139 z "},"Ť":{"ha":730,"x_min":132,"x_max":829,"o":"m 807 869 l 530 869 l 347 0 l 231 0 l 415 869 l 132 869 l 154 972 l 829 972 l 807 869 m 550 1063 l 458 1063 l 360 1287 l 436 1287 l 514 1131 l 660 1287 l 741 1287 l 550 1063 z "},"ť":{"ha":505,"x_min":66,"x_max":711,"o":"m 468 600 l 293 600 l 215 232 q 207 186 211 211 q 203 147 203 162 q 218 97 203 113 q 267 82 233 82 q 288 85 275 82 q 314 92 300 87 q 341 101 328 96 q 364 110 354 106 l 343 12 q 289 -5 319 2 q 232 -12 259 -12 q 166 -2 193 -12 q 122 26 139 7 q 97 70 104 44 q 89 129 89 96 q 93 175 89 149 q 102 222 96 201 l 182 600 l 66 600 l 87 694 l 201 694 l 237 864 q 258 870 240 865 q 297 882 276 876 q 337 894 319 888 q 357 900 355 899 l 314 694 l 489 694 l 468 600 m 711 1028 l 562 852 l 478 852 l 595 1028 l 711 1028 z "},"Ů":{"ha":957,"x_min":114,"x_max":972,"o":"m 846 382 q 794 213 825 287 q 715 87 764 138 q 597 10 667 37 q 429 -17 527 -17 q 295 7 354 -17 q 196 72 236 31 q 135 170 156 113 q 114 292 114 226 q 118 357 114 321 q 127 427 121 394 l 245 972 l 363 972 l 245 433 q 240 399 243 418 q 234 363 237 381 q 231 328 232 345 q 229 300 229 312 q 245 205 229 245 q 291 139 262 165 q 358 99 319 113 q 443 86 397 86 q 546 102 500 86 q 626 153 591 119 q 685 241 661 188 q 726 370 710 295 l 856 972 l 972 972 l 846 382 m 764 1197 q 753 1144 764 1168 q 724 1101 743 1120 q 679 1073 705 1083 q 624 1063 653 1063 q 570 1072 595 1063 q 526 1098 545 1081 q 497 1139 507 1115 q 486 1192 486 1162 q 497 1248 486 1223 q 528 1290 509 1273 q 573 1317 547 1308 q 628 1326 599 1326 q 684 1317 659 1326 q 727 1290 709 1308 q 754 1249 745 1273 q 764 1197 764 1225 m 702 1196 q 696 1226 702 1213 q 679 1250 690 1240 q 654 1265 669 1260 q 624 1271 640 1271 q 569 1250 591 1271 q 548 1196 548 1228 q 570 1138 548 1159 q 624 1118 591 1118 q 655 1124 641 1118 q 680 1141 669 1130 q 696 1165 690 1152 q 702 1196 702 1179 z "},"ů":{"ha":775,"x_min":66,"x_max":737,"o":"m 631 197 q 620 142 625 171 q 610 87 614 114 q 602 38 605 61 q 596 0 598 15 l 488 0 q 495 55 491 26 q 504 109 500 84 q 513 164 509 137 l 510 164 q 457 94 486 127 q 395 36 429 61 q 324 -3 361 12 q 245 -17 286 -17 q 167 -3 201 -17 q 111 36 134 11 q 78 96 89 61 q 66 175 66 132 q 69 201 66 184 q 75 239 72 219 q 83 280 79 260 q 90 314 87 300 l 171 694 l 283 694 l 197 288 q 192 262 195 277 q 187 234 189 248 q 183 208 184 220 q 182 189 182 196 q 207 108 182 138 q 281 78 231 78 q 340 90 311 78 q 398 123 370 102 q 452 171 427 144 q 497 230 477 199 q 532 293 517 260 q 553 355 546 326 l 625 694 l 737 694 l 631 197 m 623 932 q 612 879 623 903 q 583 836 602 854 q 538 808 564 818 q 483 798 512 798 q 429 807 454 798 q 385 833 404 816 q 356 873 366 850 q 345 926 345 897 q 356 983 345 958 q 387 1025 368 1008 q 432 1052 406 1042 q 487 1061 458 1061 q 543 1052 517 1061 q 586 1025 568 1042 q 613 984 604 1008 q 623 932 623 960 m 561 930 q 555 961 561 947 q 538 985 549 975 q 513 1000 528 995 q 483 1006 499 1006 q 428 984 450 1006 q 407 930 407 963 q 429 873 407 894 q 483 852 450 852 q 514 859 500 852 q 539 876 528 865 q 555 900 549 886 q 561 930 561 914 z "},"Ű":{"ha":957,"x_min":114,"x_max":972,"o":"m 846 382 q 794 213 825 287 q 715 87 764 138 q 597 10 667 37 q 429 -17 527 -17 q 295 7 354 -17 q 196 72 236 31 q 135 170 156 113 q 114 292 114 226 q 118 357 114 321 q 127 427 121 394 l 245 972 l 363 972 l 245 433 q 240 399 243 418 q 234 363 237 381 q 231 328 232 345 q 229 300 229 312 q 245 205 229 245 q 291 139 262 165 q 358 99 319 113 q 443 86 397 86 q 546 102 500 86 q 626 153 591 119 q 685 241 661 188 q 726 370 710 295 l 856 972 l 972 972 l 846 382 m 678 1063 l 609 1063 l 777 1283 l 873 1283 l 678 1063 m 505 1063 l 435 1063 l 604 1283 l 696 1283 l 505 1063 z "},"ű":{"ha":775,"x_min":66,"x_max":749,"o":"m 631 197 q 620 142 625 171 q 610 87 614 114 q 602 38 605 61 q 596 0 598 15 l 488 0 q 495 55 491 26 q 504 109 500 84 q 513 164 509 137 l 510 164 q 457 94 486 127 q 395 36 429 61 q 324 -3 361 12 q 245 -17 286 -17 q 167 -3 201 -17 q 111 36 134 11 q 78 96 89 61 q 66 175 66 132 q 69 201 66 184 q 75 239 72 219 q 83 280 79 260 q 90 314 87 300 l 171 694 l 283 694 l 197 288 q 192 262 195 277 q 187 234 189 248 q 183 208 184 220 q 182 189 182 196 q 207 108 182 138 q 281 78 231 78 q 340 90 311 78 q 398 123 370 102 q 452 171 427 144 q 497 230 477 199 q 532 293 517 260 q 553 355 546 326 l 625 694 l 737 694 l 631 197 m 555 827 l 486 827 l 653 1047 l 749 1047 l 555 827 m 381 827 l 312 827 l 481 1047 l 573 1047 l 381 827 z "},"Ź":{"ha":791,"x_min":-53,"x_max":895,"o":"m 888 943 l 154 103 l 696 103 l 673 0 l -53 0 l -46 35 l 682 869 l 178 869 l 199 972 l 895 972 l 888 943 m 542 1063 l 458 1063 l 654 1285 l 764 1285 l 542 1063 z "},"ź":{"ha":628,"x_min":-53,"x_max":672,"o":"m 665 661 l 144 94 l 539 94 l 518 0 l -53 0 l -45 36 l 476 600 l 114 600 l 135 694 l 672 694 l 665 661 m 418 827 l 334 827 l 530 1048 l 640 1048 l 418 827 z "},"Ż":{"ha":791,"x_min":-53,"x_max":895,"o":"m 888 943 l 154 103 l 696 103 l 673 0 l -53 0 l -46 35 l 682 869 l 178 869 l 199 972 l 895 972 l 888 943 m 616 1130 q 597 1082 616 1101 q 550 1062 578 1062 q 525 1067 537 1062 q 505 1081 513 1072 q 490 1103 496 1090 q 485 1130 485 1116 q 490 1156 485 1144 q 505 1176 496 1168 q 525 1190 513 1185 q 550 1195 537 1195 q 575 1190 564 1195 q 596 1176 587 1185 q 611 1156 606 1168 q 616 1130 616 1144 z "},"ż":{"ha":628,"x_min":-53,"x_max":672,"o":"m 665 661 l 144 94 l 539 94 l 518 0 l -53 0 l -45 36 l 476 600 l 114 600 l 135 694 l 672 694 l 665 661 m 486 895 q 467 846 486 866 q 419 827 448 827 q 394 832 406 827 q 374 846 382 837 q 359 868 365 855 q 354 895 354 880 q 359 921 354 909 q 374 941 365 932 q 394 955 382 949 q 419 960 406 960 q 445 955 433 960 q 466 941 456 949 q 480 921 475 932 q 486 895 486 909 z "},"Γ":{"ha":656,"x_min":50,"x_max":761,"o":"m 739 867 l 351 867 l 166 0 l 50 0 l 256 972 l 761 972 l 739 867 z "},"Θ":{"ha":1047,"x_min":93,"x_max":1008,"o":"m 1008 578 q 997 453 1008 515 q 964 333 985 391 q 910 224 942 275 q 839 131 879 172 q 768 70 806 97 q 687 23 730 42 q 594 -7 644 3 q 488 -17 545 -17 q 323 15 396 -17 q 198 101 250 46 q 120 233 147 157 q 93 397 93 309 q 139 650 93 538 q 267 844 184 762 q 420 950 333 911 q 618 989 507 989 q 780 958 707 989 q 903 873 852 928 q 981 743 954 818 q 1008 578 1008 667 m 888 574 q 868 704 888 646 q 812 802 848 762 q 724 865 775 843 q 608 886 672 886 q 465 854 533 886 q 343 764 396 821 q 289 689 313 731 q 248 600 265 647 q 221 500 231 552 q 212 396 212 449 q 231 271 212 328 q 285 173 250 214 q 373 109 321 132 q 493 86 425 86 q 637 116 568 86 q 758 205 706 146 q 815 287 791 242 q 855 381 839 332 q 880 479 871 429 q 888 574 888 528 m 721 432 l 356 432 l 378 538 l 743 538 l 721 432 z "},"Φ":{"ha":1047,"x_min":50,"x_max":1029,"o":"m 1029 559 q 1017 452 1029 505 q 980 351 1004 399 q 920 263 956 303 q 836 193 884 222 q 728 147 788 163 q 597 130 669 130 l 517 130 l 487 -13 l 374 -13 l 405 130 l 362 130 q 233 152 291 130 q 135 214 176 173 q 72 313 94 254 q 50 444 50 371 q 77 606 50 528 q 159 744 104 684 q 295 841 214 804 q 484 878 376 878 l 565 878 l 587 984 l 698 984 l 675 878 l 718 878 q 845 856 788 878 q 943 793 903 834 q 1006 693 984 752 q 1029 559 1029 634 m 912 555 q 897 654 912 611 q 853 725 882 696 q 785 768 825 753 q 695 783 745 783 l 655 783 l 537 223 l 597 223 q 731 249 672 223 q 830 320 790 275 q 891 426 870 366 q 912 555 912 486 m 483 783 q 349 757 408 783 q 250 686 290 731 q 189 581 210 642 q 168 452 168 521 q 183 353 168 395 q 227 281 198 310 q 295 238 255 252 q 385 223 335 223 l 425 223 l 543 783 l 483 783 z "},"α":{"ha":869,"x_min":53,"x_max":872,"o":"m 872 694 q 846 648 862 675 q 812 587 831 620 q 772 519 793 554 q 733 451 752 484 q 696 390 713 418 q 668 342 680 362 q 679 228 672 275 q 694 152 685 181 q 718 110 704 123 q 750 97 731 97 q 769 98 758 97 q 789 103 781 100 l 760 -1 q 737 -7 749 -5 q 708 -9 725 -9 q 658 2 680 -9 q 620 41 635 14 q 594 111 604 67 q 582 217 585 154 l 581 217 q 440 40 516 98 q 269 -18 365 -18 q 179 -1 220 -18 q 111 49 139 16 q 68 130 83 82 q 53 241 53 178 q 67 364 53 304 q 107 476 81 424 q 169 572 133 529 q 248 646 205 615 q 340 694 291 677 q 440 711 389 711 q 525 693 490 711 q 584 644 560 675 q 622 572 608 612 q 642 486 635 531 l 643 486 q 669 534 654 507 q 698 589 683 561 q 727 645 713 618 q 751 694 741 673 l 872 694 l 872 694 m 440 621 q 336 589 385 621 q 250 505 288 557 q 191 385 213 452 q 170 243 170 317 q 178 176 170 206 q 200 124 186 146 q 236 91 215 102 q 284 79 258 79 q 411 129 348 79 q 534 288 473 180 q 545 306 538 295 q 557 328 551 317 q 571 354 564 340 q 561 454 568 406 q 538 539 553 502 q 499 598 523 576 q 440 621 475 621 z "},"δ":{"ha":811,"x_min":50,"x_max":823,"o":"m 800 881 q 750 908 777 896 q 693 928 722 920 q 635 941 665 937 q 579 945 606 945 q 446 916 493 945 q 398 836 398 887 q 411 781 398 806 q 445 733 423 756 q 497 686 467 709 q 561 637 526 663 q 639 570 605 605 q 696 497 673 536 q 731 416 720 459 q 743 325 743 374 q 721 189 743 252 q 651 80 698 126 q 532 9 604 35 q 361 -17 460 -17 q 232 3 290 -17 q 134 61 174 23 q 72 152 94 98 q 50 271 50 205 q 66 378 50 330 q 109 463 82 425 q 170 528 135 500 q 244 577 205 556 q 322 611 282 597 q 397 635 361 625 q 354 676 374 654 q 317 724 333 699 q 293 779 302 750 q 283 838 283 807 q 309 934 283 895 q 378 997 335 973 q 477 1030 421 1020 q 591 1040 532 1040 q 720 1027 659 1040 q 823 993 781 1014 l 800 881 m 469 574 q 354 536 409 559 q 257 478 299 513 q 190 393 215 444 q 165 273 165 343 q 179 192 165 229 q 217 131 192 156 q 279 92 242 105 q 363 78 315 78 q 472 94 423 78 q 555 140 521 110 q 609 216 590 171 q 628 319 628 261 q 615 403 628 366 q 579 471 602 440 q 529 527 557 501 q 469 574 500 552 z "},"ε":{"ha":635,"x_min":25,"x_max":622,"o":"m 602 566 q 563 586 585 577 q 514 603 540 595 q 463 613 489 610 q 415 617 437 617 q 348 611 380 617 q 289 593 315 606 q 249 559 264 580 q 233 509 233 538 q 249 456 233 476 q 289 424 264 435 q 344 407 314 412 q 403 403 374 403 q 424 403 410 403 q 453 403 438 403 q 481 404 468 404 q 501 406 494 405 l 485 311 q 453 313 480 313 q 389 314 427 314 q 289 307 334 314 q 211 285 243 300 q 159 244 178 269 q 141 182 141 219 q 150 139 141 159 q 179 106 159 120 q 230 85 199 92 q 305 77 261 77 q 429 94 366 77 q 548 139 492 111 l 523 25 q 421 -5 481 7 q 292 -17 361 -17 q 172 -3 222 -17 q 89 37 122 12 q 41 97 56 62 q 25 172 25 132 q 46 255 25 221 q 100 312 67 290 q 171 347 132 335 q 247 364 210 359 l 248 367 q 200 385 223 373 q 158 415 176 397 q 130 457 140 433 q 119 511 119 481 q 145 605 119 566 q 212 667 170 643 q 308 701 254 690 q 419 711 362 711 q 538 701 485 711 q 622 672 591 690 l 602 566 z "},"σ":{"ha":794,"x_min":53,"x_max":860,"o":"m 840 605 l 675 605 q 696 524 688 570 q 704 425 704 477 q 680 250 704 331 q 608 110 656 169 q 491 17 561 50 q 330 -17 422 -17 q 213 3 264 -17 q 126 60 161 23 q 72 148 90 96 q 53 264 53 200 q 84 448 53 368 q 172 583 115 528 q 311 666 229 637 q 494 694 393 694 l 860 694 l 840 605 m 590 428 q 585 523 590 476 q 568 604 580 570 l 488 604 q 362 583 421 604 q 261 521 304 563 q 193 414 218 479 q 168 262 168 350 q 180 185 168 219 q 215 126 193 151 q 270 90 238 102 q 340 77 302 77 q 427 93 389 77 q 492 135 465 109 q 538 196 519 161 q 569 270 557 231 q 585 350 580 309 q 590 428 590 391 z "},"τ":{"ha":679,"x_min":43,"x_max":727,"o":"m 706 600 l 430 600 l 348 211 q 344 193 346 203 q 341 172 342 182 q 338 154 339 162 q 337 140 337 145 q 343 111 337 122 q 359 94 349 100 q 379 85 368 87 q 401 83 391 83 q 432 85 418 83 q 456 92 445 87 l 438 3 q 400 -6 421 -3 q 357 -9 378 -9 q 296 0 322 -9 q 254 26 271 9 q 230 66 237 43 q 222 117 222 89 q 223 140 222 127 q 227 166 224 153 q 231 192 229 180 q 235 214 233 205 l 317 600 l 220 600 q 173 596 197 600 q 125 585 149 591 q 81 569 102 578 q 43 551 60 560 l 66 658 q 141 683 96 672 q 248 694 186 694 l 727 694 l 706 600 z "},"φ":{"ha":1013,"x_min":53,"x_max":960,"o":"m 960 441 q 942 293 960 359 q 890 175 923 227 q 813 88 857 124 q 719 28 769 52 q 613 -6 668 5 q 505 -17 559 -17 l 484 -17 l 419 -326 l 307 -326 l 372 -17 l 353 -17 q 232 1 288 -17 q 137 55 177 20 q 75 144 97 91 q 53 265 53 197 q 70 395 53 334 q 115 509 86 456 q 182 609 143 563 q 264 694 220 656 l 397 694 q 306 605 348 653 q 233 503 264 556 q 186 391 203 449 q 169 271 169 332 q 188 173 169 211 q 238 113 208 134 q 306 82 268 91 q 380 74 343 74 l 391 74 l 481 497 q 512 588 492 548 q 561 655 531 628 q 630 697 590 683 q 723 711 670 711 q 821 692 777 711 q 896 636 865 672 q 944 551 927 601 q 960 441 960 502 m 844 437 q 809 572 844 524 q 717 621 774 621 q 637 592 667 621 q 595 503 608 564 l 504 74 l 522 74 q 637 94 580 74 q 741 158 695 115 q 815 271 787 202 q 844 437 844 340 z "},"‗":{"ha":576,"x_min":0,"x_max":576,"o":"m 0 -188 l 0 -107 l 576 -107 l 576 -188 l 0 -188 m 0 -349 l 0 -268 l 576 -268 l 576 -349 l 0 -349 z "},"‼":{"ha":667,"x_min":90,"x_max":682,"o":"m 249 273 l 157 273 l 293 972 l 410 972 l 249 273 m 240 62 q 234 33 240 47 q 218 9 228 20 q 194 -6 208 -1 q 165 -12 180 -12 q 136 -6 150 -12 q 112 9 122 -1 q 96 33 102 20 q 90 62 90 47 q 96 92 90 78 q 112 116 102 106 q 136 132 122 126 q 165 138 150 138 q 194 132 180 138 q 218 116 208 126 q 234 92 228 106 q 240 62 240 78 m 522 273 l 429 273 l 566 972 l 682 972 l 522 273 m 513 62 q 507 33 513 47 q 490 9 500 20 q 467 -6 480 -1 q 438 -12 453 -12 q 409 -6 422 -12 q 385 9 395 -1 q 369 33 374 20 q 363 62 363 47 q 369 92 363 78 q 385 116 374 106 q 409 132 395 126 q 438 138 422 138 q 467 132 453 138 q 490 116 480 126 q 507 92 500 106 q 513 62 513 78 z "},"ⁿ":{"ha":545,"x_min":89,"x_max":564,"o":"m 176 486 l 89 486 l 193 974 l 280 974 l 256 868 l 259 868 q 294 914 275 892 q 338 952 314 936 q 388 978 361 968 q 444 987 415 987 q 532 954 499 987 q 564 856 564 920 q 562 822 564 842 q 555 779 560 802 l 493 486 l 406 486 l 471 791 q 473 805 472 798 q 475 820 474 812 q 477 835 476 828 q 477 846 477 842 q 461 893 477 875 q 410 911 444 911 q 345 893 376 911 q 291 849 315 876 q 251 793 267 823 q 230 739 235 764 l 176 486 z "},"₧":{"ha":1541,"x_min":53,"x_max":1512,"o":"m 1084 503 l 924 503 l 866 232 q 862 210 864 222 q 858 185 860 197 q 855 162 856 173 q 854 144 854 152 q 866 99 854 115 q 907 82 879 82 q 955 89 925 82 q 1015 110 984 96 l 994 10 q 940 -6 970 0 q 883 -12 910 -12 q 818 -2 844 -12 q 774 28 791 9 q 749 74 757 47 q 742 133 742 100 q 745 178 742 153 q 753 222 748 203 l 812 503 l 707 503 l 720 561 q 654 471 695 510 q 528 396 604 423 q 347 368 452 368 l 247 368 l 170 0 l 53 0 l 258 972 l 463 972 q 596 951 541 972 q 686 894 651 930 q 737 812 721 859 q 753 717 753 766 q 734 597 753 653 l 832 597 l 868 766 q 879 770 869 767 q 901 776 888 772 q 928 784 913 780 q 956 792 943 789 q 977 799 968 796 q 987 802 986 802 l 945 597 l 1105 597 l 1084 503 m 633 707 q 620 773 633 743 q 583 825 608 804 q 523 858 559 846 q 439 869 486 869 l 354 869 l 269 471 l 358 471 q 482 489 430 471 q 567 538 534 507 q 617 613 601 570 q 633 707 633 656 m 1489 460 q 1421 493 1460 480 q 1348 505 1383 505 q 1252 486 1288 505 q 1217 427 1217 466 q 1223 401 1217 412 q 1242 379 1229 390 q 1276 358 1255 369 q 1326 336 1297 348 q 1393 301 1366 319 q 1436 264 1420 283 q 1459 222 1453 245 q 1466 172 1466 200 q 1451 98 1466 132 q 1406 38 1436 63 q 1331 -2 1376 12 q 1224 -17 1285 -17 q 1169 -14 1197 -17 q 1116 -6 1141 -12 q 1068 7 1090 -1 q 1029 25 1046 15 l 1051 131 q 1085 112 1065 121 q 1128 95 1105 102 q 1177 83 1152 87 q 1227 78 1202 78 q 1291 85 1265 78 q 1335 104 1318 92 q 1359 132 1352 116 q 1367 168 1367 149 q 1361 196 1367 183 q 1341 221 1355 209 q 1304 245 1326 233 q 1248 272 1281 257 q 1186 305 1211 288 q 1146 340 1162 321 q 1124 381 1131 359 q 1118 429 1118 403 q 1134 499 1118 467 q 1181 553 1151 530 q 1255 588 1212 575 q 1351 600 1298 600 q 1392 598 1370 600 q 1436 591 1415 595 q 1478 580 1458 586 q 1512 566 1498 574 l 1489 460 z "},"Ĳ":{"ha":860,"x_min":50,"x_max":875,"o":"m 167 0 l 50 0 l 256 972 l 374 972 l 167 0 m 742 345 q 695 189 723 256 q 627 75 667 121 q 536 6 588 30 q 419 -17 485 -17 q 390 -15 407 -17 q 357 -9 373 -13 q 327 -1 340 -5 q 307 7 313 3 l 326 115 q 344 103 334 109 q 367 94 355 98 q 393 87 379 90 q 419 85 406 85 q 487 98 456 85 q 544 141 518 111 q 589 220 569 172 q 625 339 610 269 l 758 972 l 875 972 l 742 345 z "},"ĳ":{"ha":695,"x_min":65,"x_max":723,"o":"m 282 3 q 244 -6 265 -3 q 201 -9 222 -9 q 99 25 133 -9 q 65 117 65 59 q 68 157 65 134 q 79 214 72 180 l 180 694 l 293 694 l 191 211 q 183 167 185 182 q 180 140 180 151 q 196 98 180 113 q 244 83 211 83 q 275 85 262 83 q 300 92 288 87 l 282 3 m 361 942 q 341 890 361 911 q 290 868 320 868 q 238 889 260 868 q 216 942 216 911 q 238 993 216 973 q 290 1013 260 1013 q 340 992 319 1013 q 361 942 361 972 m 514 32 q 398 -237 477 -147 q 196 -326 320 -326 q 171 -325 184 -326 q 145 -321 158 -323 q 119 -314 132 -318 q 96 -306 106 -311 l 116 -201 q 135 -212 124 -207 q 158 -222 146 -218 q 183 -229 170 -227 q 206 -232 195 -232 q 324 -172 276 -232 q 397 11 372 -111 l 543 694 l 654 694 l 514 32 m 723 942 q 702 890 723 911 q 651 868 682 868 q 599 889 621 868 q 577 942 577 911 q 599 993 577 973 q 651 1013 621 1013 q 702 992 681 1013 q 723 942 723 972 z "},"ŉ":{"ha":842,"x_min":52,"x_max":770,"o":"m 770 521 q 768 493 770 511 q 762 455 766 475 q 754 415 758 435 q 747 380 751 395 l 667 0 l 554 0 l 639 407 q 644 432 642 418 q 649 460 647 446 q 652 487 651 475 q 654 505 654 498 q 629 587 654 557 q 555 616 604 616 q 467 590 511 616 q 385 523 422 564 q 321 433 348 482 q 285 339 294 385 l 212 0 l 100 0 l 207 496 q 218 551 212 522 q 228 607 223 580 q 236 656 233 633 q 241 694 239 680 l 350 694 q 342 639 347 668 q 334 586 337 610 q 325 530 330 557 l 328 530 q 380 601 351 568 q 443 658 409 633 q 514 697 476 683 q 593 711 551 711 q 672 697 639 711 q 727 659 705 684 q 760 598 749 633 q 770 521 770 563 m 131 669 l 52 669 l 172 972 l 271 972 l 131 669 z "},"′":{"ha":318,"x_min":182,"x_max":332,"o":"m 332 972 l 260 669 l 182 669 l 239 972 l 332 972 z "},"″":{"ha":524,"x_min":184,"x_max":524,"o":"m 524 972 l 453 669 l 374 669 l 433 972 l 524 972 m 333 972 l 262 669 l 184 669 l 241 972 l 333 972 z "},"℅":{"ha":1116,"x_min":92,"x_max":1041,"o":"m 1041 290 q 969 81 1041 170 q 779 -14 892 -14 q 621 56 673 -14 q 582 187 582 110 q 654 393 582 304 q 849 489 732 489 q 989 436 937 489 q 1041 290 1041 384 m 1024 972 l 191 0 l 92 0 l 924 972 l 1024 972 m 949 287 q 848 413 949 413 q 720 337 770 413 q 673 186 673 269 q 781 62 673 62 q 903 132 854 62 q 949 287 949 197 m 505 862 q 390 908 451 908 q 254 831 304 908 q 213 689 213 768 q 317 562 213 562 q 456 615 376 562 l 435 519 q 303 484 366 484 q 165 541 214 484 q 120 683 120 595 q 193 894 120 808 q 399 986 271 986 q 526 952 477 986 l 505 862 z "},"ℓ":{"ha":449,"x_min":2,"x_max":437,"o":"m 2 307 l 131 459 l 131 754 q 136 849 131 803 q 159 931 142 895 q 208 989 176 968 q 292 1011 239 1011 q 351 1002 324 1011 q 397 974 378 992 q 427 929 416 956 q 437 867 437 902 q 422 786 437 829 q 377 692 408 743 q 301 582 347 642 q 193 449 255 522 l 193 178 q 198 120 193 146 q 212 77 202 95 q 240 50 222 59 q 283 40 257 40 q 348 60 314 40 q 418 112 381 80 l 418 45 q 347 -1 382 16 q 265 -17 311 -17 q 164 29 197 -17 q 131 178 131 75 l 131 376 l 43 271 l 2 307 m 193 532 q 329 717 281 635 q 376 866 376 799 q 370 907 376 890 q 351 935 363 924 q 324 951 339 946 q 292 956 309 956 q 240 940 259 956 q 210 895 220 923 q 196 829 199 867 q 193 751 193 792 l 193 532 z "},"□":{"ha":839,"x_min":98,"x_max":739,"o":"m 98 640 l 739 640 l 739 0 l 98 0 l 98 640 m 150 589 l 150 52 l 688 52 l 688 589 l 150 589 z "},"▪":{"ha":492,"x_min":89,"x_max":403,"o":"m 403 615 l 403 301 l 89 301 l 89 615 l 403 615 z "},"▫":{"ha":492,"x_min":89,"x_max":403,"o":"m 403 615 l 403 301 l 89 301 l 89 615 l 403 615 m 351 564 l 140 564 l 140 353 l 351 353 l 351 564 z "},"●":{"ha":839,"x_min":121,"x_max":718,"o":"m 419 690 q 569 650 498 690 q 677 542 640 610 q 718 392 718 469 q 632 180 718 267 q 421 93 545 93 q 209 180 296 93 q 121 392 121 267 q 161 543 121 473 q 274 652 202 614 q 419 690 345 690 z "},"◦":{"ha":492,"x_min":76,"x_max":416,"o":"m 246 629 q 367 579 317 629 q 416 460 416 530 q 367 339 416 389 q 246 289 317 289 q 126 339 176 289 q 76 460 76 389 q 126 579 76 529 q 246 629 176 629 m 245 578 q 162 543 197 578 q 127 460 127 509 q 162 375 127 410 q 247 340 197 340 q 331 375 296 340 q 365 460 365 410 q 330 544 365 509 q 245 578 295 578 z "},"Ā":{"ha":878,"x_min":-71,"x_max":798,"o":"m 677 0 l 633 272 l 221 272 l 64 0 l -71 0 l 509 972 l 628 972 l 798 0 l 677 0 m 553 789 q 552 804 552 795 q 551 822 551 813 q 551 840 551 831 q 551 854 551 848 l 549 854 q 543 840 547 848 q 536 822 540 831 q 527 804 532 813 q 519 789 523 795 l 279 375 l 615 375 l 553 789 m 395 1063 l 406 1136 l 751 1136 l 740 1063 l 395 1063 z "},"ā":{"ha":753,"x_min":53,"x_max":710,"o":"m 614 222 q 603 164 608 197 q 594 101 598 132 q 588 42 591 69 q 586 0 586 15 l 471 0 q 473 33 471 14 q 476 72 474 52 q 481 112 479 92 q 486 146 484 132 l 484 146 q 441 83 463 113 q 393 31 419 54 q 334 -4 366 9 q 257 -17 301 -17 q 174 -1 212 -17 q 109 48 136 16 q 67 129 82 80 q 53 241 53 177 q 61 331 53 281 q 89 433 69 381 q 140 535 108 486 q 220 625 172 585 q 333 688 268 664 q 484 711 398 711 q 595 703 538 711 q 710 684 653 695 l 614 222 m 582 603 q 526 612 558 608 q 467 616 494 616 q 362 598 408 616 q 284 549 317 579 q 228 479 251 519 q 192 399 205 440 q 173 318 178 358 q 167 245 167 278 q 174 176 167 207 q 195 123 180 145 q 232 90 210 102 q 286 78 255 78 q 350 92 320 78 q 405 130 379 106 q 452 184 431 153 q 490 251 473 216 q 518 322 507 286 q 538 392 530 358 l 582 603 m 314 827 l 325 900 l 669 900 l 659 827 l 314 827 z "},"Ĉ":{"ha":888,"x_min":93,"x_max":924,"o":"m 899 811 q 853 838 879 824 q 798 862 828 851 q 731 880 767 873 q 653 886 694 886 q 470 850 551 886 q 331 751 388 814 q 243 603 274 688 q 212 419 212 518 q 235 276 212 338 q 298 172 257 214 q 397 108 340 130 q 525 86 455 86 q 606 91 570 86 q 674 105 643 96 q 733 127 705 115 q 786 154 760 140 l 760 35 q 642 -4 705 9 q 501 -17 579 -17 q 333 14 409 -17 q 204 100 258 44 q 122 235 151 156 q 93 410 93 313 q 133 644 93 537 q 248 827 174 750 q 426 946 322 903 q 657 989 530 989 q 811 970 744 989 q 924 928 878 951 l 899 811 m 755 1063 l 677 1220 l 533 1063 l 451 1063 l 643 1288 l 733 1288 l 831 1063 l 755 1063 z "},"ĉ":{"ha":606,"x_min":53,"x_max":642,"o":"m 586 557 q 517 599 557 582 q 428 616 477 616 q 343 600 381 616 q 277 557 306 584 q 227 494 248 530 q 192 421 205 459 q 172 346 178 383 q 165 275 165 308 q 208 128 165 178 q 325 78 251 78 q 418 97 370 78 q 509 144 466 115 l 485 33 q 397 -4 441 9 q 304 -17 353 -17 q 194 5 241 -17 q 115 64 146 26 q 68 154 84 102 q 53 267 53 206 q 64 379 53 323 q 99 483 76 434 q 155 574 121 532 q 231 647 188 616 q 327 694 274 677 q 441 711 380 711 q 497 707 471 711 q 545 696 524 703 q 584 682 567 690 q 611 667 601 674 l 586 557 m 565 827 l 488 983 l 343 827 l 261 827 l 453 1051 l 543 1051 l 642 827 l 565 827 z "},"Ċ":{"ha":888,"x_min":93,"x_max":924,"o":"m 899 811 q 853 838 879 824 q 798 862 828 851 q 731 880 767 873 q 653 886 694 886 q 470 850 551 886 q 331 751 388 814 q 243 603 274 688 q 212 419 212 518 q 235 276 212 338 q 298 172 257 214 q 397 108 340 130 q 525 86 455 86 q 606 91 570 86 q 674 105 643 96 q 733 127 705 115 q 786 154 760 140 l 760 35 q 642 -4 705 9 q 501 -17 579 -17 q 333 14 409 -17 q 204 100 258 44 q 122 235 151 156 q 93 410 93 313 q 133 644 93 537 q 248 827 174 750 q 426 946 322 903 q 657 989 530 989 q 811 970 744 989 q 924 928 878 951 l 899 811 m 742 1131 q 723 1082 742 1102 q 675 1063 704 1063 q 651 1068 663 1063 q 630 1082 639 1073 q 616 1104 621 1091 q 610 1131 610 1116 q 616 1157 610 1145 q 630 1177 621 1168 q 651 1191 639 1185 q 675 1196 663 1196 q 701 1191 689 1196 q 722 1177 713 1185 q 736 1157 731 1168 q 742 1131 742 1145 z "},"ċ":{"ha":606,"x_min":53,"x_max":611,"o":"m 586 557 q 517 599 557 582 q 428 616 477 616 q 343 600 381 616 q 277 557 306 584 q 227 494 248 530 q 192 421 205 459 q 172 346 178 383 q 165 275 165 308 q 208 128 165 178 q 325 78 251 78 q 418 97 370 78 q 509 144 466 115 l 485 33 q 397 -4 441 9 q 304 -17 353 -17 q 194 5 241 -17 q 115 64 146 26 q 68 154 84 102 q 53 267 53 206 q 64 379 53 323 q 99 483 76 434 q 155 574 121 532 q 231 647 188 616 q 327 694 274 677 q 441 711 380 711 q 497 707 471 711 q 545 696 524 703 q 584 682 567 690 q 611 667 601 674 l 586 557 m 547 895 q 528 846 547 866 q 481 827 509 827 q 456 832 468 827 q 435 846 444 837 q 421 868 427 855 q 416 895 416 880 q 421 921 416 909 q 435 941 427 932 q 456 955 444 949 q 481 960 468 960 q 506 955 494 960 q 527 941 518 949 q 542 921 536 932 q 547 895 547 909 z "},"Ē":{"ha":693,"x_min":50,"x_max":749,"o":"m 726 869 l 351 869 l 281 538 l 628 538 l 606 435 l 258 435 l 187 103 l 586 103 l 566 0 l 50 0 l 256 972 l 749 972 l 726 869 m 336 1063 l 347 1136 l 692 1136 l 681 1063 l 336 1063 z "},"ē":{"ha":676,"x_min":53,"x_max":650,"o":"m 650 532 q 625 432 650 477 q 545 354 601 387 q 396 304 488 322 q 168 286 304 287 q 167 271 167 279 q 167 257 167 263 q 177 188 167 220 q 209 131 187 155 q 263 92 230 106 q 343 78 297 78 q 446 96 390 78 q 553 147 502 114 l 532 37 q 443 -1 494 16 q 328 -17 391 -17 q 198 7 251 -17 q 114 70 146 31 q 67 162 81 110 q 53 271 53 214 q 66 388 53 332 q 105 494 80 445 q 164 583 130 543 q 241 652 199 623 q 331 696 283 680 q 431 711 379 711 q 525 697 484 711 q 594 658 566 683 q 635 601 621 633 q 650 532 650 568 m 536 526 q 505 593 536 569 q 421 616 473 616 q 341 598 380 616 q 270 549 302 581 q 214 474 237 517 q 179 379 190 430 q 344 389 276 379 q 454 418 412 399 q 517 464 497 437 q 536 526 536 492 m 292 827 l 302 900 l 647 900 l 636 827 l 292 827 z "},"Ĕ":{"ha":693,"x_min":50,"x_max":749,"o":"m 726 869 l 351 869 l 281 538 l 628 538 l 606 435 l 258 435 l 187 103 l 586 103 l 566 0 l 50 0 l 256 972 l 749 972 l 726 869 m 720 1236 q 687 1163 708 1195 q 638 1109 667 1131 q 576 1075 610 1086 q 504 1063 543 1063 q 436 1074 467 1063 q 384 1104 405 1085 q 350 1151 362 1124 q 338 1209 338 1177 q 339 1223 338 1217 q 342 1236 340 1228 l 414 1236 q 412 1227 412 1231 q 412 1217 412 1223 q 438 1154 412 1177 q 507 1131 465 1131 q 593 1157 559 1131 q 646 1236 628 1182 l 720 1236 z "},"ĕ":{"ha":676,"x_min":53,"x_max":671,"o":"m 650 532 q 625 432 650 477 q 545 354 601 387 q 396 304 488 322 q 168 286 304 287 q 167 271 167 279 q 167 257 167 263 q 177 188 167 220 q 209 131 187 155 q 263 92 230 106 q 343 78 297 78 q 446 96 390 78 q 553 147 502 114 l 532 37 q 443 -1 494 16 q 328 -17 391 -17 q 198 7 251 -17 q 114 70 146 31 q 67 162 81 110 q 53 271 53 214 q 66 388 53 332 q 105 494 80 445 q 164 583 130 543 q 241 652 199 623 q 331 696 283 680 q 431 711 379 711 q 525 697 484 711 q 594 658 566 683 q 635 601 621 633 q 650 532 650 568 m 536 526 q 505 593 536 569 q 421 616 473 616 q 341 598 380 616 q 270 549 302 581 q 214 474 237 517 q 179 379 190 430 q 344 389 276 379 q 454 418 412 399 q 517 464 497 437 q 536 526 536 492 m 671 999 q 638 926 659 958 q 590 872 618 895 q 528 838 562 850 q 455 827 494 827 q 387 838 418 827 q 335 868 356 848 q 301 914 313 887 q 290 972 290 941 q 291 986 290 981 q 294 999 292 991 l 365 999 q 363 990 363 994 q 363 981 363 986 q 390 917 363 940 q 458 895 416 895 q 545 920 510 895 q 597 999 579 945 l 671 999 z "},"Ė":{"ha":693,"x_min":50,"x_max":749,"o":"m 726 869 l 351 869 l 281 538 l 628 538 l 606 435 l 258 435 l 187 103 l 586 103 l 566 0 l 50 0 l 256 972 l 749 972 l 726 869 m 585 1131 q 566 1082 585 1102 q 519 1063 547 1063 q 494 1068 506 1063 q 473 1082 482 1073 q 459 1104 465 1091 q 454 1131 454 1116 q 459 1157 454 1145 q 473 1177 465 1168 q 494 1191 482 1185 q 519 1196 506 1196 q 544 1191 532 1196 q 565 1177 556 1185 q 580 1157 574 1168 q 585 1131 585 1145 z "},"ė":{"ha":676,"x_min":53,"x_max":650,"o":"m 650 532 q 625 432 650 477 q 545 354 601 387 q 396 304 488 322 q 168 286 304 287 q 167 271 167 279 q 167 257 167 263 q 177 188 167 220 q 209 131 187 155 q 263 92 230 106 q 343 78 297 78 q 446 96 390 78 q 553 147 502 114 l 532 37 q 443 -1 494 16 q 328 -17 391 -17 q 198 7 251 -17 q 114 70 146 31 q 67 162 81 110 q 53 271 53 214 q 66 388 53 332 q 105 494 80 445 q 164 583 130 543 q 241 652 199 623 q 331 696 283 680 q 431 711 379 711 q 525 697 484 711 q 594 658 566 683 q 635 601 621 633 q 650 532 650 568 m 536 526 q 505 593 536 569 q 421 616 473 616 q 341 598 380 616 q 270 549 302 581 q 214 474 237 517 q 179 379 190 430 q 344 389 276 379 q 454 418 412 399 q 517 464 497 437 q 536 526 536 492 m 534 895 q 515 846 534 866 q 468 827 496 827 q 443 832 455 827 q 422 846 431 837 q 408 868 414 855 q 403 895 403 880 q 408 921 403 909 q 422 941 414 932 q 443 955 431 949 q 468 960 455 960 q 493 955 481 960 q 514 941 505 949 q 529 921 524 932 q 534 895 534 909 z "},"Ĝ":{"ha":956,"x_min":93,"x_max":937,"o":"m 916 807 q 864 836 893 822 q 801 862 836 850 q 726 880 766 873 q 640 886 686 886 q 460 850 539 886 q 326 752 380 814 q 241 606 271 690 q 212 427 212 522 q 234 284 212 347 q 298 177 256 221 q 398 110 339 133 q 530 86 456 86 q 622 95 581 86 q 699 117 663 103 l 757 400 l 532 400 l 554 501 l 896 501 l 800 53 q 673 2 743 22 q 517 -18 603 -18 q 338 15 417 -18 q 205 106 260 48 q 122 243 151 164 q 93 414 93 322 q 109 566 93 492 q 157 703 125 639 q 237 820 189 767 q 347 910 284 872 q 486 968 409 947 q 654 989 563 989 q 748 983 705 989 q 826 967 791 977 q 890 946 862 958 q 937 925 918 935 l 916 807 m 755 1064 l 677 1221 l 533 1064 l 451 1064 l 643 1289 l 733 1289 l 831 1064 l 755 1064 z "},"ĝ":{"ha":753,"x_min":-24,"x_max":710,"o":"m 576 50 q 532 -100 559 -31 q 458 -219 504 -169 q 345 -298 412 -270 q 182 -326 278 -326 q 66 -311 115 -326 q -24 -273 17 -295 l -3 -170 q 88 -213 40 -195 q 192 -231 136 -231 q 297 -213 252 -231 q 373 -161 341 -195 q 427 -77 406 -127 q 463 36 448 -28 l 486 144 l 484 144 q 433 73 458 103 q 381 23 408 43 q 324 -7 354 3 q 258 -17 294 -17 q 174 0 212 -17 q 109 49 136 16 q 67 130 82 81 q 53 243 53 179 q 66 361 53 303 q 104 472 79 420 q 166 568 130 524 q 248 644 202 612 q 350 693 294 675 q 468 711 405 711 q 594 703 531 711 q 710 685 657 695 l 576 50 m 582 603 q 526 612 559 608 q 456 616 493 616 q 339 587 392 616 q 248 507 286 557 q 188 389 210 456 q 167 248 167 322 q 173 180 167 211 q 194 126 180 149 q 230 91 208 104 q 283 78 252 78 q 352 94 321 78 q 410 135 384 109 q 457 194 437 161 q 494 261 478 227 q 521 329 510 296 q 538 390 532 363 l 582 603 m 603 827 l 526 983 l 381 827 l 299 827 l 491 1051 l 581 1051 l 680 827 l 603 827 z "},"Ġ":{"ha":956,"x_min":93,"x_max":937,"o":"m 916 807 q 864 836 893 822 q 801 862 836 850 q 726 880 766 873 q 640 886 686 886 q 460 850 539 886 q 326 752 380 814 q 241 606 271 690 q 212 427 212 522 q 234 284 212 347 q 298 177 256 221 q 398 110 339 133 q 530 86 456 86 q 622 95 581 86 q 699 117 663 103 l 757 400 l 532 400 l 554 501 l 896 501 l 800 53 q 673 2 743 22 q 517 -18 603 -18 q 338 15 417 -18 q 205 106 260 48 q 122 243 151 164 q 93 414 93 322 q 109 566 93 492 q 157 703 125 639 q 237 820 189 767 q 347 910 284 872 q 486 968 409 947 q 654 989 563 989 q 748 983 705 989 q 826 967 791 977 q 890 946 862 958 q 937 925 918 935 l 916 807 m 757 1131 q 738 1082 757 1102 q 690 1063 719 1063 q 666 1068 677 1063 q 645 1082 654 1073 q 631 1104 636 1091 q 625 1131 625 1116 q 631 1157 625 1145 q 645 1177 636 1168 q 666 1191 654 1185 q 690 1196 677 1196 q 716 1191 704 1196 q 737 1177 728 1185 q 751 1157 746 1168 q 757 1131 757 1145 z "},"ġ":{"ha":753,"x_min":-24,"x_max":710,"o":"m 576 50 q 532 -100 559 -31 q 458 -219 504 -169 q 345 -298 412 -270 q 182 -326 278 -326 q 66 -311 115 -326 q -24 -273 17 -295 l -3 -170 q 88 -213 40 -195 q 192 -231 136 -231 q 297 -213 252 -231 q 373 -161 341 -195 q 427 -77 406 -127 q 463 36 448 -28 l 486 144 l 484 144 q 433 73 458 103 q 381 23 408 43 q 324 -7 354 3 q 258 -17 294 -17 q 174 0 212 -17 q 109 49 136 16 q 67 130 82 81 q 53 243 53 179 q 66 361 53 303 q 104 472 79 420 q 166 568 130 524 q 248 644 202 612 q 350 693 294 675 q 468 711 405 711 q 594 703 531 711 q 710 685 657 695 l 576 50 m 582 603 q 526 612 559 608 q 456 616 493 616 q 339 587 392 616 q 248 507 286 557 q 188 389 210 456 q 167 248 167 322 q 173 180 167 211 q 194 126 180 149 q 230 91 208 104 q 283 78 252 78 q 352 94 321 78 q 410 135 384 109 q 457 194 437 161 q 494 261 478 227 q 521 329 510 296 q 538 390 532 363 l 582 603 m 566 895 q 547 846 566 866 q 500 827 528 827 q 475 832 487 827 q 454 846 463 837 q 440 868 446 855 q 435 895 435 880 q 440 921 435 909 q 454 941 446 932 q 475 955 463 949 q 500 960 487 960 q 525 955 513 960 q 546 941 537 949 q 561 921 555 932 q 566 895 566 909 z "},"Ģ":{"ha":956,"x_min":93,"x_max":937,"o":"m 916 807 q 864 836 893 822 q 801 862 836 850 q 726 880 766 873 q 640 886 686 886 q 460 850 539 886 q 326 752 380 814 q 241 606 271 690 q 212 427 212 522 q 234 284 212 347 q 298 177 256 221 q 398 110 339 133 q 530 86 456 86 q 622 95 581 86 q 699 117 663 103 l 757 400 l 532 400 l 554 501 l 896 501 l 800 53 q 673 2 743 22 q 517 -18 603 -18 q 338 15 417 -18 q 205 106 260 48 q 122 243 151 164 q 93 414 93 322 q 109 566 93 492 q 157 703 125 639 q 237 820 189 767 q 347 910 284 872 q 486 968 409 947 q 654 989 563 989 q 748 983 705 989 q 826 967 791 977 q 890 946 862 958 q 937 925 918 935 l 916 807 m 570 -81 l 457 -257 l 374 -257 l 453 -81 l 570 -81 z "},"ģ":{"ha":753,"x_min":-24,"x_max":710,"o":"m 576 50 q 532 -100 559 -31 q 458 -219 504 -169 q 345 -298 412 -270 q 182 -326 278 -326 q 66 -311 115 -326 q -24 -273 17 -295 l -3 -170 q 88 -213 40 -195 q 192 -231 136 -231 q 297 -213 252 -231 q 373 -161 341 -195 q 427 -77 406 -127 q 463 36 448 -28 l 486 144 l 484 144 q 433 73 458 103 q 381 23 408 43 q 324 -7 354 3 q 258 -17 294 -17 q 174 0 212 -17 q 109 49 136 16 q 67 130 82 81 q 53 243 53 179 q 66 361 53 303 q 104 472 79 420 q 166 568 130 524 q 248 644 202 612 q 350 693 294 675 q 468 711 405 711 q 594 703 531 711 q 710 685 657 695 l 576 50 m 582 603 q 526 612 559 608 q 456 616 493 616 q 339 587 392 616 q 248 507 286 557 q 188 389 210 456 q 167 248 167 322 q 173 180 167 211 q 194 126 180 149 q 230 91 208 104 q 283 78 252 78 q 352 94 321 78 q 410 135 384 109 q 457 194 437 161 q 494 261 478 227 q 521 329 510 296 q 538 390 532 363 l 582 603 m 517 827 l 400 827 l 550 1003 l 633 1003 l 517 827 z "},"Ĥ":{"ha":983,"x_min":50,"x_max":987,"o":"m 781 0 l 664 0 l 757 439 l 260 439 l 168 0 l 50 0 l 256 972 l 374 972 l 282 546 l 779 546 l 871 972 l 987 972 l 781 0 m 738 1063 l 661 1219 l 516 1063 l 434 1063 l 626 1287 l 716 1287 l 814 1063 l 738 1063 z "},"ĥ":{"ha":774,"x_min":33,"x_max":703,"o":"m 703 519 q 700 493 703 511 q 695 454 698 475 q 688 414 692 434 q 681 380 684 394 l 600 0 l 488 0 l 572 407 q 578 432 575 418 q 583 460 581 446 q 586 487 585 475 q 587 505 587 498 q 563 587 587 558 q 489 616 539 616 q 402 591 446 616 q 321 525 359 566 q 257 435 284 485 q 218 336 229 385 l 146 0 l 33 0 l 253 1028 l 364 1028 l 258 532 l 261 532 q 316 603 286 570 q 379 660 346 636 q 450 698 413 684 q 526 711 487 711 q 658 660 613 711 q 703 519 703 609 m 619 1118 l 542 1274 l 397 1118 l 315 1118 l 507 1342 l 597 1342 l 696 1118 l 619 1118 z "},"Ħ":{"ha":983,"x_min":50,"x_max":1058,"o":"m 781 0 l 664 0 l 757 439 l 260 439 l 168 0 l 50 0 l 197 697 l 89 697 l 111 800 l 219 800 l 256 972 l 374 972 l 336 800 l 833 800 l 871 972 l 987 972 l 951 800 l 1058 800 l 1036 697 l 928 697 l 781 0 m 779 546 l 812 697 l 315 697 l 282 546 l 779 546 z "},"ħ":{"ha":774,"x_min":33,"x_max":703,"o":"m 703 519 q 700 493 703 511 q 695 454 698 475 q 688 414 692 434 q 681 380 684 394 l 600 0 l 488 0 l 572 407 q 578 432 575 418 q 583 460 581 446 q 586 487 585 475 q 587 505 587 498 q 563 587 587 558 q 489 616 539 616 q 402 591 446 616 q 321 525 359 566 q 257 435 284 485 q 218 336 229 385 l 146 0 l 33 0 l 208 815 l 116 815 l 135 905 l 227 905 l 253 1028 l 364 1028 l 338 905 l 563 905 l 544 815 l 319 815 l 258 532 l 261 532 q 316 603 286 570 q 379 660 346 636 q 450 698 413 684 q 526 711 487 711 q 658 660 613 711 q 703 519 703 609 z "},"Ĩ":{"ha":370,"x_min":50,"x_max":553,"o":"m 167 0 l 50 0 l 256 972 l 374 972 l 167 0 m 553 1223 q 539 1165 551 1192 q 508 1118 528 1138 q 463 1086 489 1097 q 406 1074 437 1074 q 352 1084 374 1074 q 312 1105 330 1094 q 279 1127 295 1117 q 242 1137 263 1137 q 188 1114 208 1137 q 164 1061 168 1092 l 99 1061 q 114 1121 101 1093 q 146 1168 126 1149 q 194 1199 167 1188 q 254 1211 222 1211 q 303 1200 283 1211 q 340 1178 323 1190 q 374 1155 357 1165 q 413 1145 391 1145 q 441 1151 428 1145 q 464 1167 454 1157 q 480 1192 474 1178 q 488 1223 486 1206 l 553 1223 z "},"ĩ":{"ha":359,"x_min":50,"x_max":504,"o":"m 282 3 q 244 -6 265 -3 q 201 -9 222 -9 q 99 25 133 -9 q 65 117 65 59 q 68 157 65 134 q 79 214 72 180 l 180 694 l 293 694 l 191 211 q 183 167 185 182 q 180 140 180 151 q 196 98 180 113 q 244 83 211 83 q 275 85 262 83 q 300 92 288 87 l 282 3 m 504 989 q 490 931 502 958 q 459 884 478 904 q 413 852 439 863 q 357 840 387 840 q 302 850 324 840 q 263 871 280 860 q 230 893 245 883 q 193 903 214 903 q 138 880 158 903 q 115 827 118 858 l 50 827 q 64 887 52 859 q 97 935 77 915 q 145 965 117 954 q 204 977 172 977 q 254 966 234 977 q 291 944 274 956 q 325 921 308 931 q 363 911 341 911 q 391 917 378 911 q 414 933 404 923 q 431 958 425 944 q 439 989 437 972 l 504 989 z "},"Ī":{"ha":370,"x_min":50,"x_max":510,"o":"m 167 0 l 50 0 l 256 972 l 374 972 l 167 0 m 155 1062 l 165 1135 l 510 1135 l 499 1062 l 155 1062 z "},"ī":{"ha":359,"x_min":65,"x_max":428,"o":"m 282 3 q 244 -6 265 -3 q 201 -9 222 -9 q 99 25 133 -9 q 65 117 65 59 q 68 157 65 134 q 79 214 72 180 l 180 694 l 293 694 l 191 211 q 183 167 185 182 q 180 140 180 151 q 196 98 180 113 q 244 83 211 83 q 275 85 262 83 q 300 92 288 87 l 282 3 m 73 827 l 83 900 l 428 900 l 417 827 l 73 827 z "},"Ĭ":{"ha":370,"x_min":50,"x_max":550,"o":"m 167 0 l 50 0 l 256 972 l 374 972 l 167 0 m 550 1235 q 517 1162 538 1194 q 468 1108 496 1131 q 406 1074 440 1086 q 334 1063 372 1063 q 266 1074 296 1063 q 213 1104 235 1084 q 180 1150 192 1123 q 168 1208 168 1177 q 169 1222 168 1217 q 172 1235 170 1227 l 243 1235 q 242 1226 242 1230 q 242 1217 242 1222 q 268 1153 242 1176 q 336 1131 294 1131 q 423 1156 389 1131 q 475 1235 458 1181 l 550 1235 z "},"ĭ":{"ha":359,"x_min":65,"x_max":474,"o":"m 282 3 q 244 -6 265 -3 q 201 -9 222 -9 q 99 25 133 -9 q 65 117 65 59 q 68 157 65 134 q 79 214 72 180 l 180 694 l 293 694 l 191 211 q 183 167 185 182 q 180 140 180 151 q 196 98 180 113 q 244 83 211 83 q 275 85 262 83 q 300 92 288 87 l 282 3 m 474 999 q 441 926 462 958 q 392 872 420 895 q 330 838 364 850 q 258 827 296 827 q 190 838 220 827 q 137 868 159 848 q 104 914 116 887 q 92 972 92 941 q 93 986 92 981 q 96 999 94 991 l 168 999 q 166 990 166 994 q 166 981 166 986 q 192 917 166 940 q 260 895 218 895 q 347 920 313 895 q 399 999 382 945 l 474 999 z "},"Į":{"ha":370,"x_min":-53,"x_max":374,"o":"m 153 0 q 93 -56 117 -32 q 54 -101 68 -81 q 32 -137 39 -121 q 25 -170 25 -154 q 79 -224 25 -224 q 112 -218 95 -224 q 140 -207 130 -212 l 130 -277 q 99 -287 118 -283 q 57 -292 80 -292 q -26 -263 1 -292 q -53 -186 -53 -235 q -46 -148 -53 -168 q -24 -105 -39 -127 q 18 -56 -8 -82 q 83 0 44 -30 l 50 0 l 256 972 l 374 972 l 167 0 l 153 0 z "},"į":{"ha":359,"x_min":65,"x_max":361,"o":"m 198 -9 q 100 24 134 -9 q 65 117 65 58 q 68 157 65 134 q 79 214 72 180 l 180 694 l 293 694 l 191 211 q 183 167 185 182 q 180 140 180 151 q 196 98 180 113 q 244 83 211 83 q 275 85 262 83 q 300 92 288 87 l 282 3 q 220 -56 244 -32 q 180 -101 195 -81 q 159 -137 165 -121 q 152 -170 152 -154 q 206 -224 152 -224 q 239 -218 222 -224 q 267 -207 256 -212 l 257 -277 q 226 -287 245 -283 q 184 -292 207 -292 q 101 -263 128 -292 q 74 -186 74 -235 q 81 -148 74 -168 q 103 -105 87 -127 q 146 -55 119 -82 q 198 -9 173 -28 m 361 942 q 341 890 361 911 q 290 868 320 868 q 238 889 260 868 q 216 942 216 911 q 238 993 216 973 q 290 1013 260 1013 q 340 992 319 1013 q 361 942 361 972 z "},"Ĵ":{"ha":481,"x_min":-72,"x_max":625,"o":"m 363 345 q 316 189 344 256 q 248 75 288 121 q 157 6 209 30 q 40 -17 106 -17 q 11 -15 28 -17 q -22 -9 -6 -13 q -52 -1 -39 -5 q -72 7 -66 3 l -53 115 q -35 103 -45 109 q -12 94 -24 98 q 14 87 0 90 q 40 85 27 85 q 108 98 77 85 q 164 141 139 111 q 210 220 190 172 q 245 339 231 269 l 379 972 l 496 972 l 363 345 m 549 1063 l 471 1219 l 327 1063 l 245 1063 l 437 1287 l 527 1287 l 625 1063 l 549 1063 z "},"ĵ":{"ha":334,"x_min":-265,"x_max":429,"o":"m 153 32 q 37 -237 115 -147 q -165 -326 -41 -326 q -190 -325 -177 -326 q -217 -321 -203 -323 q -242 -314 -230 -318 q -265 -306 -255 -311 l -245 -201 q -227 -212 -237 -207 q -203 -222 -216 -218 q -179 -229 -191 -227 q -155 -232 -166 -232 q -37 -172 -85 -232 q 36 11 11 -111 l 182 694 l 293 694 l 153 32 m 352 827 l 275 983 l 130 827 l 48 827 l 240 1051 l 330 1051 l 429 827 l 352 827 z "},"Ķ":{"ha":833,"x_min":50,"x_max":913,"o":"m 389 490 l 726 0 l 585 0 l 290 443 q 280 461 286 450 q 271 479 274 472 l 268 479 l 167 0 l 50 0 l 256 972 l 374 972 l 277 515 l 279 515 q 295 532 287 524 q 311 549 304 541 l 758 972 l 913 972 l 389 490 m 439 -81 l 326 -257 l 243 -257 l 322 -81 l 439 -81 z "},"ķ":{"ha":681,"x_min":33,"x_max":724,"o":"m 338 374 l 583 0 l 454 0 l 227 367 l 224 367 l 146 0 l 33 0 l 253 1028 l 364 1028 l 231 400 l 233 400 l 579 694 l 724 694 l 338 374 m 377 -81 l 264 -257 l 181 -257 l 260 -81 l 377 -81 z "},"ĸ":{"ha":681,"x_min":33,"x_max":724,"o":"m 336 362 l 583 0 l 454 0 l 224 355 l 222 355 l 146 0 l 33 0 l 181 694 l 292 694 l 229 389 l 231 389 l 579 694 l 724 694 l 336 362 z "},"Ļ":{"ha":643,"x_min":50,"x_max":576,"o":"m 420 -161 q 369 -258 420 -222 q 221 -294 318 -294 q 192 -293 208 -294 q 161 -290 176 -292 l 174 -231 q 225 -235 201 -235 q 312 -218 284 -235 q 340 -172 340 -201 q 321 -135 340 -149 q 260 -121 302 -121 q 241 -121 250 -121 q 222 -123 232 -122 l 249 0 l 50 0 l 256 972 l 374 972 l 189 106 l 576 106 l 554 0 l 314 0 l 298 -71 q 345 -76 323 -71 q 384 -94 367 -82 q 410 -122 400 -105 q 420 -161 420 -139 z "},"ļ":{"ha":359,"x_min":46,"x_max":366,"o":"m 134 2 q 99 24 115 9 q 65 117 65 59 q 68 157 65 134 q 79 214 72 180 l 253 1029 l 366 1029 l 191 211 q 183 167 185 182 q 180 140 180 151 q 196 98 180 113 q 244 83 211 83 q 275 85 262 83 q 300 92 288 87 l 282 3 q 246 -6 265 -3 q 197 -10 227 -9 l 182 -71 q 230 -76 208 -71 q 268 -94 252 -82 q 295 -122 285 -105 q 304 -161 304 -139 q 254 -258 304 -222 q 106 -294 203 -294 q 77 -293 92 -294 q 46 -290 61 -292 l 58 -231 q 110 -235 86 -235 q 197 -218 169 -235 q 225 -172 225 -201 q 206 -135 225 -149 q 144 -121 186 -121 q 126 -121 135 -121 q 107 -123 117 -122 l 134 2 z "},"Ņ":{"ha":1043,"x_min":50,"x_max":1048,"o":"m 842 0 l 715 0 l 357 779 q 352 792 355 785 q 347 809 349 800 q 342 826 344 818 q 339 839 340 834 l 335 839 q 333 822 334 832 q 331 802 332 812 q 328 782 330 792 q 325 765 326 772 l 163 0 l 50 0 l 256 972 l 392 972 l 736 210 q 743 195 739 203 q 749 177 746 186 q 756 159 753 168 q 761 144 759 151 l 764 144 q 766 163 764 153 q 768 186 767 174 q 772 210 770 198 q 775 229 774 221 l 933 972 l 1048 972 l 842 0 m 526 -81 l 414 -257 l 330 -257 l 410 -81 l 526 -81 z "}}}
